<svg width="126" height="155" viewBox="0 0 126 155" fill="none" xmlns="http://www.w3.org/2000/svg">
<path d="M89.7 123H35.7C31 123 27.1 126.8 27.1 131.6V152.2H97.5C97.9 152.2 98.2 151.9 98.2 151.5V131.6C98.3 126.8 94.5 123 89.7 123Z" fill="#F1BC19" stroke="#FF1759" stroke-width="3.6114" stroke-miterlimit="10"/>
<path d="M44.8999 123H35.7999C31.0999 123 27.2 126.8 27.2 131.6V149.7H30.7C33.8 149.7 36.2999 147.2 36.2999 144.1V131.6C36.2999 126.8 40.0999 123 44.8999 123Z" fill="#F1C643"/>
<path d="M63.4 2.70004C29.8 2.70004 2.5 30 2.5 63.7C2.5 86.7 15.4 107.8 35.9 118.2L89.6 118.8C110.8 108.6 124.2 87.2 124.2 63.7C124.2 30 97 2.70004 63.4 2.70004Z" fill="#D7C6FF"/>
<path d="M14.7 63.8C14.7 32.1 38.7 6.10004 69.5 3.10004C67.5 2.90004 65.5 2.80002 63.4 2.80002C29.8 2.80002 2.5 30.1 2.5 63.8C2.5 86.8 15.4 107.9 35.9 118.3H48.1C27.6 107.8 14.6 86.8 14.7 63.8Z" fill="#AFA1D1"/>
<path d="M75.2999 99.5H51.3999L51.2999 99.6V124.4L75.3999 124.3L75.2999 99.5Z" fill="#6ACF00"/>
<path d="M78.5 20.5C103.3 29.7 110.2 63.1 91.6 82.6L75.4 99.6L67.6 107.7C65.4 110 61.7 110.1 59.4 107.9C59.3 107.8 59.3 107.8 59.2 107.7L51.4 99.6L35.2 82.6C16.6 63.1 23.5 29.8 48.3 20.5C58 16.9 68.7 16.9 78.5 20.5Z" fill="#6ACF00"/>
<path d="M91.8 48.3C91.8 48.3 93.5 61.9001 87 69.2001C80.5 76.5001 68.3 74.6 68.3 74.6C68.3 74.6 66.6 61.0001 73.1 53.7001C79.6 46.5001 91.8 48.3 91.8 48.3Z" fill="#1A1A1A"/>
<path d="M53.6 53.8C60.1 61.1 58.4 74.7 58.4 74.7C58.4 74.7 46.2 76.6 39.7 69.3C33.2 62 34.9 48.4 34.9 48.4C34.9 48.4 47.1 46.5 53.6 53.8Z" fill="#1A1A1A"/>
<path d="M107.4 30.8C114.9 39.8 116 52.6 110.2 62.8C113 52.9 110.2 42.3 102.9 35.1C101.7 33.9 101.6 31.9001 102.8 30.7001C103 30.5001 103.3 30.3 103.6 30.1C104 29.9 104.5 29.8 105 29.8C105.9 29.7 106.8 30.1 107.4 30.8Z" fill="#E5E5E5"/>
<path d="M89.6 124.2V111.9V111.7C87.6 113 85.5 114.2 83.4 115.3V127.9C85.5 126.9 87.6 125.7 89.6 124.2Z" fill="#AFBAC8"/>
<path d="M83.2999 127.9C81.3999 128.8 79.3999 129.6 77.2999 130.3V130.2V117.7C79.3999 117.1 81.3999 116.3 83.2999 115.3V127.9Z" fill="#818EAC"/>
<path d="M75.4 118.2C76.1 118 76.7 117.8 77.3 117.6V130.1V130.2C75.4 130.8 73.5 131.3 71.6 131.6V119C72.9 118.8 74.2 118.6 75.4 118.2Z" fill="#AFBAC8"/>
<path d="M71.6 119.1V131.7C69.7 132 67.8 132.3 65.9 132.4V132.2V119.8C67.8 119.6 69.7 119.4 71.6 119.1Z" fill="#818EAC"/>
<path d="M65.8999 132.2V132.4C64.9999 132.5 64.1 132.5 63.2 132.5C62.2 132.5 61.2 132.5 60.2 132.4V132.3V119.9C61.2 120 62.2 120 63.2 120C64.1 120 64.9999 120 65.8999 119.9V132.2Z" fill="#AFBAC8"/>
<path d="M60.2 119.7V132.1V132.2C58.2 132.1 56.2 131.8 54.2 131.4V131.2V118.8C56.2 119.3 58.2 119.6 60.2 119.7Z" fill="#818EAC"/>
<path d="M54.2 118.9V131.3V131.5C52.2 131.1 50.2 130.6 48.2 129.9V117.5L48.2999 117.3C49.2999 117.6 50.2999 117.9 51.3999 118.2C52.2999 118.5 53.2 118.8 54.2 118.9Z" fill="#AFBAC8"/>
<path d="M48.2999 117.4L48.2 117.6V130C46.1 129.3 44.1 128.5 42.2 127.5V114.9C44.2 115.8 46.1999 116.7 48.2999 117.4Z" fill="#818EAC"/>
<path d="M35.9 111.1V123.6C37.9 125 40 126.3 42.2 127.4V114.8C40 113.8 37.9 112.5 35.9 111.1Z" fill="#AFBAC8"/>
<path d="M107.9 70.7C106.7 70.7 105.8 69.7 105.8 68.6C105.8 67.4 106.8 66.5 107.9 66.5C109 66.5 110 67.5 110 68.6C110 69.8 109.1 70.7 107.9 70.7C108 70.7 107.9 70.7 107.9 70.7Z" fill="#E5E5E5"/>
<path d="M63.4 144.3C61.6 144.3 60.1 142.8 60.1 141C60.1 139.2 61.6 137.7 63.4 137.7C65.2 137.7 66.7 139.2 66.7 141C66.7 142.8 65.2 144.3 63.4 144.3Z" fill="#4A5160"/>
<path d="M63.4 154C61.6 154 60.1 152.5 60.1 150.7C60.1 148.9 61.6 147.4 63.4 147.4C65.2 147.4 66.7 148.9 66.7 150.7C66.7 152.5 65.2 154 63.4 154Z" fill="#4A5160"/>
<path d="M63.4 147.3C61.6 147.3 60.1 148.8 60.1 150.6C60.1 152.4 61.6 153.9 63.4 153.9C65.2 153.9 66.7 152.4 66.7 150.6C66.7 148.8 65.2 147.3 63.4 147.3ZM63.4 151C63.2 151 63.1 150.9 63.1 150.7C63.1 150.5 63.2 150.4 63.4 150.4C63.6 150.4 63.7 150.5 63.7 150.7C63.7 150.8 63.5 151 63.4 151Z" fill="#FF1759"/>
<path d="M40.9 143.7V152.2C40.9 153.2 41.7 154 42.7 154C43.7 154 44.5 153.2 44.5 152.2V143.7C44.5 142.7 43.7 141.9 42.7 141.9C41.7 141.9 40.9 142.7 40.9 143.7Z" fill="#FF1759"/>
<path d="M84.6 152.2V144.4C84.6 143.4 83.8 142.6 82.8 142.6C81.8 142.6 81 143.4 81 144.4V152.2C81 153.2 81.8 154 82.8 154C83.8 154 84.6 153.2 84.6 152.2Z" fill="#FF1759"/>
<path d="M63.4 137.6C61.6 137.6 60.1 139.1 60.1 140.9C60.1 142.7 61.6 144.2 63.4 144.2C65.2 144.2 66.7 142.7 66.7 140.9C66.7 139.1 65.2 137.6 63.4 137.6ZM63.4 141.2C63.2 141.2 63.1 141.1 63.1 140.9C63.1 140.7 63.2 140.6 63.4 140.6C63.6 140.6 63.7 140.7 63.7 140.9C63.7 141.1 63.5 141.2 63.4 141.2Z" fill="#FF1759"/>
<path d="M100.1 32.1C99.9 33.7 100.4 35.3 101.6 36.4C108.4 43.1 111.1 52.9 108.5 62.1C108 63 108.4 64.1 109.3 64.6C110.2 65.1 111.2 64.8 111.7 63.9C118 53 116.9 39.4001 108.8 29.7001C107.3 27.9001 104.8 27.4 102.7 28.5C101.3 29.2 100.3 30.5001 100.1 32.1ZM103.7 32.6C103.8 32.2 104 31.8001 104.4 31.7001C104.6 31.6001 104.8 31.6 105 31.6C105.4 31.6 105.8 31.8001 106 32.1C109.6 36.4001 111.7 41.8 112 47.4C110.6 42.3 107.9 37.6 104.1 33.9C103.8 33.5 103.6 33.0001 103.7 32.6Z" fill="#FF1759"/>
<path d="M107.8 66.5C106.6 66.6 105.7 67.5 105.8 68.7C105.9 69.8 106.8 70.7 107.9 70.7H108C109.2 70.7 110.1 69.7 110.1 68.5C110 67.4 109.1 66.5 107.8 66.5C107.9 66.5 107.8 66.5 107.8 66.5Z" fill="#FF1759"/>
<path d="M67.9999 76.5C69.2999 76.7 70.4999 76.8 71.7999 76.7C76.1999 76.7 83.4999 75.8 88.2999 70.5C95.2999 62.7 93.6999 48.7 93.5999 48.1C93.4999 47.3 92.8999 46.6 92.0999 46.5C91.5999 46.4 78.8999 44.6 71.7999 52.5C64.7999 60.3 66.3999 74.3 66.4999 74.9C66.4999 75.7 67.1999 76.4 67.9999 76.5ZM74.3999 55C78.8999 49.9 86.7999 49.8 89.9999 50C90.1999 53.5 90.1999 62.8 85.4999 68C80.9999 73.1 73.0999 73.2 69.8999 73C69.6999 69.5 69.7999 60.2 74.3999 55Z" fill="#FF1759"/>
<path d="M60.3 74.9C60.4 74.3 62 60.4 55 52.5C47.9 44.6 35.2 46.4 34.7 46.5C33.9 46.6 33.3 47.3 33.2 48.1C33.1 48.7 31.5 62.6 38.5 70.5C43.3 75.8 50.6 76.7 55 76.7C56.3 76.7 57.5 76.6 58.8 76.5C59.6 76.4 60.2 75.7 60.3 74.9ZM56.8 73C53.6 73.2 45.7 73.1 41.2 68C36.5 62.7 36.5 53.5 36.7 50C39.9 49.8 47.8 49.9 52.3 55C57 60.2 57 69.5 56.8 73Z" fill="#FF1759"/>
<path d="M43.4 35C43.8 35 44.2 34.9 44.6 34.6C46.7 32.8 49.1 31.4 51.6 30.2C52.4 29.8 53.2 29.5 54.1 29.2C55 28.8 55.5 27.8 55.1 26.8C54.7 25.9 53.7 25.4 52.8 25.7C51.9 26 51 26.4 50.1 26.9C47.3 28.2 44.7 29.8 42.3 31.8C41.5 32.4 41.4 33.6 42 34.4C42.3 34.7 42.9 35 43.4 35Z" fill="#88ED00"/>
<path d="M36.3999 40.7C37.1999 41.3 38.3 41.1 39 40.3C39.5 39.6 40.0999 38.9 40.5999 38.3C41.2999 37.6 41.2 36.4 40.5 35.7C39.8 35 38.5999 35.1 37.8999 35.8C37.2999 36.5 36.6999 37.3 36.0999 38C35.4999 39 35.5999 40.1 36.3999 40.7Z" fill="#88ED00"/>
<path d="M63.3 0.900024C28.7 0.900024 0.599976 29.1 0.599976 63.8C0.599976 87.1 13.5 108.5 34.1 119.4V121.4C29 122.1 25.2 126.5 25.3 131.7V152.3C25.3 153.3 26.1 154.1 27.1 154.1C28.1 154.1 28.9 153.3 28.9 152.3V131.7C28.9 128.4 31.2 125.6 34.5 125.1C34.6 125.2 34.6 125.2 34.7 125.3C51.3 137.2 73.6 137.5 90.5 126C90.8 125.8 91 125.5 91.1 125.2C94.1 125.9 96.3 128.6 96.3 131.8V152.4C96.3 153.4 97.1 154.2 98.1 154.2C99.1 154.2 99.9 153.4 99.9 152.4V131.8C99.9 126.7 96.2 122.3 91.1 121.5V120C112.4 109.3 125.8 87.6 125.8 63.8C126 29.1 97.9 0.900024 63.3 0.900024ZM40.3 124.4C39.4 123.9 38.6 123.4 37.9 122.7V114.4C38.7 115 39.5 115.5 40.3 115.9V124.4ZM46.3 127.3C45.4 127 44.8 126.6 43.9 126.3V117.7C44.8 118 45.4 118.3 46.3 118.6V127.3ZM52.4 129.3C51.5 129.1 50.9 128.9 50 128.7V119.9C50.9 120.1 51.5 120.3 52.4 120.5V129.3ZM36.5 81.3C28 72.4 24.5 59.7 27.4 47.3C28.7 41.7 31.2 36.6 34.8 32.2C38.5 27.7 43.4 24.2 48.9 22.2C58.2 18.7 68.5 18.7 77.8 22.2C83.3 24.2 88.2 27.7 91.9 32.2C95.5 36.6 98.1 41.8 99.3 47.3C102.1 59.6 98.7 72.3 90.2 81.3L66.2 106.4C64.7 108 62.2 108 60.6 106.5L60.5 106.4L36.5 81.3ZM53 104L57.8 108.9C59.2 110.4 61.2 111.3 63.3 111.3C65.4 111.3 67.4 110.5 68.8 109H68.9L73.7 104V116.8C66.9 118.4 59.8 118.4 53 116.9V104ZM58.5 130.3C57.6 130.2 56.7 130.1 56.1 130V121.1C56.7 121.2 57.6 121.3 58.5 121.4V130.3ZM64 130.6C63.7 130.6 63.5 130.6 63.3 130.6C62.9 130.6 62.5 130.6 62.2 130.6V121.7C62.5 121.7 62.9 121.7 63.3 121.7C63.6 121.7 63.7 121.7 64 121.7V130.6ZM69.7 130.1C69.1 130.2 68.5 130.3 67.6 130.3V121.4C68.5 121.3 69.1 121.3 69.7 121.2V130.1ZM75.5 128.9C74.9 129.1 74 129.3 73.4 129.4V120.5C74 120.4 74.9 120.2 75.5 120V128.9ZM81.6 126.7C80.7 127 80.1 127.4 79.2 127.7V119C80.1 118.7 80.7 118.4 81.6 118.1V126.7ZM87.7 123.3C87 123.9 86.1 124.4 85.3 124.9V116.4C86.2 116 87 115.5 87.7 115V123.3ZM113 95.7C107.6 104.1 100.1 111.1 91.3 115.8V111.9C91.3 111.8 91.3 111.6 91.3 111.5V111.3C91.1 110.3 90.1 109.7 89.2 109.9C89 109.9 88.7 110 88.5 110.2C85 112.5 81.3 114.4 77.3 115.7V100.2L92.9 83.8C102.3 74 106 60 102.9 46.5C99.9 33.6 91 23.2 79 18.8C68.8 15 57.7 15 47.5 18.8C35.6 23.2 26.6 33.6 23.7 46.5C20.6 60 24.3 74 33.7 83.8L49.3 100.2V115.8C45 114.4 40.9 112.4 37.2 109.8C36.5 109 35.4 109 34.6 109.6C34.5 109.7 34.4 109.8 34.3 109.9C34 110.3 33.7 110.8 34 111.3V115.1C15.5 104.6 4.19998 84.9 4.19998 63.7C4.19998 31.1 30.7 4.50003 63.2 4.50003C95.7 4.50003 122.2 31.1 122.2 63.7C122.4 75.1 119.1 86.2 113 95.7Z" fill="#FF1759"/>
<path d="M67.3999 92.6C67.0999 92.6 66.8999 92.8 66.8999 93.1C66.6999 94.9 65.0999 96.3 63.2999 96.3C61.4999 96.3 59.9 94.9 59.7 93.1C59.7 92.8 59.5 92.6 59.2 92.6C58.9 92.6 58.7 92.9 58.7 93.2C59 95.5 60.8999 97.3 63.2999 97.3C65.5999 97.3 67.5999 95.5 67.8999 93.2C67.9999 92.8 67.6999 92.6 67.3999 92.6Z" stroke="#FF1759" stroke-width="1.2038" stroke-miterlimit="10"/>
</svg>
