<svg width="100" height="71" viewBox="0 0 100 71" fill="none" xmlns="http://www.w3.org/2000/svg">
<path fill-rule="evenodd" clip-rule="evenodd" d="M48.1885 1.43172C50.8816 -0.47724 54.4867 -0.47724 57.1798 1.43172L96.2492 29.1253C100.62 32.2238 100.62 38.7115 96.2492 41.81L91.8101 44.9565C91.7762 44.9805 91.7309 44.9805 91.697 44.9565C91.6631 44.9325 91.6178 44.9325 91.5839 44.9565L57.3007 69.2575C54.6076 71.1665 51.0025 71.1665 48.3094 69.2575C43.9382 66.1591 44.0137 59.6179 48.3849 56.5194C54.738 52.0161 51.7245 41.8895 43.9372 41.8895H6.73798C3.0167 41.8895 0 38.8728 0 35.1515C0 31.4302 3.0167 28.4135 6.73798 28.4135H43.7323C51.3765 28.4135 54.4493 18.5542 48.2129 14.1336C43.8417 11.0352 43.8173 4.53016 48.1885 1.43172Z" fill="#9EFFFF"/>
</svg>
