<svg width="164" height="164" viewBox="0 0 164 164" fill="none" xmlns="http://www.w3.org/2000/svg">
<path d="M142.4 7.30003C143.56 7.30003 144.5 6.35983 144.5 5.20003C144.5 4.04023 143.56 3.10004 142.4 3.10004C141.24 3.10004 140.3 4.04023 140.3 5.20003C140.3 6.35983 141.24 7.30003 142.4 7.30003Z" fill="#F1BC19"/>
<path d="M82.4 164C127.411 164 163.9 127.511 163.9 82.5C163.9 37.4888 127.411 1 82.4 1C37.3888 1 0.900024 37.4888 0.900024 82.5C0.900024 127.511 37.3888 164 82.4 164Z" fill="#F9DBD2"/>
<path d="M155.3 18.1C160.05 18.1 163.9 14.2497 163.9 9.50003C163.9 4.75038 160.05 0.900024 155.3 0.900024C150.55 0.900024 146.7 4.75038 146.7 9.50003C146.7 14.2497 150.55 18.1 155.3 18.1Z" fill="#F1BC19"/>
<path d="M5.10007 35.2C7.47489 35.2 9.40005 33.2748 9.40005 30.9C9.40005 28.5252 7.47489 26.6 5.10007 26.6C2.72524 26.6 0.800049 28.5252 0.800049 30.9C0.800049 33.2748 2.72524 35.2 5.10007 35.2Z" fill="#EE3E54"/>
<path d="M142.4 144.7C144.775 144.7 146.7 142.775 146.7 140.4C146.7 138.025 144.775 136.1 142.4 136.1C140.025 136.1 138.1 138.025 138.1 140.4C138.1 142.775 140.025 144.7 142.4 144.7Z" fill="#FBCD59"/>
<path d="M11.5 151.1C16.2497 151.1 20.1 147.25 20.1 142.5C20.1 137.75 16.2497 133.9 11.5 133.9C6.75038 133.9 2.90002 137.75 2.90002 142.5C2.90002 147.25 6.75038 151.1 11.5 151.1Z" fill="#FBCD59"/>
<path d="M26.6001 157.6C28.9749 157.6 30.9001 155.675 30.9001 153.3C30.9001 150.925 28.9749 149 26.6001 149C24.2252 149 22.3 150.925 22.3 153.3C22.3 155.675 24.2252 157.6 26.6001 157.6Z" fill="#EE3E54"/>
<path d="M74.8 157.5C77.7271 157.5 80.1 155.127 80.1 152.2C80.1 149.273 77.7271 146.9 74.8 146.9C71.8729 146.9 69.5 149.273 69.5 152.2C69.5 155.127 71.8729 157.5 74.8 157.5Z" fill="white"/>
<path d="M9.40005 80.3C10.5599 80.3 11.5001 79.3598 11.5001 78.2C11.5001 77.0402 10.5599 76.1 9.40005 76.1C8.24026 76.1 7.30005 77.0402 7.30005 78.2C7.30005 79.3598 8.24026 80.3 9.40005 80.3Z" fill="white"/>
<path d="M159.6 43.8C160.76 43.8 161.7 42.8598 161.7 41.7C161.7 40.5402 160.76 39.6 159.6 39.6C158.44 39.6 157.5 40.5402 157.5 41.7C157.5 42.8598 158.44 43.8 159.6 43.8Z" fill="#F1BC19"/>
<path d="M153.2 93.5C155.575 93.5 157.5 91.5749 157.5 89.2C157.5 86.8252 155.575 84.9 153.2 84.9C150.825 84.9 148.9 86.8252 148.9 89.2C148.9 91.5749 150.825 93.5 153.2 93.5Z" fill="white"/>
<path d="M83.3 134.4C63.3 134.4 45.0001 120.4 37.6001 99.6L37.2001 98.4L35.9001 98.6C35.6001 98.6 35.4001 98.7 35.1001 98.7C32.7001 98.7 30.2001 96.7 30.2001 93.2C30.2001 55.8 51.1 40.6 55.3 38C60 34.8 65.0001 32.7 70.5001 31.5C73.4001 30.9 76.3001 30.6 79.2001 30.6C81.1001 30.6 83.0001 30.7 84.9001 31L85.7001 31.1C110.1 35.1 122.3 50 128.3 61.7C129.2 63.5 128.5 66.6 126.9 67.8L126.1 68.4L126.4 69.4C126.7 70.5 127 71.6 127.2 72.8C133.2 100.9 117.5 128.2 92.2001 133.5C89.2001 134.1 86.2 134.4 83.3 134.4Z" fill="#F1BC19"/>
<path d="M79.2001 32C81.0001 32 82.8001 32.1 84.6001 32.4C84.8001 32.4 85.1001 32.5 85.4001 32.5C109.1 36.4 121.1 50.9 126.9 62.3C127.5 63.5 127 65.7 125.9 66.5L124.2 67.7L124.7 69.7C125 71 125.3 72 125.5 73C131.3 100.3 116.1 126.8 91.7001 131.9C88.9001 132.5 86.1001 132.8 83.2001 132.8C63.9001 132.8 46.1001 119.2 38.9001 99L38.0001 96.6L35.5001 97.1C35.3001 97.1 35.2001 97.1 35.0001 97.1C33.6001 97.1 31.6001 95.9 31.6001 93.1C31.6001 56.5 51.9001 41.7 56.1001 39.1C60.6001 36.1 65.5001 34 70.7001 32.9C73.6001 32.3 76.4001 32 79.2001 32ZM79.2001 29C76.2001 29 73.2001 29.3 70.1001 29.9C64.3001 31.1 59.1001 33.4 54.4001 36.6C49.5001 39.7 28.6001 55.2 28.6001 93.1C28.6001 97.4 31.8001 100.1 35.0001 100.1C35.3001 100.1 35.7001 100.1 36.0001 100C43.6001 121.5 62.6001 135.8 83.1001 135.8C86.1001 135.8 89.2001 135.5 92.2001 134.8C118.3 129.3 134.5 101.3 128.3 72.3C128.1 71.1 127.8 70 127.4 68.8C129.6 67.2 130.6 63.3 129.3 60.8C115.1 32.9 88.8001 30 84.8001 29.2C83.2001 29.1 81.2001 29 79.2001 29Z" fill="#472B29"/>
<path d="M63 86.7C71.2843 86.7 78 79.9843 78 71.7C78 63.4158 71.2843 56.7 63 56.7C54.7157 56.7 48 63.4158 48 71.7C48 79.9843 54.7157 86.7 63 86.7Z" fill="#472B29"/>
<path d="M57.7 80.3C59.4673 80.3 60.9 78.8673 60.9 77.1C60.9 75.3327 59.4673 73.9 57.7 73.9C55.9327 73.9 54.5 75.3327 54.5 77.1C54.5 78.8673 55.9327 80.3 57.7 80.3Z" fill="white"/>
<path d="M65.2001 73.8C68.7347 73.8 71.6001 70.9346 71.6001 67.4C71.6001 63.8654 68.7347 61 65.2001 61C61.6655 61 58.8 63.8654 58.8 67.4C58.8 70.9346 61.6655 73.8 65.2001 73.8Z" fill="white"/>
<path d="M109.2 67.4C116.877 67.4 123.1 61.1768 123.1 53.5C123.1 45.8233 116.877 39.6 109.2 39.6C101.523 39.6 95.3 45.8233 95.3 53.5C95.3 61.1768 101.523 67.4 109.2 67.4Z" fill="#472B29"/>
<path d="M104.9 63.1C106.667 63.1 108.1 61.6673 108.1 59.9C108.1 58.1327 106.667 56.7 104.9 56.7C103.133 56.7 101.7 58.1327 101.7 59.9C101.7 61.6673 103.133 63.1 104.9 63.1Z" fill="white"/>
<path d="M112.4 56.7C115.935 56.7 118.8 53.8347 118.8 50.3C118.8 46.7654 115.935 43.9 112.4 43.9C108.865 43.9 106 46.7654 106 50.3C106 53.8347 108.865 56.7 112.4 56.7Z" fill="white"/>
<path d="M75.9 103.9C75.9 103.9 63.3001 79.2 86.6001 65.3C106.7 54.3 120.8 71.8 123.1 78.2C128.2 92.1 116.7 97.2 109.4 85.2C103.8 75.8 97.2001 73.6 93.0001 76.1C89.0001 78.5 89.0001 89.2 90.6001 96.2C93.4001 106.9 82.9 113.8 75.9 103.9Z" fill="#F1BC19"/>
<path d="M83.5001 109.8C80.8001 109.8 77.7001 108.4 75.0001 104.6L74.9001 104.5C74.8001 104.2 62.1001 78.8 86.0001 64.5C93.4001 60.4 100.7 59.7 107.7 62.3C116.2 65.5 122.4 73.3 124 77.9C126.8 85.7 124.7 90.8 121.2 92.5C117.8 94.1 112.5 92.7 108.4 85.8C103 76.8 97.0001 74.9 93.5001 77C90.3001 78.9 89.9001 88.6 91.6001 96C93.3001 102.7 90.2001 107.5 86.6001 109.2C85.8001 109.5 84.7001 109.8 83.5001 109.8ZM76.8001 103.4C79.4001 107.1 82.8001 108.5 85.8001 107.2C88.6001 105.9 91.0001 102 89.6001 96.5C88.0001 89.4 87.8001 78 92.5001 75.2C96.9001 72.5 104.2 74.4 110.3 84.7C113.7 90.4 117.9 91.7 120.4 90.6C123 89.4 124.5 85.2 122.1 78.7C120.9 75.4 115.6 67.6 107 64.4C100.6 62 93.9001 62.7 87.1001 66.4C65.3001 79.3 76.0001 101.7 76.8001 103.4Z" fill="#472B29"/>
<path d="M99.8642 80.7449C104.264 78.2044 106.555 73.9349 104.981 71.2087C103.407 68.4825 98.5644 68.332 94.1642 70.8725C89.7641 73.413 87.473 77.6825 89.047 80.4087C90.621 83.1349 95.4641 83.2854 99.8642 80.7449Z" fill="#472B29"/>
<path d="M102.7 86.3C102.7 86.3 102.2 90.9 97.3 89.3C92.5 87.7 93.5 92.8 96.8 93.3C100.1 93.8 104.7 93.6 105.9 88.5C107 83.9 103 84.7 102.7 86.3Z" fill="#472B29"/>
<path d="M98.4 93.8C97.8 93.8 97.2001 93.8 96.7001 93.7C95.0001 93.4 94.0001 92.2 93.6001 91.1C93.3001 90.2 93.5001 89.4 94.0001 88.9C94.5001 88.4 95.5001 88 97.5001 88.6C98.9001 89.1 99.9001 89 100.7 88.5C101.9 87.7 102.1 86.1 102.1 86.1C102.2 85.4 102.8 84.8 103.6 84.5C104.4 84.2 105.3 84.3 105.9 84.9C106.4 85.4 106.9 86.4 106.4 88.5C105.5 92.5 101.6 93.8 98.4 93.8ZM95.7001 89.4C95.3001 89.4 95 89.5 94.8 89.7C94.5 90 94.6001 90.6 94.7001 90.8C95.0001 91.6 95.7001 92.5 97.0001 92.7C99.9001 93.2 104.5 92.4 105.5 88.3C105.8 87.1 105.7 86.2 105.3 85.8C105 85.5 104.5 85.5 104.1 85.6C103.7 85.7 103.4 86 103.3 86.3C103.3 86.5 103 88.5 101.4 89.5C100.3 90.2 98.9001 90.3 97.2001 89.7C96.6001 89.5 96.1001 89.4 95.7001 89.4Z" fill="#472B29"/>
<path d="M99 89.5001C99.1 91.3001 101.6 91.8 101.8 89.3C101.8 89 101.8 88.6 101.8 88.3C101.2 89 100.4 89.6001 99 89.5001Z" fill="white"/>
<path d="M97.4 89.2C96.3 88.8 95.5 88.8 95 89C94.9 90.9 97.4 91.5 97.7 89.2C97.6 89.2 97.5 89.2 97.4 89.2Z" fill="white"/>
<path d="M105 85C104.1 84.7 102.9 85.3 102.7 86.2C102.7 86.2 102.6 86.8 102.3 87.4C102.9 88.6 104.8 88.7 104.9 86.6C105 86 105 85.5 105 85Z" fill="white"/>
<path d="M45.9 62.1C45.7 62.1 45.5 62 45.3 61.9C44.8 61.6 44.7001 60.9 45.0001 60.4C45.2001 60.1 49.7 53.6 64.9 49.2C70.7 47.2 72.8 43.3 72.8 43.3C73.1 42.8 73.7001 42.6 74.2001 42.8C74.7001 43.1 74.9001 43.7 74.7001 44.2C74.6001 44.4 72.3001 48.9 65.5001 51.2C51.1001 55.3 46.8001 61.4 46.7001 61.5C46.6001 61.9 46.2 62.1 45.9 62.1Z" fill="#472B29"/>
<path d="M108.4 39.8C108.3 39.8 108.1 39.8 108 39.7C104 38.1 99.0001 38.9 95.6001 39.4L94.9001 39.5C91.3001 40.1 86.9001 39.3 86.8001 39.2C86.2001 39.1 85.8001 38.5 85.9001 37.9C86.0001 37.3 86.6001 36.9 87.2001 37C87.2001 37 91.4001 37.8 94.6001 37.3L95.3001 37.2C98.9001 36.6 104.3 35.8 108.8 37.6C109.3 37.8 109.6 38.5 109.4 39C109.2 39.5 108.8 39.8 108.4 39.8Z" fill="#472B29"/>
<path d="M35.8001 99.4001C35.7001 99.4001 35.6001 99.4001 35.6001 99.4001C35.0001 99.4001 34.6001 98.8 34.6001 98.3C34.6001 97.7 35.2001 97.3 35.7001 97.3C35.8001 97.3 37.6001 97.4001 39.1001 95.9001C40.8001 94.3001 41.6001 91.4001 41.5001 87.4001C41.5001 86.8001 42.0001 86.3 42.5001 86.3C43.2001 86.3 43.6001 86.8 43.6001 87.3C43.7001 91.9 42.7001 95.4001 40.5001 97.4001C38.7001 99.2001 36.5001 99.4001 35.8001 99.4001Z" fill="#472B29"/>
<path d="M125.5 69.8C125 69.8 124.6 69.5 124.5 69C123.7 66.4 122.7 64.4 122.7 64.3C122.4 63.8 122.7 63.1 123.2 62.9C123.7 62.6 124.4 62.9 124.6 63.4C124.6 63.5 125.7 65.7 126.5 68.4C126.7 69 126.3 69.6 125.8 69.7C125.8 69.8 125.7 69.8 125.5 69.8Z" fill="#472B29"/>
<path d="M86.1001 127.8C85.8001 127.8 85.6001 127.6 85.6001 127.3C85.6001 127 85.8001 126.8 86.1001 126.7C95.3001 126.3 107.9 122 116.2 104.2C116.3 103.9 116.6 103.8 116.9 103.9C117.2 104 117.3 104.3 117.2 104.6C110.5 118.9 99.5001 127.1 86.1001 127.8Z" fill="#472B29"/>
<path d="M80.2001 127.6C73.3001 126.8 66.2001 124.1 60.3001 119.9C60.1001 119.7 60.0001 119.4 60.2001 119.2C60.4001 119 60.7001 118.9 60.9001 119.1C66.7001 123.2 73.5001 125.9 80.2001 126.6C80.5001 126.6 80.7001 126.9 80.7001 127.2C80.7001 127.4 80.5001 127.6 80.2001 127.6Z" fill="#472B29"/>
<path d="M56.3001 116.5C56.2001 116.5 56.0001 116.5 55.9001 116.4C52.9001 113.7 50.6001 110.6 48.8001 107.5C48.7001 107.2 48.8001 106.9 49.0001 106.8C49.3001 106.7 49.6001 106.8 49.7001 107C51.4001 110.1 53.7001 113 56.6001 115.7C56.8001 115.9 56.8001 116.2 56.6001 116.5C56.6001 116.4 56.5001 116.5 56.3001 116.5Z" fill="#472B29"/>
</svg>
