<svg width="30" height="30" viewBox="0 0 30 30" xmlns="http://www.w3.org/2000/svg">
<path d="M29.7 6.8L23.2 0.3C22.8 -0.1 22 -0.1 21.6 0.3L15.8 6.1C15.4 6.5 14.6 6.5 14.2 6.1L8.40001 0.3C8.00001 -0.1 7.2 -0.1 6.8 0.3L0.3 6.8C-0.1 7.2 -0.1 8 0.3 8.4L6.10002 14.2C6.50002 14.6 6.50002 15.4 6.10002 15.8L0.3 21.6C-0.1 22 -0.1 22.8 0.3 23.2L6.8 29.7C7.2 30.1 8.00001 30.1 8.40001 29.7L14.2 23.9C14.6 23.5 15.4 23.5 15.8 23.9L21.6 29.7C22 30.1 22.8 30.1 23.2 29.7L29.7 23.2C30.1 22.8 30.1 22 29.7 21.6L23.9 15.8C23.5 15.4 23.5 14.6 23.9 14.2L29.7 8.4C30.1 8 30.1 7.2 29.7 6.8Z"/>
</svg>