<svg width="64" height="55" viewBox="0 0 64 55" fill="none" xmlns="http://www.w3.org/2000/svg">
<path d="M14.9 13V41C14.9 42 14.1 42.9 13 42.9H1.89999C0.899994 42.9 0 42.1 0 41V13C0 12 0.799994 11.1 1.89999 11.1H13C14 11.1 14.9 12 14.9 13Z" fill="#B59CFF"/>
<path d="M14.9 27V41C14.9 42 14.1 42.9 13 42.9H1.89999C0.899994 42.9 0 42.1 0 41V27H14.9Z" fill="#A586FF"/>
<path d="M37.9001 5.70002V48.4C37.9001 52.8 33.1001 55.5 29.4001 53.2L12.6001 43V11.2L29.4001 1.00001C33.1001 -1.39999 37.9001 1.30002 37.9001 5.70002Z" fill="#F3EEFF"/>
<path d="M37.9001 27V48.3C37.9001 52.7 33.1001 55.4 29.4001 53.1L12.6001 42.9V27H37.9001Z" fill="#E7D9FC"/>
<path d="M47.9001 27C47.9001 28.8 47.2001 30.5 45.9001 31.9C45.2001 32.6 44 32.6 43.2 31.9C42.5 31.2 42.5 30 43.2 29.2C43.8 28.6 44.1 27.8 44.1 27C44.1 26.2 43.8 25.4 43.2 24.8C42.5 24.1 42.5 22.9 43.2 22.1C43.9 21.3 45.1001 21.4 45.9001 22.1C47.2001 23.5 47.9001 25.2 47.9001 27Z" fill="#DD5958"/>
<path d="M44.1 27H47.8C47.8 28.8 47.1 30.5 45.8 31.9C45.1 32.6 43.9 32.6 43.1 31.9C42.4 31.2 42.4 30 43.1 29.2C43.8 28.6 44.1 27.8 44.1 27Z" fill="#D8225B"/>
<path d="M55.9 27C55.9 30.8 54.5 34.6 51.6 37.5C50.9 38.2 49.7 38.2 48.9 37.5C48.2 36.8 48.2 35.6 48.9 34.8C51.1 32.6 52.2 29.8 52.2 26.9C52.2 24 51.1 21.2 48.9 19C48.2 18.3 48.2 17.1 48.9 16.3C49.6 15.6 50.8 15.6 51.6 16.3C54.4 19.4 55.9 23.2 55.9 27Z" fill="#FFE278"/>
<path d="M55.9 27C55.9 30.8 54.5 34.6 51.6 37.5C50.9 38.2 49.7 38.2 48.9 37.5C48.2 36.8 48.2 35.6 48.9 34.8C51.1 32.6 52.2 29.8 52.2 26.9H55.9V27Z" fill="#FFB454"/>
<path d="M64.0001 27C64.0001 32.8 61.7001 38.6 57.2001 43.2C56.5001 43.9 55.3001 43.9 54.5001 43.2C53.8001 42.5 53.8001 41.3 54.5001 40.5C58.3001 36.7 60.2001 31.8 60.2001 27C60.2001 22.2 58.3001 17.3 54.5001 13.5C53.8001 12.8 53.8001 11.6 54.5001 10.8C55.2001 10.1 56.4001 10.1 57.2001 10.8C61.7001 15.4 64.0001 21.2 64.0001 27Z" fill="#C5E092"/>
<path d="M64.0001 27C64.0001 32.8 61.7001 38.6 57.2001 43.2C56.5001 43.9 55.3001 43.9 54.5001 43.2C53.8001 42.5 53.8001 41.3 54.5001 40.5C58.3001 36.7 60.2001 31.8 60.2001 27H64.0001Z" fill="#C4FF52"/>
</svg>
