<svg width="26" height="32" viewBox="0 0 26 32" fill="none" xmlns="http://www.w3.org/2000/svg">
<path d="M11 3.10001H15.2C15.4 3.10001 15.6 3.3 15.6 3.5C15.6 3.7 15.8 3.89999 16 3.89999H17C17.2 3.89999 17.4 3.7 17.4 3.5V3.39999C17.4 2.19999 16.4 1.29999 15.3 1.29999H10.8C9.60005 1.29999 8.69995 2.29999 8.69995 3.39999V3.5C8.69995 3.7 8.89998 3.89999 9.09998 3.89999H10.1C10.3 3.89999 10.5 3.7 10.5 3.5C10.6 3.3 10.8 3.10001 11 3.10001Z" fill="#A586FF" stroke="#7E60C9" stroke-width="0.9202" stroke-miterlimit="10"/>
<path d="M21.8 10.2H4.5C4 10.2 3.69995 10.6 3.69995 11.1L5.09998 28.9C5.19998 29.9 6 30.7 7 30.7H19.2C20.2 30.7 21 29.9 21.1 28.9L22.5 11.1C22.6 10.6 22.3 10.2 21.8 10.2Z" fill="#A586FF" stroke="#7E60C9" stroke-width="0.9202" stroke-miterlimit="10"/>
<path d="M25 7.89999L24.4001 6.10001C24.2001 5.60001 23.8001 5.29999 23.3001 5.29999H3.10001C2.60001 5.29999 2.20004 5.60001 2.00004 6.10001L1.40006 7.89999C1.30006 8.19999 1.39999 8.59999 1.69999 8.79999C1.79999 8.89999 2.00001 8.89999 2.10001 8.89999H24.3001C24.4001 8.89999 24.6 8.89999 24.7 8.79999C24.9 8.59999 25.1 8.29999 25 7.89999Z" fill="#A586FF" stroke="#7E60C9" stroke-width="0.9202" stroke-miterlimit="10"/>
</svg>
