<svg width="60" height="67" viewBox="0 0 60 67" fill="none" xmlns="http://www.w3.org/2000/svg">
<path d="M39.7892 4.38309V55.763L0.925537 55.6169V37.987V13.1493V4.13959C0.925537 2.43504 2.33789 1.02271 4.04243 1.02271H36.6723C38.3769 1.02271 39.7892 2.43504 39.7892 4.13959V4.38309Z" fill="#FF7A7E"/>
<path d="M8.81467 55.6169V37.987V13.1493V4.13959C8.81467 2.43504 10.227 1.02271 11.9316 1.02271H4.04195C2.3374 1.02271 0.925049 2.43504 0.925049 4.13959V13.1493V37.987V55.6169L39.7887 55.763V55.7143L8.81467 55.6169Z" fill="#FF6C71"/>
<path d="M32.5325 59.7565H5.21106C2.8734 59.7565 0.925337 57.8572 0.974038 55.5195C1.02274 53.2792 2.87339 51.4773 5.11365 51.4773H32.5325H39.4968V59.7565H32.5325Z" fill="#FDD79B"/>
<path d="M5.16248 55.5195C5.21118 53.2792 7.06183 51.4773 9.30209 51.4773H5.06507C2.7761 51.4773 0.925454 53.2792 0.925454 55.5195C0.876753 57.8572 2.82481 59.7565 5.16248 59.7565H9.3995C7.06183 59.7565 5.11377 57.8572 5.16248 55.5195Z" fill="#FCCD7F"/>
<path d="M18.6039 64.8215L15.6331 63.3605L12.6623 64.8215C12.4188 64.9189 12.1753 64.7728 12.1753 64.5293V55.7631H19.1396V64.5293C19.1396 64.7728 18.8474 64.9676 18.6039 64.8215Z" fill="#FF6C71" stroke="black" stroke-width="1.0907" stroke-miterlimit="10"/>
<path d="M28.0035 47.1916H7.74377C7.15935 47.1916 6.67236 46.7046 6.67236 46.1202V42.4676C6.67236 41.8832 7.15935 41.3962 7.74377 41.3962H21.4775H28.3445H32.5328V46.2663C32.5328 46.802 32.0944 47.1916 31.6074 47.1916H28.0035Z" fill="#F9F7F8"/>
<path d="M7.74377 47.1916H8.8152V41.3962H7.74377C7.15935 41.3962 6.67236 41.8832 6.67236 42.4676V46.1202C6.67236 46.7046 7.15935 47.1916 7.74377 47.1916Z" fill="#EFEDEF"/>
<path d="M32.5328 10.3734V25.8604H16.7535H7.64639C7.11068 25.8604 6.67236 25.4221 6.67236 24.8864V11.2987C6.67236 10.763 7.11068 10.3247 7.64639 10.3247H24.2535H32.5328V10.3734Z" fill="#F9F7F8"/>
<path d="M7.64639 25.9092H8.86392V13.1494V10.4222H7.64639C7.11068 10.4222 6.67236 10.8605 6.67236 11.3962V24.9839C6.67236 25.4709 7.11068 25.9092 7.64639 25.9092Z" fill="#EFEDEF"/>
<path d="M43.1982 58.3442V46.2663V36.0877H36.4287V46.2663V58.3442H43.1982Z" fill="#D7D0D6"/>
<path d="M39.9353 36.0877H36.3801V46.2663V58.3442H39.9353V46.2663V36.0877Z" fill="#C9BFC8"/>
<path d="M39.789 46.5585C50.4133 46.5585 59.0261 37.9894 59.0261 27.4189C59.0261 16.8483 50.4133 8.27924 39.789 8.27924C29.1647 8.27924 20.552 16.8483 20.552 27.4189C20.552 37.9894 29.1647 46.5585 39.789 46.5585Z" fill="#EFEDEF"/>
<path d="M31.0228 27.4189C31.0228 18.6526 36.9643 11.25 45 9.00976C43.3442 8.52274 41.591 8.27924 39.789 8.27924C29.1721 8.27924 20.552 16.8507 20.552 27.4189C20.552 37.9871 29.1721 46.5585 39.789 46.5585C41.591 46.5585 43.3442 46.315 45 45.828C36.9643 43.5877 31.0228 36.1851 31.0228 27.4189Z" fill="#E5E1E5"/>
<path d="M39.7892 42.2241C47.9928 42.2241 54.6431 35.5956 54.6431 27.4189C54.6431 19.2422 47.9928 12.6137 39.7892 12.6137C31.5856 12.6137 24.9353 19.2422 24.9353 27.4189C24.9353 35.5956 31.5856 42.2241 39.7892 42.2241Z" fill="#D4F2F6"/>
<path d="M37.9387 12.7111C30.6335 13.6364 24.9841 19.8702 24.9841 27.3702C24.9841 34.8702 30.6335 41.1527 37.9387 42.0293C33.7504 38.5228 31.0718 33.2631 31.0718 27.3702C31.0718 21.4774 33.7017 16.2663 37.9387 12.7111Z" fill="#A6E7F0"/>
<path d="M43.1982 56.8345V60.1949C43.1982 61.5098 42.1268 62.5812 40.8118 62.5812H38.8151C37.5002 62.5812 36.4287 61.5098 36.4287 60.1949V56.8345H43.1982Z" fill="#C9BFC8"/>
<path d="M39.9353 60.1949V56.8345H36.3801V60.1949C36.3801 61.5098 37.4515 62.5812 38.7665 62.5812H40.7632C41.0555 62.5812 41.2989 62.5325 41.5425 62.4351C40.6171 62.1429 39.9353 61.2176 39.9353 60.1949Z" fill="#BAAFB9"/>
<path d="M32.5326 58.7825H23.0358C22.5001 58.7825 22.0618 59.2208 22.0618 59.7565C22.0618 60.2922 22.5001 60.7305 23.0358 60.7305H32.5326C33.0683 60.7305 33.5066 60.2922 33.5066 59.7565C33.5066 59.2208 33.0683 58.7825 32.5326 58.7825Z" fill="#EE3E54"/>
<path d="M32.5325 50.5033H5.11364C3.89611 50.5033 2.82468 50.9416 1.94805 51.6234V4.09092C1.94805 2.92209 2.92206 1.94805 4.09089 1.94805H36.7208C37.8896 1.94805 38.8636 2.92209 38.8636 4.09092V4.38312C38.8636 4.91883 39.302 5.35715 39.8377 5.35715C40.3734 5.35715 40.8117 4.91883 40.8117 4.38312V4.09092C40.8117 1.85066 38.961 0 36.7208 0H4.09089C1.85063 0 0 1.85066 0 4.09092V55.6169C0 55.6169 0 55.6169 0 55.6656C0 56.9806 0.535715 58.1981 1.46104 59.1721C2.43507 60.1948 3.79871 60.7306 5.21105 60.7306H8.32791C8.86363 60.7306 9.30194 60.2923 9.30194 59.7565C9.30194 59.2208 8.86363 58.7825 8.32791 58.7825H5.21105C4.33442 58.7825 3.45778 58.4416 2.87336 57.8085C2.28894 57.1754 1.94805 56.3961 1.94805 55.5682C1.99675 53.8637 3.40909 52.4513 5.11364 52.4513H32.5325C33.0682 52.4513 33.5065 52.013 33.5065 51.4773C33.5065 50.9416 33.0682 50.5033 32.5325 50.5033Z" fill="#EE3E54"/>
<path d="M20.7466 54.789H19.1394H12.1752H10.4706C9.93489 54.789 9.49658 55.2273 9.49658 55.763C9.49658 56.2987 9.93489 56.7371 10.4706 56.7371H11.2011V65.065C11.2011 65.4059 11.3959 65.6981 11.6394 65.8929C11.9316 66.0877 12.2726 66.0877 12.5648 65.9416L15.5842 64.4319L18.6037 65.9416C18.7498 65.9903 18.8959 66.039 19.042 66.039C19.2368 66.039 19.383 65.9903 19.5778 65.8929C19.87 65.6981 20.0161 65.4059 20.0161 65.065V56.7371H20.6492C21.1849 56.7371 21.6232 56.2987 21.6232 55.763C21.7206 55.2273 21.2823 54.789 20.7466 54.789ZM18.1654 63.5066L16.1199 62.4838C15.9738 62.4351 15.8278 62.3864 15.6817 62.3864C15.5356 62.3864 15.3894 62.4351 15.2433 62.4838L13.1979 63.5066V56.7371H18.1654V63.5066Z" fill="#EE3E54"/>
<path d="M7.74319 42.3701H21.477C22.0127 42.3701 22.451 41.9318 22.451 41.3961C22.451 40.8604 22.0127 40.4221 21.477 40.4221H7.74319C6.62306 40.4221 5.69775 41.3474 5.69775 42.4675V46.1201C5.69775 47.2402 6.62306 48.1656 7.74319 48.1656H28.003C28.5387 48.1656 28.977 47.7273 28.977 47.1916C28.977 46.6558 28.5387 46.2175 28.003 46.2175H7.74319C7.69448 46.2175 7.64581 46.1688 7.64581 46.1201V42.4675C7.64581 42.4188 7.69448 42.3701 7.74319 42.3701Z" fill="#EE3E54"/>
<path d="M25.227 10.3734C25.227 9.83766 24.7887 9.39935 24.2529 9.39935H7.64581C6.57438 9.39935 5.69775 10.276 5.69775 11.3474V24.9351C5.69775 26.0065 6.57438 26.8831 7.64581 26.8831H16.7529C17.2886 26.8831 17.727 26.4448 17.727 25.9091C17.727 25.3734 17.2886 24.9351 16.7529 24.9351H7.64581V11.3474H24.2529C24.7887 11.3474 25.227 10.9091 25.227 10.3734Z" fill="#EE3E54"/>
<path d="M60 27.4189C60 16.315 50.9415 7.30524 39.7889 7.30524C28.6363 7.30524 19.5779 16.315 19.5779 27.4189C19.5779 37.0131 26.3474 45.0975 35.4058 47.0455V50.1137C35.4058 50.6494 35.8441 51.0877 36.3798 51.0877C36.9156 51.0877 37.3539 50.6494 37.3539 50.1137V47.3864C38.1331 47.4838 38.961 47.5325 39.7889 47.5325C40.6169 47.5325 41.3961 47.4838 42.224 47.3864V55.8605H37.4026V54.2046C37.4026 53.6689 36.9642 53.2306 36.4285 53.2306C35.8928 53.2306 35.4545 53.6689 35.4545 54.2046V60.1462C35.4545 61.9968 36.9643 63.5066 38.8149 63.5066H40.8116C42.6623 63.5066 44.172 61.9968 44.172 60.1462V46.9968C53.2305 45.0488 60 37.0131 60 27.4189ZM40.8116 61.6072H38.8149C38.0357 61.6072 37.4026 60.9741 37.4026 60.1949V57.8085H42.224V60.1949C42.224 60.9741 41.5909 61.6072 40.8116 61.6072ZM39.7889 45.5845C29.7078 45.5845 21.5259 37.4514 21.5259 27.4189C21.5259 17.3864 29.7078 9.25329 39.7889 9.25329C49.8701 9.25329 58.0519 17.3864 58.0519 27.4189C58.0519 37.4514 49.8701 45.5845 39.7889 45.5845Z" fill="#EE3E54"/>
<path d="M39.7889 11.6396C31.0713 11.6396 23.9609 18.7013 23.9609 27.4189C23.9609 30.7793 24.9836 33.9936 26.9804 36.6721C27.2726 37.1104 27.9057 37.2078 28.3441 36.8669C28.7824 36.5747 28.8798 35.9416 28.5388 35.5033C26.7856 33.1169 25.909 30.341 25.909 27.3702C25.909 19.7241 32.1428 13.539 39.7889 13.539C47.435 13.539 53.6687 19.7241 53.6687 27.3702C53.6687 35.0163 47.4837 41.25 39.7889 41.25C36.672 41.25 33.7012 40.2273 31.2661 38.328C30.8278 37.9871 30.2434 38.0845 29.9025 38.4741C29.5616 38.9124 29.659 39.4968 30.0486 39.8377C32.8733 42.0293 36.2337 43.1494 39.7889 43.1494C48.5064 43.1494 55.6168 36.0877 55.6168 27.3702C55.6168 18.7013 48.5551 11.6396 39.7889 11.6396Z" fill="#EE3E54"/>
<path d="M10.6654 16.2176H11.5421C12.0778 16.2176 12.5161 15.7793 12.5161 15.2436C12.5161 14.7078 12.0778 14.2695 11.5421 14.2695H10.6654C10.1297 14.2695 9.69141 14.7078 9.69141 15.2436C9.69141 15.7793 10.1297 16.2176 10.6654 16.2176Z" fill="#EE3E54"/>
<path d="M20.211 15.2436C20.211 14.7078 19.7727 14.2695 19.237 14.2695H15.6818C15.1461 14.2695 14.7078 14.7078 14.7078 15.2436C14.7078 15.7793 15.1461 16.2176 15.6818 16.2176H19.237C19.7727 16.2176 20.211 15.7793 20.211 15.2436Z" fill="#EE3E54"/>
<path d="M10.6654 21.2825H16.8505C17.3862 21.2825 17.8245 20.8442 17.8245 20.3085C17.8245 19.7728 17.3862 19.3345 16.8505 19.3345H10.6654C10.1297 19.3345 9.69141 19.7728 9.69141 20.3085C9.69141 20.8442 10.1297 21.2825 10.6654 21.2825Z" fill="#EE3E54"/>
<path d="M48.3604 22.1104L44.9026 18.6526C44.6104 18.3604 44.1234 18.3604 43.8311 18.6526L40.5195 21.9643C40.2273 22.2565 39.7402 22.2565 39.448 21.9643L36.1363 18.6526C35.8441 18.3604 35.3571 18.3604 35.0649 18.6526L31.6071 22.1104C31.3149 22.4026 31.3149 22.8896 31.6071 23.1818L34.9188 26.4935C35.211 26.7858 35.211 27.2728 34.9188 27.565L31.6071 30.8767C31.3149 31.1689 31.3149 31.6559 31.6071 31.9481L35.0649 35.4059C35.3571 35.6981 35.8441 35.6981 36.1363 35.4059L39.448 32.0942C39.7402 31.802 40.2273 31.802 40.5195 32.0942L43.8311 35.4059C44.1234 35.6981 44.6104 35.6981 44.9026 35.4059L48.3604 31.9481C48.6526 31.6559 48.6526 31.1689 48.3604 30.8767L45.0487 27.565C44.7565 27.2728 44.7565 26.7858 45.0487 26.4935L48.3604 23.1818C48.6526 22.8409 48.6526 22.4026 48.3604 22.1104Z" fill="#FF363D" stroke="#C43445" stroke-width="1.27" stroke-miterlimit="10"/>
</svg>
