<svg width="104" height="129" viewBox="0 0 104 129" fill="none" xmlns="http://www.w3.org/2000/svg">
<path d="M43.0869 10.1213H60.8869C61.8869 10.1213 62.6869 10.9213 62.6869 11.9213C62.6869 12.9213 63.4869 13.7213 64.4869 13.7213H68.5869C69.5869 13.7213 70.3869 12.9213 70.3869 11.9213V11.4213C70.3869 6.42126 66.3869 2.42126 61.3869 2.42126H42.5869C37.5869 2.42126 33.5869 6.42126 33.5869 11.4213V11.9213C33.5869 12.9213 34.3869 13.7213 35.3869 13.7213H39.4869C40.4869 13.7213 41.2869 12.9213 41.2869 11.9213C41.2869 11.0213 42.0869 10.1213 43.0869 10.1213Z" fill="#A586FF" stroke="#7E60C9" stroke-width="3.8766" stroke-miterlimit="10"/>
<path d="M88.3867 40.2213H15.6867C13.6867 40.2213 12.0867 41.9213 12.2867 43.9213L18.3867 119.021C18.6867 123.221 22.1867 126.421 26.3867 126.421H77.5867C81.7867 126.421 85.2867 123.221 85.5867 119.021L91.6867 43.9213C91.9867 41.9213 90.3867 40.2213 88.3867 40.2213Z" fill="#A586FF" stroke="#7E60C9" stroke-width="3.8766" stroke-miterlimit="10"/>
<path d="M101.787 30.3213L99.2868 22.7213C98.5868 20.7213 96.6868 19.3213 94.5868 19.3213H9.58679C7.48679 19.3213 5.58679 20.7213 4.88679 22.7213L2.38679 30.3213C1.88679 31.8213 2.4868 33.3212 3.6868 34.0212C4.1868 34.3212 4.78679 34.5212 5.38679 34.5212H98.7868C99.3868 34.5212 99.9868 34.3212 100.487 34.0212C101.587 33.3212 102.287 31.8213 101.787 30.3213Z" fill="#A586FF" stroke="#7E60C9" stroke-width="3.8766" stroke-miterlimit="10"/>
</svg>
