<svg width="60" height="66" viewBox="0 0 60 66" fill="none" xmlns="http://www.w3.org/2000/svg">
<path d="M39.8672 4.39627V55.7035L1.04956 55.5536V37.9683V13.1889V4.19642C1.04956 2.49784 2.4484 1.099 4.14698 1.099H36.7198C38.4184 1.099 39.8172 2.49784 39.8172 4.19642V4.39627H39.8672Z" fill="#FED44A"/>
<path d="M8.94297 55.5536V37.9683V13.1889V4.19642C8.94297 2.49784 10.3418 1.099 12.0404 1.099H4.14698C2.39844 1.099 1.04956 2.49784 1.04956 4.19642V13.1889V37.9683V55.5536L39.8672 55.7035V55.6535L8.94297 55.5536Z" fill="#E8B300"/>
<path d="M32.5727 59.7002H5.29549C2.94745 59.7002 0.999077 57.8018 1.04904 55.5037C1.09899 53.2556 2.94745 51.4571 5.19557 51.4571H32.5727H39.517V59.7502H32.5727V59.7002Z" fill="#FDD79B"/>
<path d="M18.6845 64.7459L15.7369 63.2971L12.7894 64.7459C12.5396 64.8459 12.2898 64.696 12.2898 64.4462V55.7035H19.234V64.4462C19.1841 64.696 18.9342 64.8958 18.6845 64.7459Z" fill="#FED44A"/>
<path d="M5.24555 55.4537C5.29551 53.2056 7.14396 51.407 9.39208 51.407H5.19557C2.94745 51.407 1.09899 53.2056 1.04904 55.4537C0.999077 57.7518 2.94745 59.6502 5.29549 59.6502H9.49201C7.14396 59.7001 5.19559 57.8017 5.24555 55.4537Z" fill="#FCCD7F"/>
<path d="M28.0763 47.1606H7.8432C7.2437 47.1606 6.74414 46.661 6.74414 46.0615V42.4146C6.74414 41.8151 7.2437 41.3155 7.8432 41.3155H21.5318H28.3761H32.5726V46.2114C32.5726 46.711 32.1729 47.1606 31.6234 47.1606H28.0763Z" fill="#F9F7F8"/>
<path d="M7.8432 47.1607H8.94229V41.3655H7.8432C7.2437 41.3655 6.74414 41.8651 6.74414 42.4646V46.1116C6.74414 46.6611 7.2437 47.1607 7.8432 47.1607Z" fill="#EFEDEF"/>
<path d="M32.5726 10.3914V25.8784H16.7858H7.69333C7.14379 25.8784 6.74414 25.4288 6.74414 24.9292V11.3905C6.74414 10.841 7.19375 10.4413 7.69333 10.4413H24.2795H32.5726V10.3914Z" fill="#F9F7F8"/>
<path d="M7.74355 25.8784H8.94253V13.1391V10.3914H7.74355C7.194 10.3914 6.79433 10.841 6.79433 11.3405V24.8793C6.74437 25.4288 7.194 25.8784 7.74355 25.8784Z" fill="#EFEDEF"/>
<path d="M43.2141 58.3013V46.2114V36.0199H36.4697V46.2114V58.3013H43.2141Z" fill="#D7D0D6"/>
<path d="M40.0168 36.0698H36.4697V46.2613V58.3513H40.0168V46.2613V36.0698Z" fill="#C9BFC8"/>
<path d="M39.8669 46.5112C50.4619 46.5112 59.0509 37.9446 59.0509 27.3771C59.0509 16.8097 50.4619 8.2431 39.8669 8.2431C29.2718 8.2431 20.6829 16.8097 20.6829 27.3771C20.6829 37.9446 29.2718 46.5112 39.8669 46.5112Z" fill="#EFEDEF"/>
<path d="M31.0743 27.3772C31.0743 18.6345 36.9694 11.2406 45.0627 8.99252C43.414 8.54289 41.6655 8.29309 39.817 8.29309C29.2259 8.29309 20.6331 16.836 20.6331 27.4271C20.6331 38.0183 29.2259 46.5612 39.817 46.5612C41.6155 46.5612 43.3641 46.3114 45.0627 45.8618C37.0194 43.5137 31.0743 36.1698 31.0743 27.3772Z" fill="#E5E1E5"/>
<path d="M39.8667 42.1648C48.0613 42.1648 54.7043 35.5442 54.7043 27.3772C54.7043 19.2102 48.0613 12.5895 39.8667 12.5895C31.6721 12.5895 25.0291 19.2102 25.0291 27.3772C25.0291 35.5442 31.6721 42.1648 39.8667 42.1648Z" fill="#D4F2F6"/>
<path d="M37.9683 12.7394C30.6744 13.6386 25.0291 19.8834 25.0291 27.3772C25.0291 34.9209 30.6744 41.1157 37.9683 42.015C33.7718 38.5179 31.074 33.2223 31.074 27.3772C31.074 21.532 33.7718 16.2365 37.9683 12.7394Z" fill="#A6E7F0"/>
<path d="M43.2138 56.8026V60.1498C43.2138 61.4487 42.1646 62.4979 40.8158 62.4979H38.8174C37.5185 62.4979 36.4194 61.4487 36.4194 60.1498V56.8026H43.2138Z" fill="#C9BFC8"/>
<path d="M40.0168 60.1498V56.8026H36.4697V60.1498C36.4697 61.4487 37.5188 62.4979 38.8677 62.4979H40.8661C41.1158 62.4979 41.4156 62.4479 41.6154 62.348C40.6662 62.0483 40.0168 61.149 40.0168 60.1498Z" fill="#BAAFB9"/>
<path d="M32.5729 58.701H23.0808C22.5312 58.701 22.1316 59.1507 22.1316 59.6502C22.1316 60.1498 22.5812 60.5995 23.0808 60.5995H32.5729C33.1224 60.5995 33.5221 60.1498 33.5221 59.6502C33.5221 59.1507 33.1224 58.701 32.5729 58.701Z" fill="#DBAB17"/>
<path d="M32.5728 50.4579H5.19565C3.99665 50.4579 2.89758 50.8576 1.99833 51.557V4.09656C1.99833 2.89756 2.94754 1.94836 4.14654 1.94836H36.7194C37.9184 1.94836 38.8676 2.89756 38.8676 4.09656V4.39633C38.8676 4.94587 39.3172 5.34552 39.8168 5.34552C40.3164 5.34552 40.766 4.89591 40.766 4.39633V4.09656C40.766 1.84843 38.9175 0 36.6694 0H4.09656C1.84843 0 0 1.84843 0 4.09656V55.5037C0 55.5037 0 55.5037 0 55.5536C0 56.8526 0.549523 58.1015 1.44877 59.0507C2.44794 60.0499 3.79682 60.5995 5.19565 60.5995H8.29307C8.84261 60.5995 9.24229 60.1498 9.24229 59.6502C9.24229 59.1506 8.79266 58.701 8.29307 58.701H5.29557C4.39632 58.701 3.54702 58.3513 2.94752 57.7019C2.34802 57.1024 1.99832 56.303 2.04828 55.4538C2.09824 53.7552 3.49708 52.3563 5.24563 52.3563H32.6228C33.1723 52.3563 33.572 51.9067 33.572 51.4071C33.572 50.9075 33.1224 50.4579 32.5728 50.4579Z" fill="#DBAB17"/>
<path d="M20.8325 54.7543H19.2339H12.2896H10.591C10.0415 54.7543 9.64185 55.204 9.64185 55.7036C9.64185 56.2031 10.0915 56.6527 10.591 56.6527H11.3404V64.9958C11.3404 65.3455 11.4903 65.6452 11.79 65.7951C12.0898 65.9949 12.4395 65.995 12.7393 65.8451L15.7867 64.3463L18.8342 65.8451C18.984 65.895 19.1339 65.945 19.2838 65.945C19.4836 65.945 19.6335 65.895 19.7834 65.7951C20.0831 65.5953 20.233 65.2955 20.233 64.9958V56.6527H20.8825C21.432 56.6527 21.8317 56.2031 21.8317 55.7036C21.8317 55.204 21.3321 54.7543 20.8325 54.7543ZM18.2347 63.4471L16.1864 62.398C16.0365 62.348 15.8866 62.298 15.7368 62.298C15.5869 62.298 15.437 62.348 15.2871 62.398L13.2389 63.4471V56.6527H18.2347V63.4471Z" fill="#DBAB17"/>
<path d="M7.84369 42.3647H21.5323C22.0818 42.3647 22.4815 41.915 22.4815 41.4154C22.4815 40.9159 22.0319 40.4662 21.5323 40.4662H7.84369C6.69465 40.4662 5.79541 41.3655 5.79541 42.5145V46.1615C5.79541 47.3105 6.69465 48.2098 7.84369 48.2098H28.0768C28.6264 48.2098 29.026 47.7602 29.026 47.2606C29.026 46.761 28.5764 46.3113 28.0768 46.3113H7.84369C7.79373 46.3113 7.7438 46.2614 7.7438 46.2115V42.5645C7.7438 42.4146 7.79373 42.3647 7.84369 42.3647Z" fill="#DBAB17"/>
<path d="M25.2792 10.3914C25.2792 9.84182 24.8295 9.44214 24.3299 9.44214H7.7438C6.69467 9.44214 5.79541 10.2914 5.79541 11.3905V24.9292C5.79541 25.9783 6.64471 26.8776 7.7438 26.8776H16.8362C17.3857 26.8776 17.7854 26.428 17.7854 25.9284C17.7854 25.4288 17.3358 24.9792 16.8362 24.9792H7.7438V11.4405H24.3299C24.8795 11.3406 25.2792 10.9409 25.2792 10.3914Z" fill="#DBAB17"/>
<path d="M59.9999 27.3771C59.9999 16.2864 50.9574 7.29388 39.8167 7.29388C28.676 7.29388 19.6335 16.2864 19.6335 27.3771C19.6335 36.9691 26.4279 45.0124 35.4703 47.0108V50.0582C35.4703 50.6078 35.92 51.0074 36.4195 51.0074C36.9191 51.0074 37.3688 50.5578 37.3688 50.0582V47.3105C38.1681 47.4104 38.9674 47.4604 39.7667 47.4604C40.5661 47.4604 41.3654 47.4104 42.1647 47.3105V55.8034H37.3688V54.1548C37.3688 53.6053 36.9191 53.2056 36.4195 53.2056C35.92 53.2056 35.4703 53.6552 35.4703 54.1548V60.0999C35.4703 61.9483 36.9691 63.4471 38.8175 63.4471H40.8159C42.6643 63.4471 44.1631 61.9483 44.1631 60.0999V47.0108C53.2555 45.0124 59.9999 36.9691 59.9999 27.3771ZM40.8658 61.5486H38.8675C38.0682 61.5486 37.4687 60.8992 37.4687 60.1498V57.7518H42.2647V60.0999C42.2647 60.8992 41.6152 61.5486 40.8658 61.5486ZM39.8667 45.562C29.825 45.562 21.6319 37.4188 21.6319 27.4271C21.6319 17.4354 29.825 9.29222 39.8667 9.29222C49.9083 9.29222 58.1015 17.4354 58.1015 27.4271C58.1015 37.4188 49.9083 45.562 39.8667 45.562Z" fill="#DBAB17"/>
<path d="M39.8667 11.6404C31.1739 11.6404 24.0798 18.6845 24.0798 27.3773C24.0798 30.7245 25.129 33.9218 27.0773 36.6196C27.3771 37.0692 27.9766 37.1691 28.4262 36.8194C28.8758 36.5196 28.9758 35.9201 28.6261 35.4705C26.8775 33.1225 25.9783 30.2748 25.9783 27.3773C25.9783 19.7836 32.1731 13.5887 39.8667 13.5887C47.5103 13.5887 53.7551 19.7836 53.7551 27.3773C53.7551 34.9709 47.5603 41.1657 39.8667 41.1657C36.7693 41.1657 33.8217 40.1666 31.3238 38.2682C30.9241 37.9185 30.2747 38.0184 29.9749 38.418C29.6252 38.8177 29.7251 39.4672 30.1248 39.7669C32.9225 41.9651 36.2697 43.1141 39.8667 43.1141C48.5594 43.1141 55.6535 36.07 55.6535 27.3773C55.6535 18.7345 48.5594 11.6404 39.8667 11.6404Z" fill="#DBAB17"/>
<path d="M10.7412 16.2365H11.6405C12.19 16.2365 12.5896 15.7868 12.5896 15.2872C12.5896 14.7876 12.14 14.338 11.6405 14.338H10.7412C10.1917 14.338 9.79199 14.7876 9.79199 15.2872C9.79199 15.7868 10.1917 16.2365 10.7412 16.2365Z" fill="#DBAB17"/>
<path d="M20.2831 15.2373C20.2831 14.6878 19.8335 14.2881 19.3339 14.2881H15.7869C15.2373 14.2881 14.8376 14.7377 14.8376 15.2373C14.8376 15.7369 15.2873 16.1865 15.7869 16.1865H19.3339C19.8335 16.2365 20.2831 15.7868 20.2831 15.2373Z" fill="#DBAB17"/>
<path d="M10.7412 21.2823H16.936C17.4856 21.2823 17.8852 20.8326 17.8852 20.333C17.8852 19.8335 17.4356 19.3839 16.936 19.3839H10.7412C10.1917 19.3839 9.79199 19.8335 9.79199 20.333C9.79199 20.8326 10.1917 21.2823 10.7412 21.2823Z" fill="#DBAB17"/>
<path d="M39.567 38.9676C41.0018 38.9676 42.1649 37.8045 42.1649 36.3698C42.1649 34.935 41.0018 33.7719 39.567 33.7719C38.1323 33.7719 36.9692 34.935 36.9692 36.3698C36.9692 37.8045 38.1323 38.9676 39.567 38.9676Z" fill="#FED44A" stroke="#DBAB17" stroke-miterlimit="10"/>
<path d="M39.4172 15.587C35.7202 15.6869 32.7727 18.7344 32.7727 22.4813C32.7727 22.831 33.0225 23.0808 33.3722 23.0808H37.3689C37.7186 23.0808 38.0183 22.781 38.0183 22.4313C38.0183 21.582 38.6678 20.8826 39.4671 20.8326C40.3664 20.7827 41.1158 21.4821 41.1158 22.3814C41.1158 22.831 40.9159 23.2806 40.5662 23.5803L38.418 25.4288C37.4688 26.2281 36.9192 27.3772 36.9192 28.6262V29.9251C36.9192 30.7244 37.5687 31.4238 38.418 31.4238H40.5162C41.4155 31.4238 42.1649 30.6744 42.1649 29.7752C42.1649 29.3755 42.3647 28.9759 42.6645 28.7261L43.9634 27.627C45.5121 26.3281 46.3614 24.4296 46.3614 22.4313C46.3614 18.5845 43.264 15.4871 39.4172 15.587Z" fill="#FED44A" stroke="#DBAB17" stroke-miterlimit="10"/>
</svg>
