<svg width="59" height="64" viewBox="0 0 59 64" fill="none" xmlns="http://www.w3.org/2000/svg">
<path d="M38.6 4.20001V54L0.900024 53.8V36.7V12.6V4C0.900024 2.3 2.30002 1 3.90002 1H35.5C37.2 1 38.5 2.4 38.5 4V4.20001H38.6Z" fill="#FF7A7E"/>
<path d="M8.59998 53.9V36.8V12.7V4C8.59998 2.3 9.99998 1 11.6 1H4C2.3 1 1 2.4 1 4V12.8V36.9V54L38.7 54.2L8.59998 53.9Z" fill="#FF6C71"/>
<path d="M31.6 57.9H5.09997C2.79997 57.9 0.899991 56.1 0.999991 53.8C0.999991 51.6 2.79999 49.9 4.99999 49.9H31.6H38.4V57.9H31.6Z" fill="#FDD79B"/>
<path d="M18.1 62.8L15.2 61.4L12.3 62.8C12.1 62.9 11.8 62.7 11.8 62.5V54H18.5V62.5C18.6 62.8 18.3 62.9 18.1 62.8Z" fill="#FF6C71" stroke="black" stroke-width="0.5289" stroke-miterlimit="10"/>
<path d="M5 53.8C5 51.6 6.8 49.9 9 49.9H4.90002C2.70002 49.9 0.900024 51.7 0.900024 53.8C0.900024 56.1 2.8 57.9 5 57.9H9.09998C6.89998 57.9 5 56 5 53.8Z" fill="#FCCD7F"/>
<path d="M27.2 45.7H7.59998C6.99998 45.7 6.59998 45.2 6.59998 44.7V41.2C6.59998 40.6 7.09998 40.2 7.59998 40.2H20.9H27.6H31.7V44.9C31.7 45.4 31.3 45.8 30.8 45.8L27.2 45.7Z" fill="#F9F7F8"/>
<path d="M7.5 45.7H8.59998V40.1H7.5C6.9 40.1 6.5 40.6 6.5 41.1V44.6C6.5 45.3 7 45.7 7.5 45.7Z" fill="#EFEDEF"/>
<path d="M31.6 10V25H16.3H7.5C7 25 6.59998 24.6 6.59998 24.1V11C6.59998 10.5 7 10.1 7.5 10.1H23.6H31.6V10Z" fill="#F9F7F8"/>
<path d="M7.40002 25.1H8.59998V12.7V10H7.40002C6.90002 10 6.5 10.4 6.5 10.9V24C6.5 24.7 6.90002 25.1 7.40002 25.1Z" fill="#EFEDEF"/>
<path d="M41.9 56.5V44.8V35H35.3V44.9V56.6H41.9V56.5Z" fill="#D7D0D6"/>
<path d="M38.8 35H35.4V44.9V56.6H38.8V44.9V35Z" fill="#C9BFC8"/>
<path d="M38.6 45.1C48.8725 45.1 57.2 36.7725 57.2 26.5C57.2 16.2275 48.8725 7.89999 38.6 7.89999C28.3275 7.89999 20 16.2275 20 26.5C20 36.7725 28.3275 45.1 38.6 45.1Z" fill="#EFEDEF"/>
<path d="M30.1 26.5C30.1 18 35.8 10.8 43.7 8.60001C42.1 8.10001 40.4 7.89999 38.6 7.89999C28.3 7.89999 20 16.2 20 26.5C20 36.8 28.3 45.1 38.6 45.1C40.4 45.1 42.1 44.9 43.7 44.4C35.9 42.2 30.1 35 30.1 26.5Z" fill="#E5E1E5"/>
<path d="M38.6 40.8C46.5529 40.8 53 34.3977 53 26.5C53 18.6023 46.5529 12.2 38.6 12.2C30.6471 12.2 24.2 18.6023 24.2 26.5C24.2 34.3977 30.6471 40.8 38.6 40.8Z" fill="#D4F2F6"/>
<path d="M36.8 12.3C29.7 13.2 24.2 19.2 24.2 26.5C24.2 33.8 29.7 39.8 36.8 40.7C32.7 37.3 30.1 32.2 30.1 26.5C30.1 20.8 32.7 15.7 36.8 12.3Z" fill="#A6E7F0"/>
<path d="M41.9 55.1V58.3C41.9 59.6 40.9 60.6 39.6 60.6H37.7C36.4 60.6 35.4 59.6 35.4 58.3V55.1H41.9Z" fill="#C9BFC8"/>
<path d="M38.8 58.3V55.1H35.4V58.3C35.4 59.6 36.4 60.6 37.7 60.6H39.6C39.9 60.6 40.1 60.6 40.3 60.5C39.4 60.2 38.8 59.3 38.8 58.3Z" fill="#BAAFB9"/>
<path d="M31.6 57H22.4C21.9 57 21.5 57.4 21.5 57.9C21.5 58.4 21.9 58.8 22.4 58.8H31.6C32.1 58.8 32.5 58.4 32.5 57.9C32.5 57.4 32.1 57 31.6 57Z" fill="#EE3E54"/>
<path d="M31.6 48.9H5C3.8 48.9 2.80002 49.3 1.90002 50V4C1.90002 2.9 2.8 1.89999 4 1.89999H35.6C36.8 1.89999 37.7 2.8 37.7 4V4.29999C37.7 4.79999 38.1 5.20001 38.6 5.20001C39.1 5.20001 39.5 4.79999 39.5 4.29999V4C39.5 1.8 37.7 0 35.5 0H4C1.8 0 0 1.8 0 4V53.9C0 55.2 0.500024 56.4 1.40002 57.3C2.40002 58.3 3.7 58.8 5 58.8H8C8.5 58.8 8.90002 58.4 8.90002 57.9C8.90002 57.4 8.5 57 8 57H5C4.1 57 3.29995 56.6 2.69995 56C2.09995 55.4 1.80005 54.6 1.80005 53.8C1.80005 52.1 3.20002 50.8 4.90002 50.8H31.5C32 50.8 32.4 50.4 32.4 49.9C32.5 49.3 32.1 48.9 31.6 48.9Z" fill="#EE3E54"/>
<path d="M20.1 53.1H18.5H11.8H10.1C9.59998 53.1 9.19995 53.5 9.19995 54C9.19995 54.5 9.59998 54.9 10.1 54.9H10.8V63C10.8 63.3 11 63.6 11.2 63.8C11.5 64 11.8 64 12.1 63.8L15 62.3L17.9 63.8C18 63.9 18.2 63.9 18.3 63.9C18.5 63.9 18.6 63.9 18.8 63.8C19.1 63.6 19.2 63.3 19.2 63V55H19.8C20.3 55 20.7 54.6 20.7 54.1C20.7 53.6 20.7 53.1 20.1 53.1ZM17.6 61.5L15.6 60.5C15.5 60.4 15.3 60.4 15.2 60.4C15.1 60.4 14.9 60.4 14.8 60.5L12.8 61.5V55H17.7L17.6 61.5Z" fill="#EE3E54"/>
<path d="M7.5 41.1H20.8C21.3 41.1 21.7 40.7 21.7 40.2C21.7 39.7 21.3 39.3 20.8 39.3H7.5C6.4 39.3 5.5 40.2 5.5 41.3V44.8C5.5 45.9 6.4 46.8 7.5 46.8H27.1C27.6 46.8 28 46.4 28 45.9C28 45.4 27.6 45 27.1 45H7.5C7.4 45 7.40002 45 7.40002 44.9V41.4C7.40002 41.1 7.5 41.1 7.5 41.1Z" fill="#EE3E54"/>
<path d="M24.5 10C24.5 9.5 24.1 9.10001 23.6 9.10001H7.5C6.5 9.10001 5.59998 9.9 5.59998 11V24.1C5.59998 25.1 6.4 26 7.5 26H16.3C16.8 26 17.2 25.6 17.2 25.1C17.2 24.6 16.8 24.2 16.3 24.2H7.5V11.1H23.6C24.1 11 24.5 10.6 24.5 10Z" fill="#EE3E54"/>
<path d="M58.2 26.5C58.2 15.7 49.4 7 38.6 7C27.8 7 19 15.7 19 26.5C19 35.8 25.6 43.6 34.4 45.5V48.5C34.4 49 34.8 49.4 35.3 49.4C35.8 49.4 36.2 49 36.2 48.5V45.8C37 45.9 37.7 45.9 38.5 45.9C39.3 45.9 40.1 45.9 40.8 45.8V54H36.1V52.4C36.1 51.9 35.7 51.5 35.2 51.5C34.7 51.5 34.3 51.9 34.3 52.4V58.2C34.3 60 35.8 61.4 37.6 61.4H39.5C41.3 61.4 42.8 59.9 42.8 58.2V45.5C51.6 43.7 58.2 35.9 58.2 26.5ZM39.6 59.7H37.7C36.9 59.7 36.3 59.1 36.3 58.3V56H41V58.3C40.9 59.1 40.3 59.7 39.6 59.7ZM38.6 44.2C28.8 44.2 20.9 36.3 20.9 26.6C20.9 16.9 28.8 9 38.6 9C48.4 9 56.3 16.9 56.3 26.6C56.3 36.3 48.4 44.2 38.6 44.2Z" fill="#EE3E54"/>
<path d="M38.6 11.3C30.1 11.3 23.3 18.2 23.3 26.6C23.3 29.9 24.3 33 26.2 35.6C26.5 36 27.1 36.1 27.5 35.8C27.9 35.5 28 34.9 27.7 34.5C26 32.2 25.1 29.5 25.1 26.6C25.1 19.2 31.1 13.2 38.6 13.2C46.1 13.2 52.1 19.2 52.1 26.6C52.1 34 46.1 40 38.6 40C35.6 40 32.7 39 30.3 37.2C29.9 36.9 29.3 37 29 37.4C28.7 37.8 28.8 38.4 29.2 38.7C31.9 40.8 35.2 41.9 38.6 41.9C47.1 41.9 53.9 35 53.9 26.6C53.9 18.1 47.1 11.3 38.6 11.3Z" fill="#EE3E54"/>
<path d="M10.3 15.7H11.2C11.7 15.7 12.1 15.3 12.1 14.8C12.1 14.3 11.7 13.9 11.2 13.9H10.3C9.80005 13.9 9.40002 14.3 9.40002 14.8C9.40002 15.3 9.80005 15.7 10.3 15.7Z" fill="#EE3E54"/>
<path d="M19.6 14.8C19.6 14.3 19.2 13.9 18.7 13.9H15.3C14.8 13.9 14.4 14.3 14.4 14.8C14.4 15.3 14.8 15.7 15.3 15.7H18.7C19.2 15.7 19.6 15.3 19.6 14.8Z" fill="#EE3E54"/>
<path d="M10.3 20.6H16.3C16.8 20.6 17.2 20.2 17.2 19.7C17.2 19.2 16.8 18.8 16.3 18.8H10.3C9.80005 18.8 9.40002 19.2 9.40002 19.7C9.40002 20.2 9.80005 20.6 10.3 20.6Z" fill="#EE3E54"/>
<path d="M38.3 37.8C39.6808 37.8 40.8 36.6807 40.8 35.3C40.8 33.9193 39.6808 32.8 38.3 32.8C36.9193 32.8 35.8 33.9193 35.8 35.3C35.8 36.6807 36.9193 37.8 38.3 37.8Z" fill="#FF363D" stroke="#C43445" stroke-width="1.5868" stroke-miterlimit="10"/>
<path d="M38.2 15.1C34.6 15.2 31.7 18.2 31.7 21.8C31.7 22.1 32 22.4 32.3 22.4H36.2C36.5 22.4 36.8 22.1 36.8 21.8C36.8 21 37.4 20.3 38.2 20.2C39.1 20.1 39.8 20.8 39.8 21.7C39.8 22.1 39.6 22.6 39.3 22.9L37.2 24.7C36.3 25.5 35.8 26.6 35.8 27.8V29C35.8 29.8 36.4 30.4 37.2 30.4H39.3C40.2 30.4 40.9 29.7 40.9 28.8C40.9 28.4 41.1 28 41.4 27.8L42.7 26.7C44.2 25.4 45 23.6 45 21.7C45 18 41.9 15 38.2 15.1Z" fill="#FF363D" stroke="#C43445" stroke-width="1.5868" stroke-miterlimit="10"/>
</svg>
