<svg width="59" height="66" viewBox="0 0 59 66" fill="none" xmlns="http://www.w3.org/2000/svg">
<path d="M39.1 4.79999V55.3L0.900024 55.1V37.8V13.4V4.5C0.900024 2.8 2.3 1.40002 4 1.40002H36C37.7 1.40002 39.1 2.8 39.1 4.5V4.79999Z" fill="#FED44A"/>
<path d="M8.69995 55.1V37.8V13.4V4.5C8.69995 2.8 10.1 1.40002 11.8 1.40002H4C2.3 1.40002 0.900024 2.8 0.900024 4.5V13.4V37.8V55.1L39.1 55.3L8.69995 55.1Z" fill="#FED44A"/>
<path d="M32 59.2H5.09998C2.79998 59.2 0.900024 57.3 0.900024 55C0.900024 52.8 2.8 51 5 51H32H38.9V59.1H32V59.2Z" fill="#FDD79B"/>
<path d="M5.09998 55.1C5.09998 52.9 6.99995 51.1 9.19995 51.1H5C2.8 51.1 1.00002 52.9 0.900024 55.1C0.900024 57.4 2.79998 59.3 5.09998 59.3H9.30005C7.00005 59.2 5.09998 57.3 5.09998 55.1Z" fill="#FCCD7F"/>
<path d="M18.3 64.2L15.4 62.8L12.5 64.2C12.3 64.3 12 64.1 12 63.9V55.3H18.8V63.9C18.8 64.1 18.6 64.3 18.3 64.2Z" fill="#FED44A"/>
<path d="M27.6 46.9H7.69995C7.09995 46.9 6.59998 46.4 6.59998 45.8V42.2C6.59998 41.6 7.09995 41.1 7.69995 41.1H21.2H28H32.1V45.9C32.1 46.4 31.7 46.8 31.2 46.8L27.6 46.9Z" fill="#F9F7F8"/>
<path d="M7.59998 46.9H8.69995V41.2H7.59998C6.99998 41.2 6.5 41.7 6.5 42.3V45.9C6.6 46.4 7.09998 46.9 7.59998 46.9Z" fill="#EFEDEF"/>
<path d="M32 10.7V25.9H16.5H7.59998C7.09998 25.9 6.59998 25.5 6.59998 24.9V11.6C6.59998 11.1 6.99998 10.6 7.59998 10.6H23.9H32V10.7Z" fill="#F9F7F8"/>
<path d="M7.5 25.9H8.69995V13.4V10.7H7.5C7 10.7 6.5 11.1 6.5 11.7V25C6.6 25.5 7 25.9 7.5 25.9Z" fill="#EFEDEF"/>
<path d="M42.5 57.8V46V36H35.8V46V57.9H42.5V57.8Z" fill="#D7D0D6"/>
<path d="M39.3 35.9H35.8V45.9V57.8H39.3V46V35.9Z" fill="#C9BFC8"/>
<path d="M39.1 46.2C49.5382 46.2 58 37.783 58 27.4C58 17.0171 49.5382 8.59998 39.1 8.59998C28.6618 8.59998 20.2 17.0171 20.2 27.4C20.2 37.783 28.6618 46.2 39.1 46.2Z" fill="#EFEDEF"/>
<path d="M30.5 27.4C30.5 18.8 36.3 11.5 44.3 9.29999C42.7 8.79999 40.9 8.59998 39.2 8.59998C28.8 8.59998 20.3 17 20.3 27.4C20.3 37.8 28.8 46.2 39.2 46.2C41 46.2 42.7 46 44.3 45.5C36.4 43.3 30.5 36 30.5 27.4Z" fill="#E5E1E5"/>
<path d="M39.1 41.9C47.1633 41.9 53.7 35.4082 53.7 27.4C53.7 19.3919 47.1633 12.9 39.1 12.9C31.0366 12.9 24.5 19.3919 24.5 27.4C24.5 35.4082 31.0366 41.9 39.1 41.9Z" fill="#D4F2F6"/>
<path d="M37.3 13C30.1 13.9 24.5 20 24.5 27.4C24.5 34.8 30.1 40.9 37.3 41.8C33.2 38.3 30.5 33.2 30.5 27.4C30.5 21.6 33.2 16.4 37.3 13Z" fill="#A6E7F0"/>
<path d="M42.5 56.4V59.7C42.5 61 41.5 62 40.2 62H38.2C36.9 62 35.9 61 35.9 59.7V56.4H42.5Z" fill="#C9BFC8"/>
<path d="M39.3 59.6V56.3H35.8V59.6C35.8 60.9 36.8 61.9 38.1 61.9H40.1C40.4 61.9 40.6 61.9 40.9 61.8C40 61.5 39.3 60.7 39.3 59.6Z" fill="#BAAFB9"/>
<path d="M40.3 36.7H37.6C37 36.7 36.6 36.3 36.5 35.7L35.8 27C35.8 26.4 36.2 25.8 36.9 25.8H40.9C41.5 25.8 42 26.3 42 27L41.3 35.7C41.3 36.3 40.9 36.7 40.3 36.7Z" fill="#FED402"/>
<path d="M40.9 22.1H36.8C36.3 22.1 35.8 21.7 35.8 21.1V18.8C35.8 18.3 36.2 17.8 36.8 17.8H40.9C41.4 17.8 41.9 18.2 41.9 18.8V21.1C41.9 21.6 41.4 22.1 40.9 22.1Z" fill="#FED402"/>
<path d="M32 58.3H22.7C22.2 58.3 21.7 58.7 21.7 59.3C21.7 59.8 22.1 60.3 22.7 60.3H32C32.5 60.3 33 59.9 33 59.3C33 58.7 32.5 58.3 32 58.3Z" fill="#DBAB17"/>
<path d="M32 50.1H5C3.8 50.1 2.70002 50.5 1.90002 51.2V4.5C1.90002 3.3 2.8 2.40002 4 2.40002H36C37.2 2.40002 38.1 3.3 38.1 4.5V4.79999C38.1 5.29999 38.5 5.79999 39.1 5.79999C39.7 5.79999 40.1 5.39999 40.1 4.79999V4.5C40.1 2.3 38.3 0.5 36.1 0.5H4.09998C1.89998 0.5 0.0999756 2.3 0.0999756 4.5V55.1C0.0999756 56.4 0.6 57.6 1.5 58.5C2.5 59.5 3.79995 60 5.19995 60H8.30005C8.80005 60 9.30005 59.6 9.30005 59C9.30005 58.5 8.90005 58 8.30005 58H5.19995C4.29995 58 3.50002 57.6 2.90002 57C2.30002 56.4 2 55.6 2 54.8C2 53.1 3.39998 51.7 5.09998 51.7H32.1C32.6 51.7 33.1 51.3 33.1 50.7C33 50.5 32.5 50.1 32 50.1Z" fill="#DBAB17"/>
<path d="M20.4 54.3H18.8H12H10.3C9.80005 54.3 9.30005 54.7 9.30005 55.3C9.30005 55.8 9.70005 56.3 10.3 56.3H11V64.5C11 64.8 11.2 65.1 11.5 65.3C11.8 65.5 12.1 65.5 12.4 65.3L15.4 63.8L18.4 65.3C18.5 65.4 18.7 65.4 18.8 65.4C19 65.4 19.1 65.4 19.3 65.3C19.6 65.1 19.8 64.8 19.8 64.5V56.3H20.4C20.9 56.3 21.4 55.9 21.4 55.3C21.4 54.8 20.9 54.3 20.4 54.3ZM17.9 62.9L15.9 61.9C15.8 61.8 15.6 61.8 15.5 61.8C15.4 61.8 15.2 61.8 15.1 61.9L13.1 62.9V56.2H18L17.9 62.9Z" fill="#DBAB17"/>
<path d="M7.59998 42.1H21.1C21.6 42.1 22.1 41.7 22.1 41.1C22.1 40.6 21.7 40.1 21.1 40.1H7.59998C6.49998 40.1 5.59998 41 5.59998 42.1V45.7C5.59998 46.8 6.49998 47.7 7.59998 47.7H27.5C28 47.7 28.5 47.3 28.5 46.7C28.5 46.2 28.1 45.7 27.5 45.7H7.59998C7.49998 45.7 7.5 45.7 7.5 45.6V42C7.5 42.2 7.59998 42.1 7.59998 42.1Z" fill="#DBAB17"/>
<path d="M24.8 10.7C24.8 10.2 24.4 9.70001 23.8 9.70001H7.5C6.4 9.70001 5.59998 10.6 5.59998 11.6V25C5.59998 26 6.5 26.9 7.5 26.9H16.4C16.9 26.9 17.4 26.5 17.4 25.9C17.4 25.4 17 24.9 16.4 24.9H7.5V11.6H23.8C24.4 11.6 24.8 11.2 24.8 10.7Z" fill="#DBAB17"/>
<path d="M59 27.4C59 16.5 50.1 7.59998 39.1 7.59998C28.1 7.59998 19.2 16.5 19.2 27.4C19.2 36.8 25.9 44.8 34.8 46.7V49.7C34.8 50.2 35.2 50.7 35.8 50.7C36.3 50.7 36.8 50.3 36.8 49.7V47C37.6 47.1 38.4 47.1 39.2 47.1C40 47.1 40.8 47.1 41.6 47V55.3H36.9V53.7C36.9 53.2 36.5 52.7 35.9 52.7C35.4 52.7 34.9 53.1 34.9 53.7V59.5C34.9 61.3 36.4 62.8 38.2 62.8H40.2C42 62.8 43.5 61.3 43.5 59.5V46.6C52.3 44.8 59 36.9 59 27.4ZM40.1 61H38.1C37.3 61 36.7 60.4 36.7 59.6V57.3H41.4V59.6C41.5 60.4 40.9 61 40.1 61ZM39.1 45.3C29.2 45.3 21.2 37.3 21.2 27.4C21.2 17.5 29.2 9.5 39.1 9.5C49 9.5 57 17.5 57 27.4C57 37.3 49 45.3 39.1 45.3Z" fill="#DBAB17"/>
<path d="M39.1 11.9C30.5 11.9 23.5 18.9 23.5 27.4C23.5 30.7 24.5 33.8 26.5 36.5C26.8 36.9 27.4 37 27.8 36.7C28.2 36.4 28.3 35.8 28 35.4C26.3 33.1 25.4 30.3 25.4 27.4C25.4 19.9 31.5 13.8 39 13.8C46.5 13.8 52.6 19.9 52.6 27.4C52.6 34.9 46.5 41 39 41C35.9 41 33 40 30.6 38.1C30.2 37.8 29.6 37.8 29.3 38.3C29 38.7 29 39.3 29.5 39.6C32.3 41.7 35.6 42.9 39.1 42.9C47.7 42.9 54.7 35.9 54.7 27.4C54.7 18.9 47.7 11.9 39.1 11.9Z" fill="#DBAB17"/>
<path d="M10.5 16.4H11.4C11.9 16.4 12.4 16 12.4 15.4C12.4 14.9 12 14.4 11.4 14.4H10.5C10 14.4 9.5 14.8 9.5 15.4C9.5 16 10 16.4 10.5 16.4Z" fill="#DBAB17"/>
<path d="M19.9 15.5C19.9 15 19.5 14.5 18.9 14.5H15.4C14.9 14.5 14.4 14.9 14.4 15.5C14.4 16 14.8 16.5 15.4 16.5H18.9C19.4 16.4 19.9 16 19.9 15.5Z" fill="#DBAB17"/>
<path d="M10.5 21.4H16.6C17.1 21.4 17.6 21 17.6 20.4C17.6 19.9 17.2 19.4 16.6 19.4H10.5C10 19.4 9.5 19.8 9.5 20.4C9.5 21 10 21.4 10.5 21.4Z" fill="#DBAB17"/>
<path d="M41.9 29.2C42.4 29.2 42.9 28.8 42.9 28.3L43 27.1C43 26.5 42.8 26 42.5 25.6C42.1 25.2 41.6 25 41 25H37C36.4 25 35.9 25.2 35.5 25.6C35.1 26 34.9 26.6 35 27.1L35.6999 35.8C35.7999 36.8 36.6999 37.7 37.6999 37.7H40.4C41.5 37.7 42.3 36.9 42.4 35.8L42.6999 32.4C42.6999 31.9 42.3 31.4 41.8 31.4C41.3 31.4 40.8 31.8 40.8 32.3L40.5 35.7C40.5 35.8 40.4 35.8 40.4 35.8H37.6999C37.5999 35.8 37.5999 35.8 37.5999 35.7L36.9 27V26.9H37H41H41.0999V27L41 28.2C41 28.7 41.4 29.2 41.9 29.2Z" fill="#DBAB17"/>
<path d="M40.9 16.9H36.8C35.7 16.9 34.9 17.8 34.9 18.8V21.1C34.9 22.2 35.8 23 36.8 23H40.9C42 23 42.8 22.1 42.8 21.1V18.8C42.8 17.7 42 16.9 40.9 16.9ZM40.9 21.1H36.8V18.8H40.9V21.1Z" fill="#DBAB17"/>
</svg>
