<svg width="59" height="65" viewBox="0 0 59 65" fill="none" xmlns="http://www.w3.org/2000/svg">
<path d="M38.9 5.10001V55L1.19995 54.8V37.7V13.6V4.79999C1.19995 3.09999 2.59995 1.79999 4.19995 1.79999H35.9C37.6 1.79999 38.9 3.19999 38.9 4.79999V5.10001Z" fill="#BEE07D"/>
<path d="M8.80005 54.9V37.8V13.7V4.89999C8.80005 3.19999 10.2 1.89999 11.8 1.89999H4.09998C2.39998 1.89999 1.09998 3.29999 1.09998 4.89999V13.7V37.8V54.9L38.8 55.1L8.80005 54.9Z" fill="#BEE07D"/>
<path d="M31.8 58.9H5.19994C2.89994 58.9 0.999967 57.1 1.09997 54.8C1.09997 52.6 2.89997 50.9 5.09997 50.9H31.6999H38.5V59H31.8V58.9Z" fill="#FDD79B"/>
<path d="M5.30005 54.8C5.30005 52.6 7.10005 50.9 9.30005 50.9H5.19995C2.99995 50.9 1.19995 52.7 1.19995 54.8C1.19995 57.1 3.10005 58.9 5.30005 58.9H9.40002C7.10002 58.9 5.20005 57 5.30005 54.8Z" fill="#FCCD7F"/>
<path d="M18.3 63.8L15.4 62.4L12.5 63.8C12.3 63.9 12 63.7 12 63.5V55H18.8V63.5C18.8 63.8 18.5 63.9 18.3 63.8Z" fill="#BEE07D"/>
<path d="M27.4 46.7H7.69995C7.09995 46.7 6.59998 46.2 6.59998 45.7V42.2C6.59998 41.6 7.09995 41.2 7.69995 41.2H21H27.7H31.8V45.9C31.8 46.4 31.4 46.8 30.9 46.8L27.4 46.7Z" fill="#F9F7F8"/>
<path d="M7.80005 46.7H8.90002V41.1H7.80005C7.20005 41.1 6.69995 41.6 6.69995 42.1V45.6C6.69995 46.2 7.20005 46.7 7.80005 46.7Z" fill="#EFEDEF"/>
<path d="M31.8 10.9V26H16.5H7.69995C7.19995 26 6.80005 25.6 6.80005 25.1V11.9C6.80005 11.4 7.19995 11 7.69995 11H23.8H31.8V10.9Z" fill="#F9F7F8"/>
<path d="M7.59998 26H8.80005V13.6V10.9H7.59998C7.09998 10.9 6.69995 11.3 6.69995 11.8V25C6.69995 25.6 7.09998 26 7.59998 26Z" fill="#EFEDEF"/>
<path d="M42.2 57.5V45.8V35.9H35.6V45.8V57.5H42.2Z" fill="#D7D0D6"/>
<path d="M39 35.9H35.6V45.8V57.5H39V45.8V35.9Z" fill="#C9BFC8"/>
<path d="M38.9 46.1C49.2277 46.1 57.6 37.7725 57.6 27.5C57.6 17.2275 49.2277 8.89999 38.9 8.89999C28.5723 8.89999 20.2 17.2275 20.2 27.5C20.2 37.7725 28.5723 46.1 38.9 46.1Z" fill="#EFEDEF"/>
<path d="M30.4 27.5C30.4 19 36.1 11.8 44 9.60001C42.4 9.10001 40.7 8.89999 38.9 8.89999C28.6 8.89999 20.2 17.2 20.2 27.5C20.2 37.8 28.6 46.1 38.9 46.1C40.7 46.1 42.4 45.9 44 45.4C36.1 43.2 30.4 36 30.4 27.5Z" fill="#E5E1E5"/>
<path d="M38.9 41.9C46.8529 41.9 53.3 35.4529 53.3 27.5C53.3 19.5471 46.8529 13.1 38.9 13.1C30.9471 13.1 24.5 19.5471 24.5 27.5C24.5 35.4529 30.9471 41.9 38.9 41.9Z" fill="#D4F2F6"/>
<path d="M37.1 13.2C30 14.1 24.5 20.1 24.5 27.5C24.5 34.9 30 40.9 37.1 41.8C33 38.4 30.4 33.3 30.4 27.5C30.4 21.7 33 16.6 37.1 13.2Z" fill="#A6E7F0"/>
<path d="M42.2 56.1V59.3C42.2 60.6 41.2 61.6 39.9 61.6H38C36.7 61.6 35.7 60.6 35.7 59.3V56.1H42.2Z" fill="#C9BFC8"/>
<path d="M39 59.3V56.1H35.6V59.3C35.6 60.6 36.6 61.6 37.9 61.6H39.8C40.1 61.6 40.3 61.6 40.5 61.5C39.7 61.2 39 60.3 39 59.3Z" fill="#BAAFB9"/>
<path d="M31.8 57.9H22.6C22.1 57.9 21.7 58.3 21.7 58.8C21.7 59.3 22.1 59.7 22.6 59.7H31.8C32.3 59.7 32.7 59.3 32.7 58.8C32.7 58.3 32.3 57.9 31.8 57.9Z" fill="#76B300"/>
<path d="M31.8 49.9H5.19995C3.99995 49.9 2.99998 50.3 2.09998 51V4.89999C2.09998 3.79999 2.99995 2.79999 4.19995 2.79999H35.9C37.1 2.79999 38 3.69999 38 4.89999V5.20001C38 5.70001 38.4 6.10001 38.9 6.10001C39.4 6.10001 39.8 5.70001 39.8 5.20001V4.89999C39.8 2.69999 38 0.899994 35.8 0.899994H4.09998C1.89998 0.899994 0.0999756 2.69999 0.0999756 4.89999V54.9C0.0999756 56.2 0.6 57.4 1.5 58.3C2.5 59.3 3.79998 59.8 5.09998 59.8H8.09998C8.59998 59.8 9 59.4 9 58.9C9 58.4 8.59998 58 8.09998 58H5.09998C4.19998 58 3.40005 57.6 2.80005 57C2.20005 56.4 1.90002 55.6 1.90002 54.8C1.90002 53.1 3.3 51.8 5 51.8H31.6C32.1 51.8 32.5 51.4 32.5 50.9C32.5 50.4 32.3 49.9 31.8 49.9Z" fill="#76B300"/>
<path d="M20.4 54.1H18.8H12H10.3C9.80005 54.1 9.40002 54.5 9.40002 55C9.40002 55.5 9.80005 55.9 10.3 55.9H11V64C11 64.3 11.2 64.6 11.4 64.8C11.7 65 12 65 12.3 64.8L15.3 63.3L18.3 64.8C18.4 64.9 18.6 64.9 18.7 64.9C18.9 64.9 19 64.9 19.2 64.8C19.5 64.6 19.6 64.3 19.6 64V56H20.2C20.7 56 21.1 55.6 21.1 55.1C21.1 54.6 20.9 54.1 20.4 54.1ZM17.9 62.5L15.9 61.5C15.8 61.4 15.6 61.4 15.5 61.4C15.4 61.4 15.2 61.4 15.1 61.5L13.1 62.5V56H18L17.9 62.5Z" fill="#76B300"/>
<path d="M7.80005 42H21.1C21.6 42 22 41.6 22 41.1C22 40.6 21.6 40.2 21.1 40.2H7.80005C6.70005 40.2 5.80005 41.1 5.80005 42.2V45.7C5.80005 46.8 6.70005 47.7 7.80005 47.7H27.5C28 47.7 28.4 47.3 28.4 46.8C28.4 46.3 28 45.9 27.5 45.9H7.80005C7.70005 45.9 7.69995 45.9 7.69995 45.8V42.3C7.59995 42.1 7.70005 42 7.80005 42Z" fill="#76B300"/>
<path d="M24.7 10.9C24.7 10.4 24.3 10 23.8 10H7.69995C6.69995 10 5.80005 10.8 5.80005 11.9V25C5.80005 26 6.59995 26.9 7.69995 26.9H16.5C17 26.9 17.4 26.5 17.4 26C17.4 25.5 17 25.1 16.5 25.1H7.69995V11.9H23.8C24.3 11.9 24.7 11.5 24.7 10.9Z" fill="#76B300"/>
<path d="M58.5 27.5C58.5 16.7 49.7 8 38.9 8C28.1 8 19.3 16.8 19.3 27.5C19.3 36.8 25.9 44.7 34.7 46.6V49.6C34.7 50.1 35.1 50.5 35.6 50.5C36.1 50.5 36.5 50.1 36.5 49.6V46.9C37.3 47 38.1 47 38.8 47C39.6 47 40.4 47 41.1 46.9V55.2H36.4V53.6C36.4 53.1 36 52.7 35.5 52.7C35 52.7 34.6 53.1 34.6 53.6V59.4C34.6 61.2 36.1 62.6 37.9 62.6H39.8C41.6 62.6 43.1 61.1 43.1 59.4V46.6C51.9 44.6 58.5 36.8 58.5 27.5ZM39.9 60.7H38C37.2 60.7 36.6 60.1 36.6 59.3V57H41.3V59.3C41.2 60.1 40.6 60.7 39.9 60.7ZM38.9 45.1C29.1 45.1 21.2 37.2 21.2 27.4C21.2 17.7 29.2 9.70001 38.9 9.70001C48.7 9.70001 56.6 17.6 56.6 27.4C56.6 37.2 48.7 45.1 38.9 45.1Z" fill="#76B300"/>
<path d="M38.9 12.2C30.4 12.2 23.5 19.1 23.5 27.5C23.5 30.8 24.5 33.9 26.4 36.5C26.7 36.9 27.3 37 27.7 36.7C28.1 36.4 28.2 35.8 27.9 35.4C26.2 33.1 25.3 30.4 25.3 27.5C25.3 20.1 31.3 14.1 38.8 14.1C46.3 14.1 52.3 20.1 52.3 27.5C52.3 34.9 46.3 40.9 38.8 40.9C35.8 40.9 32.9 39.9 30.5 38.1C30.1 37.8 29.5 37.9 29.2 38.3C28.9 38.7 29 39.3 29.4 39.6C32.1 41.7 35.4 42.8 38.9 42.8C47.4 42.8 54.3 35.9 54.3 27.5C54.3 19 47.4 12.2 38.9 12.2Z" fill="#76B300"/>
<path d="M10.6 16.6H11.5C12 16.6 12.4 16.2 12.4 15.7C12.4 15.2 12 14.8 11.5 14.8H10.6C10.1 14.8 9.69995 15.2 9.69995 15.7C9.69995 16.2 10.1 16.6 10.6 16.6Z" fill="#76B300"/>
<path d="M19.8 15.7C19.8 15.2 19.4 14.8 18.9 14.8H15.5C15 14.8 14.6 15.2 14.6 15.7C14.6 16.2 15 16.6 15.5 16.6H18.9C19.4 16.6 19.8 16.2 19.8 15.7Z" fill="#76B300"/>
<path d="M10.6 21.5H16.6C17.1 21.5 17.5 21.1 17.5 20.6C17.5 20.1 17.1 19.7 16.6 19.7H10.6C10.1 19.7 9.69995 20.1 9.69995 20.6C9.69995 21.1 10.1 21.5 10.6 21.5Z" fill="#76B300"/>
<path d="M47.7 23.1C48.1 22.7 48.3 22.2 48.2 21.6C48.2 20.5 47.3 19.7 46.2 19.6C45.3 19.5 44.5 20.1 44.2 20.8L37.6 30.4C37.4 30.7 36.9 30.7 36.7 30.4L32.8 25.2C32.4 24.7 32 24.3 31.4 24.1C31.1 24 30.9 23.9 30.7 23.9C29.6 23.9 28.7 24.8 28.7 25.9C28.7 26.5 28.9 27 29.2 27.4L35.4 35.8C35.7 36.5 36.5 36.9 37.3 36.9C38.1 36.9 38.8 36.5 39.1 35.8C39.5 35 40 34.3 40.5 33.5L47.7 23.1Z" fill="#94E000" stroke="#76B300" stroke-width="1.5902" stroke-miterlimit="10"/>
</svg>
