<svg width="60" height="67" viewBox="0 0 60 67" fill="none" xmlns="http://www.w3.org/2000/svg">
<path d="M39.7698 4.3421V55.8059L0.888184 55.6579V37.9934V13.125V4.09539C0.888184 2.36842 2.26979 0.986816 3.99676 0.986816H36.6612C38.3882 0.986816 39.7698 2.36842 39.7698 4.09539V4.3421Z" fill="#BEE07D"/>
<path d="M8.78292 55.6086V37.9441V13.0756V4.04605C8.78292 2.31907 10.1645 0.9375 11.8915 0.9375H3.99676C2.26979 0.9375 0.888184 2.31907 0.888184 4.04605V13.0756V37.9441V55.6086L39.7698 55.7566V55.7072L8.78292 55.6086Z" fill="#AAD15C"/>
<path d="M32.5167 59.7533H5.13183C2.81275 59.7533 0.839015 57.829 0.888357 55.5099C0.937699 53.2402 2.76337 51.4639 5.03311 51.4639H32.4673H39.4246V59.7533H32.5167V59.7533Z" fill="#FDD79B"/>
<path d="M5.08221 55.5592C5.13155 53.2895 6.95722 51.5132 9.22695 51.5132H4.98355C2.71381 51.5132 0.838796 53.3388 0.838796 55.5592C0.789454 57.8783 2.76313 59.8027 5.08221 59.8027H9.32568C7.0066 59.7533 5.03286 57.8783 5.08221 55.5592Z" fill="#FCCD7F"/>
<path d="M18.5527 64.8356L15.5921 63.3553L12.6316 64.8356C12.3849 64.9342 12.1382 64.7862 12.1382 64.5395V55.7566H19.0954V64.5395C19.0954 64.7862 18.7994 64.9836 18.5527 64.8356Z" fill="#BEE07D"/>
<path d="M27.9772 47.2204H7.69756C7.10546 47.2204 6.61206 46.727 6.61206 46.1349V42.4836C6.61206 41.8915 7.10546 41.3981 7.69756 41.3981H21.4147H28.2732H32.4673V46.283C32.4673 46.8257 32.0233 47.2204 31.5298 47.2204H27.9772Z" fill="#F9F7F8"/>
<path d="M7.69756 47.2204H8.78307V41.3981H7.69756C7.10546 41.3981 6.61206 41.8915 6.61206 42.4836V46.1349C6.61206 46.727 7.10546 47.2204 7.69756 47.2204Z" fill="#EFEDEF"/>
<path d="M32.5167 10.3618V25.8553H16.7272H7.5989C7.05614 25.8553 6.61206 25.4112 6.61206 24.8684V11.2993C6.61206 10.7566 7.05614 10.3125 7.5989 10.3125H24.2272L32.5167 10.3618Z" fill="#F9F7F8"/>
<path d="M7.54934 25.8553H8.73357V13.0756V10.3125H7.54934C7.00658 10.3125 6.5625 10.7566 6.5625 11.2993V24.8684C6.61184 25.4112 7.05592 25.8553 7.54934 25.8553Z" fill="#EFEDEF"/>
<path d="M43.1742 58.3718V46.283V36.0692H36.4143V46.283V58.3718H43.1742Z" fill="#D7D0D6"/>
<path d="M39.9179 36.0692H36.3652V46.283V58.3718H39.9179V46.283V36.0692Z" fill="#C9BFC8"/>
<path d="M39.77 46.579C50.3979 46.579 59.0135 37.9855 59.0135 27.3849C59.0135 16.7843 50.3979 8.1908 39.77 8.1908C29.1422 8.1908 20.5266 16.7843 20.5266 27.3849C20.5266 37.9855 29.1422 46.579 39.77 46.579Z" fill="#EFEDEF"/>
<path d="M30.9871 27.3849C30.9871 18.602 36.9082 11.2007 45.0003 8.93093C43.3227 8.48685 41.5957 8.1908 39.77 8.1908C29.1615 8.1908 20.5266 16.7763 20.5266 27.3849C20.5266 37.9934 29.1615 46.579 39.77 46.579C41.5957 46.579 43.3227 46.3322 45.0003 45.8388C36.9082 43.5691 30.9871 36.1678 30.9871 27.3849Z" fill="#E5E1E5"/>
<path d="M39.7697 42.1875C47.9722 42.1875 54.6217 35.5601 54.6217 27.3848C54.6217 19.2096 47.9722 12.5822 39.7697 12.5822C31.5672 12.5822 24.9177 19.2096 24.9177 27.3848C24.9177 35.5601 31.5672 42.1875 39.7697 42.1875Z" fill="#D4F2F6"/>
<path d="M37.8947 12.6809C30.592 13.6184 24.9177 19.8355 24.9177 27.3848C24.9177 34.9342 30.592 41.1513 37.8947 42.0888C33.7006 38.5855 30.9868 33.3059 30.9868 27.3848C30.9868 21.4638 33.7006 16.2335 37.8947 12.6809Z" fill="#A6E7F0"/>
<path d="M43.1742 56.8915V60.2467C43.1742 61.579 42.0887 62.6152 40.8058 62.6152H38.7828C37.4505 62.6152 36.4143 61.5296 36.4143 60.2467V56.8915H43.1742Z" fill="#C9BFC8"/>
<path d="M39.9179 60.1974V56.8421H36.3652V60.1974C36.3652 61.5296 37.4508 62.5658 38.7337 62.5658H40.7567C41.0034 62.5658 41.2994 62.5164 41.5462 62.4178C40.6087 62.1217 39.9179 61.2335 39.9179 60.1974Z" fill="#BAAFB9"/>
<path d="M40.954 36.8584H38.2402C37.648 36.8584 37.2039 36.4144 37.1546 35.8716L36.4639 27.0394C36.4145 26.3979 36.9079 25.8552 37.5494 25.8552H41.6448C42.2862 25.8552 42.7796 26.3979 42.7303 27.0394L42.0395 35.8716C41.9901 36.4144 41.5461 36.8584 40.954 36.8584Z" fill="#94E000"/>
<path d="M41.5462 21.9078H37.3521C36.8093 21.9078 36.3652 21.4637 36.3652 20.921V18.6019C36.3652 18.0591 36.8093 17.6151 37.3521 17.6151H41.5462C42.0889 17.6151 42.533 18.0591 42.533 18.6019V20.921C42.5823 21.4637 42.0889 21.9078 41.5462 21.9078Z" fill="#94E000"/>
<path d="M32.5162 58.8158H22.9932C22.4504 58.8158 22.0063 59.2599 22.0063 59.8026C22.0063 60.3454 22.4504 60.7895 22.9932 60.7895H32.5162C33.059 60.7895 33.5031 60.3454 33.5031 59.8026C33.5031 59.2599 33.0097 58.8158 32.5162 58.8158Z" fill="#76B300"/>
<path d="M32.5165 50.5263H5.0822C3.89799 50.5263 2.76312 50.9704 1.87496 51.6612V4.09542C1.87496 2.91121 2.86182 1.92435 4.04603 1.92435H36.7105C37.8948 1.92435 38.8815 2.91121 38.8815 4.09542V4.39146C38.8815 4.93422 39.3256 5.3783 39.8684 5.3783C40.4112 5.3783 40.8552 4.93422 40.8552 4.39146V4.09542C40.8552 1.82568 39.0296 0 36.7599 0H4.09536C1.82562 0 0 1.82568 0 4.09542V55.6579C0 55.6579 0 55.6579 0 55.7073C0 57.0395 0.542763 58.273 1.48026 59.2105C2.46711 60.1974 3.84867 60.7895 5.23025 60.7895H8.33883C8.88159 60.7895 9.32567 60.3454 9.32567 59.8026C9.32567 59.2599 8.88159 58.8158 8.33883 58.8158H5.23025C4.34209 58.8158 3.50325 58.4704 2.86181 57.829C2.2697 57.2369 1.92434 56.398 1.97368 55.5592C2.02303 53.8323 3.45395 52.4507 5.18092 52.4507H32.6151C33.1579 52.4507 33.602 52.0066 33.602 51.4638C33.602 50.9211 33.0099 50.5263 32.5165 50.5263Z" fill="#76B300"/>
<path d="M20.7234 54.8191H19.0951H12.1379H10.4109C9.86815 54.8191 9.42407 55.2632 9.42407 55.8059C9.42407 56.3487 9.86815 56.7928 10.4109 56.7928H11.151V65.1316C11.151 65.477 11.3484 65.773 11.5951 65.9704C11.8912 66.1678 12.2366 66.1678 12.5326 66.0198L15.5918 64.4901L18.651 66.0198C18.799 66.0691 18.9471 66.1184 19.0951 66.1184C19.2925 66.1184 19.4405 66.0691 19.5885 65.9704C19.8846 65.773 20.0326 65.477 20.0326 65.1316V56.7928H20.6741C21.2169 56.7928 21.6609 56.3487 21.6609 55.8059C21.6609 55.2632 21.2168 54.8191 20.7234 54.8191ZM18.1083 63.5527L16.0359 62.5164C15.8879 62.4671 15.7399 62.4178 15.5918 62.4178C15.4438 62.4178 15.2958 62.4671 15.1477 62.5164L13.0754 63.5527V56.7434H18.1083V63.5527Z" fill="#76B300"/>
<path d="M7.69734 42.3849H21.4145C21.9572 42.3849 22.4013 41.9408 22.4013 41.398C22.4013 40.8553 21.9572 40.4112 21.4145 40.4112H7.69734C6.56248 40.4112 5.625 41.3487 5.625 42.4836V46.1349C5.625 47.2697 6.56248 48.2072 7.69734 48.2072H27.9769C28.5197 48.2072 28.9638 47.7632 28.9638 47.2204C28.9638 46.6776 28.5197 46.2336 27.9769 46.2336H7.69734C7.648 46.2336 7.59868 46.1842 7.59868 46.1349V42.4836C7.59868 42.4342 7.648 42.3849 7.69734 42.3849Z" fill="#76B300"/>
<path d="M25.1645 10.3618C25.1645 9.81908 24.7204 9.375 24.1776 9.375H7.54929C6.46377 9.375 5.625 10.2632 5.625 11.2994V24.8684C5.625 25.954 6.51311 26.7928 7.54929 26.7928H16.6776C17.2203 26.7928 17.6644 26.3487 17.6644 25.8059C17.6644 25.2632 17.2203 24.8191 16.6776 24.8191H7.54929V11.25H24.1776C24.7697 11.2994 25.1645 10.9046 25.1645 10.3618Z" fill="#76B300"/>
<path d="M60.0001 27.3849C60.0001 16.2829 50.9211 7.2533 39.7698 7.2533C28.6185 7.2533 19.5396 16.2829 19.5396 27.3849C19.5396 37.0066 26.3488 45.0494 35.3784 47.0724V50.1316C35.3784 50.6744 35.8224 51.1184 36.3652 51.1184C36.908 51.1184 37.352 50.6744 37.352 50.1316V47.3684C38.1415 47.4671 38.931 47.5165 39.7698 47.5165C40.6086 47.5165 41.3981 47.4671 42.1876 47.3684V55.8553H37.352V54.227C37.352 53.6842 36.908 53.2401 36.3652 53.2401C35.8224 53.2401 35.3784 53.6842 35.3784 54.227V60.1974C35.3784 62.023 36.908 63.5527 38.7336 63.5527H40.7567C42.6317 63.5527 44.112 62.0724 44.112 60.1974V47.0724C53.1909 45.0494 60.0001 37.0066 60.0001 27.3849ZM40.7567 61.6283H38.7336C37.9442 61.6283 37.3027 60.9868 37.3027 60.1974V57.829H42.1383V60.1974C42.1876 60.9868 41.5461 61.6283 40.7567 61.6283ZM39.7698 45.5921C29.704 45.5921 21.5132 37.4013 21.5132 27.3849C21.5132 17.3684 29.704 9.17765 39.7698 9.17765C49.8356 9.17765 58.0264 17.3684 58.0264 27.3849C58.0757 37.4507 49.8356 45.5921 39.7698 45.5921Z" fill="#76B300"/>
<path d="M39.7697 11.5955C31.0362 11.5955 23.9309 18.7007 23.9309 27.3849C23.9309 30.7402 24.9671 33.9475 26.9408 36.6613C27.2368 37.1054 27.8783 37.204 28.3224 36.8586C28.7664 36.5626 28.8651 35.9211 28.5197 35.5264C26.7927 33.158 25.8553 30.3455 25.8553 27.3849C25.8553 19.7369 32.0723 13.5198 39.7697 13.5198C47.4177 13.5198 53.6842 19.7369 53.6842 27.3849C53.6842 35.033 47.4671 41.2501 39.7697 41.2501C36.6612 41.2501 33.7006 40.2139 31.2335 38.3389C30.7894 37.9935 30.1974 38.0922 29.852 38.4869C29.5066 38.931 29.6052 39.5231 30 39.8685C32.8125 42.0396 36.1677 43.2238 39.7697 43.2238C48.5033 43.2238 55.6085 36.1185 55.6085 27.4343C55.6085 18.7501 48.5033 11.5955 39.7697 11.5955Z" fill="#76B300"/>
<path d="M10.6087 16.1843H11.4968C12.0396 16.1843 12.4836 15.7402 12.4836 15.1974C12.4836 14.6547 12.0396 14.2106 11.4968 14.2106H10.6087C10.0659 14.2106 9.62183 14.6547 9.62183 15.1974C9.62183 15.7402 10.0659 16.1843 10.6087 16.1843Z" fill="#76B300"/>
<path d="M20.1315 15.2467C20.1315 14.7039 19.6874 14.2598 19.1447 14.2598H15.5921C15.0493 14.2598 14.6052 14.7039 14.6052 15.2467C14.6052 15.7894 15.0493 16.2335 15.5921 16.2335H19.1447C19.6874 16.1842 20.1315 15.7401 20.1315 15.2467Z" fill="#76B300"/>
<path d="M10.6087 21.2665H16.8258C17.3685 21.2665 17.8126 20.8224 17.8126 20.2796C17.8126 19.7369 17.3685 19.2928 16.8258 19.2928H10.6087C10.0659 19.2928 9.62183 19.7369 9.62183 20.2796C9.62183 20.8224 10.0659 21.2665 10.6087 21.2665Z" fill="#76B300"/>
<path d="M42.5824 29.2599C43.1252 29.3093 43.5693 28.9145 43.6186 28.3717L43.7173 27.1382C43.7666 26.5461 43.5693 26.0033 43.1745 25.5593C42.7798 25.1152 42.237 24.9178 41.6449 24.9178H37.5495C36.9574 24.9178 36.4147 25.1645 36.0199 25.5593C35.6252 26.0033 35.4278 26.5461 35.4772 27.1382L36.1679 35.9704C36.2666 37.056 37.1548 37.8948 38.2403 37.8948H40.9541C42.0397 37.8948 42.9278 37.056 43.0265 35.9704L43.2732 32.5165C43.3225 31.9737 42.9278 31.5297 42.3851 31.4803C41.8423 31.431 41.3982 31.8257 41.3488 32.3685L41.1021 35.8224C41.1021 35.8718 41.0528 35.9211 41.0035 35.9211H38.2897C38.2403 35.9211 38.191 35.8718 38.191 35.8224L37.5002 26.9902C37.5002 26.9408 37.5002 26.9408 37.5495 26.8915C37.5989 26.8421 37.5988 26.8421 37.6482 26.8421H41.7436C41.7929 26.8421 41.7929 26.8421 41.8423 26.8915C41.8423 26.9408 41.8917 26.9408 41.8917 26.9902L41.7929 28.2237C41.6449 28.7171 42.0396 29.2106 42.5824 29.2599Z" fill="#76B300"/>
<path d="M41.5459 16.6283H37.3519C36.2663 16.6283 35.3782 17.5165 35.3782 18.602V20.9211C35.3782 22.0066 36.2663 22.8948 37.3519 22.8948H41.5459C42.6315 22.8948 43.5196 22.0066 43.5196 20.9211V18.602C43.5196 17.5165 42.6315 16.6283 41.5459 16.6283ZM41.5953 20.9211C41.5953 20.9211 41.5953 20.9704 41.5953 20.9211L37.4012 20.9704C37.4012 20.9704 37.3519 20.9704 37.3519 20.9211V18.602C37.3519 18.602 37.3518 18.5527 37.4012 18.5527H41.5953C41.5953 18.5527 41.6447 18.5526 41.6447 18.602V20.9211H41.5953Z" fill="#76B300"/>
</svg>
