<svg width="172" height="145" viewBox="0 0 172 145" fill="none" xmlns="http://www.w3.org/2000/svg">
<path d="M40.1868 35.0213V109.821C40.1868 112.621 37.9868 114.821 35.1868 114.821H5.48682C2.68682 114.821 0.486816 112.621 0.486816 109.821V35.0213C0.486816 32.2213 2.68682 30.0213 5.48682 30.0213H35.1868C37.8868 30.0213 40.1868 32.3213 40.1868 35.0213Z" fill="#B59CFF"/>
<path d="M40.1868 72.4213V109.821C40.1868 112.621 37.9868 114.821 35.1868 114.821H5.48682C2.68682 114.821 0.486816 112.621 0.486816 109.821V72.4213H40.1868Z" fill="#A586FF"/>
<path d="M101.587 15.4213V129.421C101.587 141.121 88.7867 148.321 78.7867 142.221L33.8867 114.821V29.9213L78.7867 2.52126C88.7867 -3.47874 101.587 3.72126 101.587 15.4213Z" fill="#F3EEFF"/>
<path d="M101.587 72.4213V129.421C101.587 141.121 88.7867 148.321 78.7867 142.221L33.8867 114.821V72.4213H101.587Z" fill="#E7D9FC"/>
<path d="M128.287 72.4213C128.287 77.1213 126.487 81.8213 122.887 85.4213C120.987 87.3213 117.787 87.4213 115.787 85.4213C113.787 83.4213 113.787 80.3213 115.787 78.3213C117.387 76.7213 118.187 74.5213 118.187 72.4213C118.187 70.3213 117.387 68.1213 115.787 66.5213C113.787 64.5213 113.787 61.4213 115.787 59.4213C117.787 57.4213 120.887 57.4213 122.887 59.4213C126.487 63.0213 128.287 67.7213 128.287 72.4213Z" fill="#DD5958"/>
<path d="M118.287 72.4213H128.287C128.287 77.1213 126.487 81.8213 122.887 85.4213C120.987 87.3213 117.787 87.4213 115.787 85.4213C113.787 83.4213 113.787 80.3213 115.787 78.3213C117.487 76.7213 118.287 74.5213 118.287 72.4213Z" fill="#D8225B"/>
<path d="M149.587 72.4213C149.587 82.6213 145.687 92.7213 137.987 100.521C135.987 102.521 132.887 102.521 130.887 100.521C128.887 98.5213 128.887 95.4213 130.887 93.4213C136.687 87.6213 139.587 80.0213 139.587 72.4213C139.587 64.8213 136.687 57.2213 130.887 51.4213C128.887 49.4213 128.887 46.3213 130.887 44.3213C132.887 42.3213 135.987 42.3213 137.987 44.3213C145.787 52.1213 149.587 62.2213 149.587 72.4213Z" fill="#FFE278"/>
<path d="M149.587 72.4213C149.587 82.6213 145.687 92.7213 137.987 100.521C135.987 102.521 132.887 102.521 130.887 100.521C128.887 98.5213 128.887 95.4213 130.887 93.4213C136.687 87.6213 139.587 80.0213 139.587 72.4213H149.587Z" fill="#FFB454"/>
<path d="M171.387 72.4213C171.387 87.9213 165.287 103.421 153.187 115.621C151.287 117.521 148.087 117.621 146.087 115.621C144.087 113.621 144.087 110.521 146.087 108.521C156.187 98.4213 161.287 85.4213 161.287 72.4213C161.287 59.4213 156.187 46.4213 146.087 36.3213C144.087 34.3213 144.087 31.2213 146.087 29.2213C148.087 27.2213 151.187 27.2213 153.187 29.2213C165.287 41.4213 171.387 56.9213 171.387 72.4213Z" fill="#C5E092"/>
<path d="M171.387 72.4213C171.387 87.9213 165.287 103.421 153.187 115.621C151.287 117.521 148.087 117.621 146.087 115.621C144.087 113.621 144.087 110.521 146.087 108.521C156.187 98.4213 161.287 85.4213 161.287 72.4213H171.387Z" fill="#C4FF52"/>
</svg>
