<svg width="84" height="84" viewBox="0 0 84 84" fill="none" xmlns="http://www.w3.org/2000/svg">
  <path d="M72.3 3.3C72.9076 3.3 73.4 2.80751 73.4 2.2C73.4 1.59249 72.9076 1.1 72.3 1.1C71.6925 1.1 71.2001 1.59249 71.2001 2.2C71.2001 2.80751 71.6925 3.3 72.3 3.3Z" fill="#F1BC19"/>
  <path d="M41.7001 83.3C64.6751 83.3 83.3 64.675 83.3 41.7C83.3 18.725 64.6751 0.0999985 41.7001 0.0999985C18.725 0.0999985 0.100098 18.725 0.100098 41.7C0.100098 64.675 18.725 83.3 41.7001 83.3Z" fill="#F9DBD2"/>
  <path d="M78.9 8.8C81.3301 8.8 83.3 6.83005 83.3 4.4C83.3 1.96995 81.3301 0 78.9 0C76.47 0 74.5 1.96995 74.5 4.4C74.5 6.83005 76.47 8.8 78.9 8.8Z" fill="#F1BC19"/>
  <path d="M2.20007 17.6C3.4151 17.6 4.40002 16.615 4.40002 15.4C4.40002 14.185 3.4151 13.2 2.20007 13.2C0.985047 13.2 0 14.185 0 15.4C0 16.615 0.985047 17.6 2.20007 17.6Z" fill="#EE3E54"/>
  <path d="M72.3 73.5C73.5151 73.5 74.5 72.515 74.5 71.3C74.5 70.085 73.5151 69.1 72.3 69.1C71.085 69.1 70.1001 70.085 70.1001 71.3C70.1001 72.515 71.085 73.5 72.3 73.5Z" fill="#FBCD59"/>
  <path d="M5.5 76.8C7.93005 76.8 9.90002 74.8301 9.90002 72.4C9.90002 69.9699 7.93005 68 5.5 68C3.06995 68 1.1001 69.9699 1.1001 72.4C1.1001 74.8301 3.06995 76.8 5.5 76.8Z" fill="#FBCD59"/>
  <path d="M13.2001 80C14.4151 80 15.4 79.015 15.4 77.8C15.4 76.585 14.4151 75.6 13.2001 75.6C11.985 75.6 11 76.585 11 77.8C11 79.015 11.985 80 13.2001 80Z" fill="#EE3E54"/>
  <path d="M37.8 80C39.2912 80 40.5 78.7912 40.5 77.3C40.5 75.8088 39.2912 74.6 37.8 74.6C36.3089 74.6 35.1001 75.8088 35.1001 77.3C35.1001 78.7912 36.3089 80 37.8 80Z" fill="white"/>
  <path d="M4.40002 40.6C5.00754 40.6 5.5 40.1075 5.5 39.5C5.5 38.8925 5.00754 38.4 4.40002 38.4C3.79251 38.4 3.30005 38.8925 3.30005 39.5C3.30005 40.1075 3.79251 40.6 4.40002 40.6Z" fill="white"/>
  <path d="M81.1001 22C81.7076 22 82.2001 21.5075 82.2001 20.9C82.2001 20.2925 81.7076 19.8 81.1001 19.8C80.4926 19.8 80 20.2925 80 20.9C80 21.5075 80.4926 22 81.1001 22Z" fill="#F1BC19"/>
  <path d="M77.8 47.3C79.0151 47.3 80 46.315 80 45.1C80 43.885 79.0151 42.9 77.8 42.9C76.585 42.9 75.6001 43.885 75.6001 45.1C75.6001 46.315 76.585 47.3 77.8 47.3Z" fill="white"/>
  <path fill="#F1BC19" d="M59.0898 57.407C58.0111 57.407 57.1367 56.5326 57.1367 55.4539C57.1367 54.3752 58.0111 53.5008 59.0898 53.5008C60.1685 53.5008 61.0429 54.3752 61.0429 55.4539C61.0429 56.5326 60.1685 57.407 59.0898 57.407ZM65.5047 48.8725C64.6687 47.0024 62.7855 45.7907 60.7024 45.7859H54.6114C54.607 45.7859 54.6029 45.7859 54.5984 45.7859C52.4011 45.7859 50.4841 47.0808 49.7128 49.0874C49.6101 49.3544 49.4846 49.6907 49.3537 50.0828H36.566C36.038 50.0828 35.5325 50.2966 35.1646 50.6754L31.8095 54.1312C31.0706 54.8924 31.0743 56.1042 31.8178 56.8607L35.2358 60.3385C35.603 60.7121 36.1049 60.9225 36.6288 60.9225H42.9764C44.0551 60.9225 44.9296 60.0481 44.9296 58.9694C44.9296 57.8907 44.0551 57.0163 42.9764 57.0163H37.4477L35.9411 55.4833L37.392 53.989H50.8188C51.7186 53.989 52.5019 53.3743 52.7159 52.5004C52.8739 51.8552 53.0721 51.2348 53.3588 50.489C53.5479 49.9972 54.0227 49.6922 54.6031 49.6922C54.6044 49.6922 54.6056 49.6922 54.6069 49.6922H60.6978C61.2502 49.6934 61.7255 49.9903 61.9385 50.4668C62.4628 51.6398 63.0889 53.4558 63.0936 55.4459C63.0983 57.4507 62.4729 59.3083 61.9472 60.5137C61.7353 60.9998 61.2559 61.3133 60.7207 61.3133C60.7196 61.3133 60.7185 61.3133 60.7174 61.3133H54.5529C54.0126 61.312 53.5064 60.9643 53.2935 60.4482C53.0651 59.8944 52.8672 59.2621 52.6883 58.5149C52.4373 57.4659 51.383 56.819 50.3343 57.07C49.2852 57.3211 48.6383 58.3751 48.8894 59.4241C49.1161 60.3713 49.3755 61.1934 49.6825 61.9376C50.5027 63.9263 52.4109 65.2144 54.5484 65.2194H60.7129C60.7171 65.2194 60.7211 65.2194 60.7253 65.2194C62.8103 65.2193 64.6947 63.986 65.528 62.0748C66.203 60.5268 67.0062 58.1186 66.9999 55.4366C66.9936 52.7619 66.1834 50.3907 65.5047 48.8725ZM31.7949 63.2664C31.7949 64.3451 30.9205 65.2195 29.8418 65.2195H22.927C21.1371 65.2195 19.463 64.4233 18.3341 63.035C17.1994 61.6399 16.7593 59.8278 17.1267 58.0636C18.2989 52.433 21.4041 47.3091 25.8701 43.6355C28.3058 41.632 31.089 40.1137 34.055 39.1373C30.8175 36.7129 28.7187 32.8473 28.7187 28.5008C28.7187 21.1775 34.6766 15.2195 42 15.2195C49.3233 15.2195 55.2812 21.1775 55.2812 28.5008C55.2812 32.8434 53.186 36.7059 49.9535 39.1307C50.2806 39.2386 50.6062 39.3522 50.9296 39.4737C51.9394 39.8529 52.4506 40.979 52.0714 41.9888C51.6922 42.9986 50.5662 43.51 49.5564 43.1306C47.2999 42.2833 44.9292 41.8269 42.5021 41.7716C42.3353 41.7778 42.1681 41.782 42 41.782C41.8333 41.782 41.6675 41.7779 41.5022 41.7718C31.5768 42.0026 22.9792 49.1174 20.9509 58.8596C20.8243 59.468 20.9752 60.0914 21.3646 60.5705C21.5902 60.8479 22.0932 61.3133 22.927 61.3133H29.8418C30.9205 61.3133 31.7949 62.1877 31.7949 63.2664ZM41.5421 37.8644C41.6946 37.8617 41.8472 37.8595 42 37.8595C42.1523 37.8595 42.3044 37.8618 42.4564 37.8645C47.4146 37.6256 51.375 33.5171 51.375 28.5008C51.375 23.3313 47.1694 19.1258 42 19.1258C36.8305 19.1258 32.625 23.3313 32.625 28.5008C32.625 33.5166 36.5845 37.6248 41.5421 37.8644Z"/>
</svg>
