<svg width="60" height="97" viewBox="0 0 60 97" fill="none" xmlns="http://www.w3.org/2000/svg">
<path d="M59.4 41.2V27.4C59.4 25.1 57.5 23.2 55.2 23.2C52.9 23.2 51 25.1 51 27.4V35.1H47.4V18.3C47.4 8.6 39.5 0.599998 29.7 0.599998C26.8 0.599998 23.9 1.3 21.4 2.7C20.7 3.1 20.5 3.9 20.8 4.6C21.2 5.3 22 5.6 22.7 5.2C24.8 4.1 27.2 3.5 29.7 3.5C37.4 3.5 43.7 9.4 44.5 16.8H40.4C39.6 16.8 39 17.4 39 18.2C39 19 39.6 19.6 40.4 19.6H44.6V24.1H40.4C39.6 24.1 39 24.7 39 25.5C39 26.3 39.6 26.9 40.4 26.9H44.6V31.4H40.4C39.6 31.4 39 32 39 32.8C39 33.6 39.6 34.2 40.4 34.2H44.6V38.7H40.4C39.6 38.7 39 39.3 39 40.1C39 40.9 39.6 41.5 40.4 41.5H44.5C43.7 49 37.4 54.8 29.7 54.8C22 54.8 15.7 48.9 14.9 41.5H19C19.8 41.5 20.4 40.9 20.4 40.1C20.4 39.3 19.8 38.7 19 38.7H14.8V34.2H19C19.8 34.2 20.4 33.6 20.4 32.8C20.4 32 19.8 31.4 19 31.4H14.8V27H19C19.8 27 20.4 26.4 20.4 25.6C20.4 24.8 19.8 24.2 19 24.2H14.8V19.7H19C19.8 19.7 20.4 19.1 20.4 18.3C20.4 17.5 19.8 16.9 19 16.9H14.9C15.2 13.8 16.5 10.8 18.6 8.5C19.1 7.9 19.1 7 18.5 6.5C17.9 6 17 6 16.5 6.6C13.6 9.8 12 14 12 18.4V35.2H8.39999V27.5C8.39999 25.2 6.5 23.3 4.2 23.3C1.9 23.3 0 25.2 0 27.5V41.3C0 56 10.7 68.2 24.7 70.6V87.7H11.9C9.39999 87.7 7.29999 89.8 7.29999 92.3C7.29999 94.8 9.39999 96.9 11.9 96.9H18.2C19 96.9 19.6 96.3 19.6 95.5C19.6 94.7 19 94.1 18.2 94.1H11.9C10.9 94.1 10.1 93.3 10.1 92.3C10.1 91.3 10.9 90.5 11.9 90.5H47.6C48.6 90.5 49.4 91.3 49.4 92.3C49.4 93.3 48.6 94.1 47.6 94.1H23.8C23 94.1 22.4 94.7 22.4 95.5C22.4 96.3 23 96.9 23.8 96.9H47.6C50.1 96.9 52.2 94.8 52.2 92.3C52.2 89.8 50.1 87.7 47.6 87.7H34.8V70.6C48.7 68.1 59.4 55.9 59.4 41.2ZM2.7 41.2V27.4C2.7 26.6 3.29999 26 4.09999 26C4.89999 26 5.5 26.6 5.5 27.4V41.2C5.5 54.5 16.3 65.3 29.6 65.3C34.5 65.3 39.2 63.8 43.3 61.1C43.9 60.7 44.1 59.8 43.7 59.1C43.3 58.5 42.4 58.3 41.7 58.7C38.1 61.2 34 62.4 29.6 62.4C17.9 62.4 8.29999 52.8 8.29999 41.1V38H11.9V40.2C11.9 49.9 19.8 57.9 29.6 57.9C39.4 57.9 47.3 50 47.3 40.2V38H50.9V41.3C50.9 46.5 49 51.4 45.6 55.3C45.1 55.9 45.1 56.8 45.7 57.3C46.3 57.8 47.2 57.8 47.7 57.2C51.6 52.8 53.7 47.2 53.7 41.3V27.4C53.7 26.6 54.3 26 55.1 26C55.9 26 56.5 26.6 56.5 27.4V41.2C56.5 56.1 44.4 68.1 29.6 68.1C14.8 68.1 2.7 56.1 2.7 41.2ZM31.9 87.7H27.4V70.9C28.2 71 28.9 71 29.7 71C30.5 71 31.2 71 32 70.9V87.7H31.9Z" fill="#F1BC19"/>
</svg>
