<svg width="143" height="98" viewBox="0 0 143 98" fill="none" xmlns="http://www.w3.org/2000/svg">
<path d="M115.9 85.4C115.3 85.4 114.8 84.9 114.8 84.3V65.6C114.8 65 115.3 64.5 115.9 64.5C116.5 64.5 117 65 117 65.6V84.3C117.1 84.9 116.5 85.4 115.9 85.4ZM97.3003 84.5C96.7003 84.5 96.2002 84 96.2002 83.4V66.5C96.2002 65.9 96.7003 65.4 97.3003 65.4C97.9003 65.4 98.4003 65.9 98.4003 66.5V83.4C98.4003 84 97.9003 84.5 97.3003 84.5ZM87.9003 83C87.3003 83 86.8003 82.5 86.8003 81.9V68C86.8003 67.4 87.3003 66.9 87.9003 66.9C88.5003 66.9 89.0002 67.4 89.0002 68V81.8C89.1002 82.5 88.6003 83 87.9003 83ZM111.3 81.3C110.7 81.3 110.2 80.8 110.2 80.2V69.8C110.2 69.2 110.7 68.7 111.3 68.7C111.9 68.7 112.4 69.2 112.4 69.8V80.2C112.4 80.8 111.9 81.3 111.3 81.3ZM120.6 80.8C120 80.8 119.5 80.3 119.5 79.7V70.2C119.5 69.6 120 69.1 120.6 69.1C121.2 69.1 121.7 69.6 121.7 70.2V79.7C121.7 80.3 121.2 80.8 120.6 80.8ZM101.9 80.4C101.3 80.4 100.8 79.9 100.8 79.3V70.6C100.8 70 101.3 69.5 101.9 69.5C102.5 69.5 103 70 103 70.6V79.3C103.1 79.9 102.6 80.4 101.9 80.4ZM92.6002 79C92.0002 79 91.5002 78.5 91.5002 77.9V71.9C91.5002 71.3 92.0002 70.8 92.6002 70.8C93.2002 70.8 93.7002 71.3 93.7002 71.9V77.9C93.7002 78.5 93.2002 79 92.6002 79ZM106.6 78.2C106 78.2 105.5 77.7 105.5 77.1V72.8C105.5 72.2 106 71.7 106.6 71.7C107.2 71.7 107.7 72.2 107.7 72.8V77.1C107.7 77.7 107.2 78.2 106.6 78.2Z" fill="#00D5FF"/>
<path d="M128.6 92.3C125.9 92.3 123.7 90.1 123.7 87.4V62C123.7 59.3 125.9 57.1 128.6 57.1C131.3 57.1 133.5 59.3 133.5 62V87.4C133.4 90.1 131.2 92.3 128.6 92.3ZM128.6 59.4C127.2 59.4 126 60.6 126 62V87.4C126 88.8 127.2 90 128.6 90C130 90 131.2 88.8 131.2 87.4V62C131.1 60.6 130 59.4 128.6 59.4ZM79.4003 92.3C76.7003 92.3 74.5002 90.1 74.5002 87.4V62C74.5002 59.3 76.7003 57.1 79.4003 57.1C82.1003 57.1 84.3003 59.3 84.3003 62V87.4C84.3003 90.1 82.1003 92.3 79.4003 92.3ZM79.4003 59.4C78.0003 59.4 76.8003 60.6 76.8003 62V87.4C76.8003 88.8 78.0003 90 79.4003 90C80.8003 90 82.0002 88.8 82.0002 87.4V62C82.0002 60.6 80.9003 59.4 79.4003 59.4ZM135.3 87.9C135 87.4 135.2 86.7001 135.7 86.3C138.4 84.7001 140.2 81.5 140.2 78V71.5C140.2 67.9 138.5 64.7 135.7 63.2C135.2 62.9 135 62.2 135.3 61.6C135.6 61.1 136.3 60.9 136.9 61.2C140.4 63.2 142.5 67.1 142.5 71.5V78C142.5 82.4 140.4 86.3 136.9 88.3C136.3 88.6001 135.6 88.4 135.3 87.9ZM71.3003 88.3C67.8003 86.3 65.7002 82.4 65.7002 78V71.5C65.7002 67.1 67.8003 63.2 71.3003 61.2C71.8003 60.9 72.5003 61.1 72.9003 61.6C73.2003 62.1 73.0002 62.7999 72.5002 63.2C69.8002 64.7999 68.0002 68 68.0002 71.5V78C68.0002 81.6 69.7002 84.8 72.5002 86.3C73.0002 86.6001 73.2003 87.3 72.9003 87.9C72.6003 88.4 71.9003 88.6001 71.3003 88.3ZM136.8 59.2L132.6 56.7C132.2 56.5 132 56.1 132 55.7C132 43 120.7 29.3 103.8 29.3C86.9003 29.3 75.6002 42.9 75.6002 55.7C75.6002 56.1 75.4002 56.5 75.1002 56.7L71.4003 59.1C71.1003 59.3 70.6003 59.3 70.3003 59.1C69.9003 58.9 69.7002 58.5 69.7002 58.1C69.7002 57.4 69.3002 41.3 79.7002 30.5C85.6002 24.4 93.7003 21.4 103.9 21.4C114 21.4 122.2 24.5 128.2 30.5C138.8 41.3 138.6 57.5 138.6 58.2C138.6 58.6 138.4 59 138 59.2C137.6 59.4 137.2 59.5 136.8 59.2ZM134.3 55.1L136.2 56.2C135.9 51.6 134.3 40.1 126.5 32.2C121 26.6 113.4 23.8 103.9 23.8C94.4003 23.8 86.8003 26.6 81.4003 32.2C73.8003 40.1 72.3002 51.4 72.1002 56L73.5002 55.1C73.9002 41.4 86.0003 27.1 103.9 27.1C121.8 27.1 133.9 41.5 134.3 55.1Z" fill="#BBBDBF"/>
<path d="M120.6 80.4C120.2 80.4 119.9 80.1 119.9 79.7V70.2C119.9 69.8 120.2 69.5 120.6 69.5C121 69.5 121.3 69.8 121.3 70.2V79.7C121.3 80 121 80.4 120.6 80.4Z" fill="#85E0FF"/>
<path d="M115.9 84.9C115.5 84.9 115.2 84.6 115.2 84.2V65.5C115.2 65.1 115.5 64.8 115.9 64.8C116.3 64.8 116.6 65.1 116.6 65.5V84.2C116.6 84.6 116.3 84.9 115.9 84.9Z" fill="#85E0FF"/>
<path d="M111.3 80.8C110.9 80.8 110.6 80.5 110.6 80.1V69.7C110.6 69.3 110.9 69 111.3 69C111.7 69 112 69.3 112 69.7V80.1C111.9 80.5 111.6 80.8 111.3 80.8Z" fill="#85E0FF"/>
<path d="M101.9 79.9C101.5 79.9 101.2 79.6 101.2 79.2V70.5C101.2 70.1 101.5 69.8 101.9 69.8C102.3 69.8 102.6 70.1 102.6 70.5V79.2C102.6 79.6 102.3 79.9 101.9 79.9Z" fill="#85E0FF"/>
<path d="M97.3002 84.1C96.9002 84.1 96.6001 83.8 96.6001 83.4V66.5C96.6001 66.1 96.9002 65.8 97.3002 65.8C97.7002 65.8 98.0001 66.1 98.0001 66.5V83.4C97.9001 83.8 97.6002 84.1 97.3002 84.1Z" fill="#85E0FF"/>
<path d="M92.6003 78.6C92.2003 78.6 91.9004 78.3 91.9004 77.9V71.9C91.9004 71.5 92.2003 71.2 92.6003 71.2C93.0003 71.2 93.3004 71.5 93.3004 71.9V77.9C93.3004 78.3 93.0003 78.6 92.6003 78.6Z" fill="#85E0FF"/>
<path d="M106.6 77.7C106.2 77.7 105.9 77.4 105.9 77V72.7C105.9 72.3 106.2 72 106.6 72C107 72 107.3 72.3 107.3 72.7V77C107.3 77.4 107 77.7 106.6 77.7Z" fill="#85E0FF"/>
<path d="M87.9003 82.5C87.5003 82.5 87.2002 82.2 87.2002 81.8V68C87.2002 67.6 87.5003 67.3 87.9003 67.3C88.3003 67.3 88.6002 67.6 88.6002 68V81.8C88.6002 82.2 88.3003 82.5 87.9003 82.5Z" fill="#85E0FF"/>
<path d="M120.6 79.9C120.5 79.9 120.4 79.8 120.4 79.7V70.2C120.4 70.1 120.5 70 120.6 70C120.7 70 120.8 70.1 120.8 70.2V79.7C120.8 79.8 120.7 79.9 120.6 79.9Z" fill="#E2FAFF"/>
<path d="M115.9 84.5C115.8 84.5 115.7 84.4 115.7 84.3V65.6C115.7 65.5 115.8 65.4 115.9 65.4C116 65.4 116.1 65.5 116.1 65.6V84.3C116.1 84.4 116 84.5 115.9 84.5Z" fill="#E2FAFF"/>
<path d="M111.3 80.4C111.2 80.4 111.1 80.3 111.1 80.2V69.8C111.1 69.7 111.2 69.6 111.3 69.6C111.4 69.6 111.5 69.7 111.5 69.8V80.2C111.5 80.3 111.4 80.4 111.3 80.4Z" fill="#E2FAFF"/>
<path d="M101.9 79.5C101.8 79.5 101.7 79.4 101.7 79.3V70.6C101.7 70.5 101.8 70.4 101.9 70.4C102 70.4 102.1 70.5 102.1 70.6V79.3C102.2 79.4 102.1 79.5 101.9 79.5Z" fill="#E2FAFF"/>
<path d="M97.3002 83.6C97.2002 83.6 97.1001 83.5 97.1001 83.4V66.5C97.1001 66.4 97.2002 66.3 97.3002 66.3C97.4002 66.3 97.5001 66.4 97.5001 66.5V83.4C97.5001 83.5 97.4002 83.6 97.3002 83.6Z" fill="#E2FAFF"/>
<path d="M92.6003 78.1C92.5003 78.1 92.4004 78 92.4004 77.9V71.9C92.4004 71.8 92.5003 71.7 92.6003 71.7C92.7003 71.7 92.8004 71.8 92.8004 71.9V77.9C92.8004 78 92.7003 78.1 92.6003 78.1Z" fill="#E2FAFF"/>
<path d="M106.6 77.3C106.5 77.3 106.4 77.2 106.4 77.1V72.8C106.4 72.7 106.5 72.6 106.6 72.6C106.7 72.6 106.8 72.7 106.8 72.8V77.1C106.8 77.2 106.7 77.3 106.6 77.3Z" fill="#E2FAFF"/>
<path d="M87.9003 82C87.8003 82 87.7002 81.9 87.7002 81.8V68C87.7002 67.9 87.8003 67.8 87.9003 67.8C88.0003 67.8 88.1002 67.9 88.1002 68V81.8C88.2002 81.9 88.1003 82 87.9003 82Z" fill="#E2FAFF"/>
<path d="M79.4003 91.8C77.0003 91.8 75.0002 89.8 75.0002 87.4V62C75.0002 59.6 77.0003 57.6 79.4003 57.6C81.8003 57.6 83.8003 59.6 83.8003 62V87.4C83.8003 89.8 81.9003 91.8 79.4003 91.8ZM79.4003 58.9C77.7003 58.9 76.4003 60.3 76.4003 61.9V87.3C76.4003 89 77.8003 90.3 79.4003 90.3C81.1003 90.3 82.4003 88.9 82.4003 87.3V62C82.5003 60.3 81.1003 58.9 79.4003 58.9Z" fill="#E6E7E8"/>
<path d="M128.6 91.8C126.2 91.8 124.2 89.8 124.2 87.4V62C124.2 59.6 126.2 57.6 128.6 57.6C131 57.6 133 59.6 133 62V87.4C133 89.8 131 91.8 128.6 91.8ZM128.6 58.9C126.9 58.9 125.6 60.3 125.6 61.9V87.3C125.6 89 127 90.3 128.6 90.3C130.3 90.3 131.6 88.9 131.6 87.3V62C131.6 60.3 130.2 58.9 128.6 58.9Z" fill="#E6E7E8"/>
<path d="M71.6002 87.9C68.3002 86 66.2002 82.2 66.2002 78V71.5C66.2002 67.3 68.3002 63.5 71.6002 61.6C71.9002 61.4 72.3002 61.5 72.5002 61.9C72.7002 62.2 72.6002 62.6001 72.2002 62.8001C69.3002 64.5001 67.5002 67.8 67.5002 71.5V78C67.5002 81.7 69.3002 85.1 72.2002 86.7C72.5002 86.9 72.6002 87.3 72.5002 87.6C72.3002 88 71.9002 88.1 71.6002 87.9Z" fill="#E6E7E8"/>
<path d="M135.7 87.6C135.5 87.3 135.6 86.9 136 86.7C138.9 85 140.7 81.7 140.7 78V71.5C140.7 67.8 138.9 64.4001 136 62.8001C135.7 62.6001 135.6 62.2 135.7 61.9C135.9 61.6 136.3 61.5 136.6 61.6C139.9 63.5 142 67.3 142 71.5V78C142 82.2 139.9 86 136.6 87.9C136.3 88.1 135.9 88 135.7 87.6Z" fill="#E6E7E8"/>
<path d="M137.1 58.9L132.9 56.4C132.7 56.3 132.6 56.1 132.6 55.8C132.6 42.8 121.1 29 104 29C86.9004 29 75.4004 42.9 75.4004 55.8C75.4004 56 75.3003 56.3 75.1003 56.4L71.4004 58.8C71.2004 58.9 70.9003 58.9 70.7003 58.8C70.5003 58.7001 70.3004 58.5 70.3004 58.2C70.3004 57.5 69.9003 41.6 80.2003 31C86.0003 25 94.0004 22 104 22C114 22 122.1 25 127.9 31C138.4 41.6 138.2 57.7001 138.2 58.3C138.2 58.5 138.1 58.8 137.9 58.9C137.5 59 137.3 59 137.1 58.9ZM133.8 55.4L136.6 57.1C136.4 53.2 135.2 40.5 126.7 31.9C121.1 26.2 113.4 23.3 103.7 23.3C94.1003 23.3 86.4004 26.2 80.8004 31.9C72.5004 40.4 71.4004 53 71.3004 56.9L73.6003 55.4C73.8003 41.9 85.8003 27.6 103.6 27.6C121.6 27.6 133.6 41.9 133.8 55.4Z" fill="#E6E7E8"/>
<path d="M79.4003 91.4C77.2003 91.4 75.5002 89.6 75.5002 87.5V62C75.5002 59.8 77.3003 58.1 79.4003 58.1C81.6003 58.1 83.3003 59.9 83.3003 62V87.4C83.4003 89.6 81.6003 91.4 79.4003 91.4ZM79.4003 58.5C77.5003 58.5 75.9003 60.1 75.9003 62V87.4C75.9003 89.3 77.5003 90.9 79.4003 90.9C81.3003 90.9 82.9003 89.3 82.9003 87.4V62C82.9003 60 81.4003 58.5 79.4003 58.5Z" fill="white"/>
<path d="M128.6 91.4C126.4 91.4 124.7 89.6 124.7 87.5V62C124.7 59.8 126.5 58.1 128.6 58.1C130.8 58.1 132.5 59.9 132.5 62V87.4C132.5 89.6 130.7 91.4 128.6 91.4ZM128.6 58.5C126.7 58.5 125.1 60.1 125.1 62V87.4C125.1 89.3 126.7 90.9 128.6 90.9C130.5 90.9 132.1 89.3 132.1 87.4V62C132 60 130.5 58.5 128.6 58.5Z" fill="white"/>
<path d="M71.8003 87.5C68.6003 85.7 66.7002 82 66.7002 78V71.5C66.7002 67.4 68.7003 63.8 71.8003 62C71.9003 61.9 72.0002 62 72.1002 62.1C72.2002 62.2 72.1002 62.4001 72.0002 62.4001C69.0002 64.1001 67.1002 67.6 67.1002 71.5V78C67.1002 81.9 69.0002 85.4 72.0002 87.1C72.1002 87.2 72.1002 87.3001 72.1002 87.4001C72.0002 87.5001 71.9003 87.5 71.8003 87.5Z" fill="white"/>
<path d="M136.1 87.4C136 87.3 136.1 87.2 136.2 87.1C139.2 85.4 141.1 81.9 141.1 78V71.5C141.1 67.6 139.2 64.1 136.2 62.4C136.1 62.3 136.1 62.2 136.1 62.1C136.2 62 136.3 62 136.4 62C139.6 63.8 141.5 67.5 141.5 71.5V78C141.5 82.1 139.5 85.7 136.4 87.5C136.3 87.5 136.2 87.5 136.1 87.4Z" fill="white"/>
<path d="M137.3 58.5L133.1 56C133 56 133 55.9 133 55.8C133 42.6 121.3 28.5 103.9 28.5C86.5002 28.5 74.8002 42.6 74.8002 55.8C74.8002 55.9 74.8002 55.9 74.7002 56L71.0002 58.4C70.9002 58.4 70.8002 58.4 70.8002 58.4C70.7002 58.4 70.7002 58.2999 70.7002 58.2C70.7002 58 70.3002 41.8 80.4002 31.3C86.1002 25.4 94.0002 22.4 103.9 22.4C113.8 22.4 121.7 25.4 127.5 31.3C137.8 41.8 137.7 58.1 137.7 58.3C137.7 58.4 137.7 58.5 137.6 58.5C137.4 58.5 137.4 58.5 137.3 58.5ZM133.4 55.6L137.2 57.8C137.2 55.3 136.5 41 127.2 31.5C121.5 25.7 113.7 22.8 103.9 22.8C94.1002 22.8 86.3002 25.7 80.7002 31.5C71.6002 40.9 71.1002 55.1 71.1002 57.7L74.4002 55.6C74.5002 41.7 86.7002 28 103.9 28C121 28 133.3 41.6 133.4 55.6Z" fill="white"/>
<path d="M47.6001 97.5C46.9001 97.5 46.3002 96.8999 46.3002 96.2C46.3002 93.7999 44.4001 91.9 42.0001 91.9H22.9001C20.5001 91.9 18.6001 93.7999 18.6001 96.2C18.6001 96.8999 18.0002 97.5 17.3002 97.5C16.6002 97.5 16.0001 96.8999 16.0001 96.2C16.0001 92.3999 19.1002 89.4 22.8002 89.4H31.1001V71.4H26.1001C19.8001 71.4 14.6001 66.3 14.6001 59.9V21.1C14.6001 14.8 19.7001 9.59998 26.1001 9.59998H38.2001C44.5001 9.59998 49.7001 14.7 49.7001 21.1V50.9C49.7001 51.6 49.1001 52.2 48.4001 52.2C47.7001 52.2 47.1001 51.6 47.1001 50.9V48.4H37.4001C36.7001 48.4 36.1001 47.8 36.1001 47.1C36.1001 46.4 36.7001 45.8 37.4001 45.8H47.1001V40.7H37.4001C36.7001 40.7 36.1001 40.1 36.1001 39.4C36.1001 38.7 36.7001 38.1 37.4001 38.1H47.1001V33H37.4001C36.7001 33 36.1001 32.4 36.1001 31.7C36.1001 31 36.7001 30.4 37.4001 30.4H47.1001V25.3H37.4001C36.7001 25.3 36.1001 24.7 36.1001 24C36.1001 23.3 36.7001 22.7 37.4001 22.7H47.1001V20.9C47.1001 17 44.6001 13.7 41.1001 12.5V17.8C41.1001 18.5 40.5002 19.1 39.8002 19.1C39.1002 19.1 38.5001 18.5 38.5001 17.8V12C38.4001 12 38.3001 12 38.1001 12H33.3002V17.8C33.3002 18.5 32.7001 19.1 32.0001 19.1C31.3001 19.1 30.7001 18.5 30.7001 17.8V12H25.9001C25.8001 12 25.7001 12 25.5001 12V17.8C25.5001 18.5 24.9001 19.1 24.2001 19.1C23.5001 19.1 22.9001 18.5 22.9001 17.8V12.5C19.4001 13.7 16.9001 17 16.9001 20.9V22.7H26.6001C27.3001 22.7 27.9001 23.3 27.9001 24C27.9001 24.7 27.3001 25.3 26.6001 25.3H16.9001V30.4H26.6001C27.3001 30.4 27.9001 31 27.9001 31.7C27.9001 32.4 27.3001 33 26.6001 33H16.9001V38.1H26.6001C27.3001 38.1 27.9001 38.7 27.9001 39.4C27.9001 40.1 27.3001 40.7 26.6001 40.7H16.9001V45.8H26.6001C27.3001 45.8 27.9001 46.4 27.9001 47.1C27.9001 47.8 27.3001 48.4 26.6001 48.4H16.9001V59.8C16.9001 64.7001 20.9002 68.7 25.8002 68.7H37.9001C42.5001 68.7 46.4002 65.1 46.8002 60.5C46.9002 59.8 47.5001 59.3 48.2001 59.3C48.9001 59.4 49.4001 60 49.4001 60.7C48.9001 66.6 43.9001 71.2 38.0001 71.2H33.4001V89.2H41.7001C45.5001 89.2 48.5001 92.3 48.5001 96C48.8001 96.9 48.3001 97.5 47.6001 97.5Z" fill="#BBBDBF"/>
<path d="M33.4001 63.9C30.4001 63.9 28.0001 61.5 28.0001 58.5C28.0001 55.5 30.4001 53.1 33.4001 53.1C35.9001 53.1 38.1001 54.9 38.6001 57.3C40.6001 57.4 45.8001 57.1 50.5001 53C54.0001 49.9 54.4001 45.6 54.4001 43.5C54.2001 43.5 53.9001 43.5 53.7001 43.5C53.0001 43.5 52.4001 42.9 52.4001 42.2V22.1C52.4001 21.4 53.0001 20.8 53.7001 20.8C53.9001 20.8 54.0001 20.8 54.2001 20.8C53.6001 13.5 48.5001 2.80005 32.4001 2.80005C16.2001 2.80005 11.2001 13.5 10.6001 20.8C10.8001 20.8 11.1001 20.8 11.4001 20.8C12.1001 20.8 12.7001 21.4 12.7001 22.1V42.2C12.7001 42.9 12.1001 43.5 11.4001 43.5C5.20015 43.5 0.100098 38.4 0.100098 32.2C0.100098 27.1 3.5001 22.8 8.1001 21.4C8.5001 10.8 16.1001 0.400024 32.5001 0.400024C48.8001 0.400024 56.4001 10.7 56.9001 21.3C61.7001 22.6 65.2001 27 65.2001 32.2C65.2001 37.2999 61.8001 41.6 57.1001 43C57.2001 45.4 56.8001 50.8 52.4001 54.8C47.1001 59.6 41.3002 59.9 38.8002 59.8C38.0002 62.2001 35.9001 63.9 33.4001 63.9ZM33.4001 55.7C31.8001 55.7 30.6001 57 30.6001 58.5C30.6001 60.1 31.9001 61.3 33.4001 61.3C35.0001 61.3 36.2001 60 36.2001 58.5C36.2001 57 34.9001 55.7 33.4001 55.7ZM54.9001 23.6V41C59.1001 40.4 62.4001 36.7001 62.4001 32.3C62.4001 28.1 59.5001 24.6 55.6001 23.7C55.3001 23.7 55.1001 23.7 54.9001 23.6ZM9.30017 23.7C5.40017 24.6 2.40015 28.1 2.40015 32.3C2.40015 36.7001 5.70015 40.4 9.90015 41V23.6C9.80015 23.6 9.60017 23.6 9.30017 23.7C9.40017 23.7 9.40017 23.7 9.30017 23.7Z" fill="#8957FF"/>
<path d="M38.3003 70.9H26.2002C20.2002 70.9 15.3003 66 15.3003 60V21.2C15.3003 15.2 20.2002 10.3 26.2002 10.3H38.3003C44.3003 10.3 49.2002 15.2 49.2002 21.2V51C49.2002 51.4 48.9003 51.8 48.4003 51.8C47.9003 51.8 47.6002 51.5 47.6002 51V21.2C47.6002 16 43.4002 11.8 38.2002 11.8H26.1002C20.9002 11.8 16.7002 16 16.7002 21.2V60C16.7002 65.2 20.9002 69.4 26.1002 69.4H38.2002C43.1002 69.4 47.2002 65.6 47.6002 60.8C47.6002 60.4 48.0003 60.1 48.4003 60.1C48.8003 60.1 49.1002 60.5 49.1002 60.9C48.7002 66.5 44.0003 70.9 38.3003 70.9Z" fill="#E6E7E8"/>
<path d="M32.5002 91.3C32.1002 91.3 31.7002 91 31.7002 90.5V70.1C31.7002 69.7 32.0002 69.3 32.5002 69.3C33.0002 69.3 33.3003 69.6 33.3003 70.1V90.5C33.2003 90.9 32.9002 91.3 32.5002 91.3Z" fill="#E6E7E8"/>
<path d="M47.6 97C47.2 97 46.8 96.7 46.8 96.2C46.8 93.6 44.7 91.4 42 91.4H22.9C20.3 91.4 18.1 93.5 18.1 96.2C18.1 96.6 17.8 97 17.3 97C16.9 97 16.5 96.7 16.5 96.2C16.5 92.7 19.3 89.9 22.8 89.9H41.9C45.4 89.9 48.2 92.7 48.2 96.2C48.3 96.7 48 97 47.6 97Z" fill="#E6E7E8"/>
<path d="M27.0002 25H16.1002C15.7002 25 15.3003 24.7 15.3003 24.2C15.3003 23.7 15.6002 23.4 16.1002 23.4H27.0002C27.4002 23.4 27.8003 23.7 27.8003 24.2C27.8003 24.7 27.4002 25 27.0002 25Z" fill="#E6E7E8"/>
<path d="M27.0002 32.7H16.1002C15.7002 32.7 15.3003 32.4 15.3003 31.9C15.3003 31.5 15.6002 31.1 16.1002 31.1H27.0002C27.4002 31.1 27.8003 31.4 27.8003 31.9C27.8003 32.4 27.4002 32.7 27.0002 32.7Z" fill="#E6E7E8"/>
<path d="M27.0002 40.4H16.1002C15.7002 40.4 15.3003 40.1 15.3003 39.6C15.3003 39.2 15.6002 38.8 16.1002 38.8H27.0002C27.4002 38.8 27.8003 39.1 27.8003 39.6C27.8003 40 27.4002 40.4 27.0002 40.4Z" fill="#E6E7E8"/>
<path d="M27.0002 48H16.1002C15.7002 48 15.3003 47.7 15.3003 47.2C15.3003 46.7 15.6002 46.4 16.1002 46.4H27.0002C27.4002 46.4 27.8003 46.7 27.8003 47.2C27.8003 47.7 27.4002 48 27.0002 48Z" fill="#E6E7E8"/>
<path d="M48.5002 25H37.6002C37.2002 25 36.8003 24.7 36.8003 24.2C36.8003 23.7 37.1002 23.4 37.6002 23.4H48.5002C48.9002 23.4 49.3003 23.7 49.3003 24.2C49.3003 24.7 48.9002 25 48.5002 25Z" fill="#E6E7E8"/>
<path d="M48.5002 32.7H37.6002C37.2002 32.7 36.8003 32.4 36.8003 31.9C36.8003 31.5 37.1002 31.1 37.6002 31.1H48.5002C48.9002 31.1 49.3003 31.4 49.3003 31.9C49.3003 32.4 48.9002 32.7 48.5002 32.7Z" fill="#E6E7E8"/>
<path d="M48.5002 40.4H37.6002C37.2002 40.4 36.8003 40.1 36.8003 39.6C36.8003 39.2 37.1002 38.8 37.6002 38.8H48.5002C48.9002 38.8 49.3003 39.1 49.3003 39.6C49.3003 40 48.9002 40.4 48.5002 40.4Z" fill="#E6E7E8"/>
<path d="M39.9001 18.8C39.5001 18.8 39.1001 18.5 39.1001 18V11.2C39.1001 10.8 39.4001 10.4 39.9001 10.4C40.3001 10.4 40.7001 10.7 40.7001 11.2V18C40.7001 18.5 40.4001 18.8 39.9001 18.8Z" fill="#E6E7E8"/>
<path d="M32.3 18.8C31.9 18.8 31.5 18.5 31.5 18V10.9C31.5 10.5 31.8 10.1 32.3 10.1C32.7 10.1 33.1 10.4 33.1 10.9V18C33 18.5 32.7 18.8 32.3 18.8Z" fill="#E6E7E8"/>
<path d="M24.6002 18.8C24.2002 18.8 23.8003 18.5 23.8003 18V11.2C23.8003 10.8 24.1002 10.4 24.6002 10.4C25.1002 10.4 25.4003 10.7 25.4003 11.2V18C25.4003 18.5 25.0002 18.8 24.6002 18.8Z" fill="#E6E7E8"/>
<path d="M48.5002 48H37.6002C37.2002 48 36.8003 47.7 36.8003 47.2C36.8003 46.7 37.1002 46.4 37.6002 46.4H48.5002C48.9002 46.4 49.3003 46.7 49.3003 47.2C49.3003 47.7 48.9002 48 48.5002 48Z" fill="#E6E7E8"/>
<path d="M38.3003 70.4H26.2002C20.4002 70.4 15.8003 65.7 15.8003 60V21.2C15.8003 15.4 20.5002 10.8 26.2002 10.8H38.3003C44.1003 10.8 48.7002 15.5 48.7002 21.2V51C48.7002 51.1 48.6003 51.3 48.4003 51.3C48.3003 51.3 48.1002 51.2 48.1002 51V21.2C48.1002 15.7 43.6002 11.3 38.2002 11.3H26.1002C20.6002 11.3 16.2002 15.8 16.2002 21.2V60C16.2002 65.5 20.7002 69.9 26.1002 69.9H38.2002C43.3002 69.9 47.7002 65.9 48.1002 60.8C48.1002 60.7001 48.2003 60.6 48.4003 60.6C48.5003 60.6 48.6002 60.7 48.6002 60.9C48.3002 66.2 43.7003 70.4 38.3003 70.4Z" fill="white"/>
<path d="M32.5002 90.8C32.4002 90.8 32.2002 90.7 32.2002 90.5V70.1C32.2002 70 32.3002 69.8 32.5002 69.8C32.6002 69.8 32.8003 69.9 32.8003 70.1V90.5C32.7003 90.6 32.6002 90.8 32.5002 90.8Z" fill="white"/>
<path d="M47.6 96.5C47.5 96.5 47.3 96.4 47.3 96.2C47.3 93.3 44.9 90.9 42 90.9H22.9C20 90.9 17.6 93.3 17.6 96.2C17.6 96.3 17.5 96.5 17.3 96.5C17.2 96.5 17 96.4 17 96.2C17 93 19.6 90.4 22.8 90.4H41.9C45.1 90.4 47.7 93 47.7 96.2C47.8 96.4 47.7 96.5 47.6 96.5Z" fill="white"/>
<path d="M27.0002 24.5H16.1002C16.0002 24.5 15.8003 24.4 15.8003 24.2C15.8003 24.1 15.9002 23.9 16.1002 23.9H27.0002C27.1002 23.9 27.3003 24 27.3003 24.2C27.2003 24.4 27.1002 24.5 27.0002 24.5Z" fill="white"/>
<path d="M27.0002 32.2H16.1002C16.0002 32.2 15.8003 32.1 15.8003 31.9C15.8003 31.8 15.9002 31.6 16.1002 31.6H27.0002C27.1002 31.6 27.3003 31.7 27.3003 31.9C27.2003 32.1 27.1002 32.2 27.0002 32.2Z" fill="white"/>
<path d="M27.0002 39.9H16.1002C16.0002 39.9 15.8003 39.8 15.8003 39.6C15.8003 39.5 15.9002 39.3 16.1002 39.3H27.0002C27.1002 39.3 27.3003 39.4 27.3003 39.6C27.2003 39.7 27.1002 39.9 27.0002 39.9Z" fill="white"/>
<path d="M27.0002 47.5H16.1002C16.0002 47.5 15.8003 47.4 15.8003 47.2C15.8003 47.1 15.9002 46.9 16.1002 46.9H27.0002C27.1002 46.9 27.3003 47 27.3003 47.2C27.2003 47.4 27.1002 47.5 27.0002 47.5Z" fill="white"/>
<path d="M48.5002 24.5H37.6002C37.5002 24.5 37.3003 24.4 37.3003 24.2C37.3003 24.1 37.4002 23.9 37.6002 23.9H48.5002C48.6002 23.9 48.8003 24 48.8003 24.2C48.8003 24.4 48.6002 24.5 48.5002 24.5Z" fill="white"/>
<path d="M48.5002 32.2H37.6002C37.5002 32.2 37.3003 32.1 37.3003 31.9C37.3003 31.8 37.4002 31.6 37.6002 31.6H48.5002C48.6002 31.6 48.8003 31.7 48.8003 31.9C48.8003 32.1 48.6002 32.2 48.5002 32.2Z" fill="white"/>
<path d="M48.5002 39.9H37.6002C37.5002 39.9 37.3003 39.8 37.3003 39.6C37.3003 39.5 37.4002 39.3 37.6002 39.3H48.5002C48.6002 39.3 48.8003 39.4 48.8003 39.6C48.8003 39.7 48.6002 39.9 48.5002 39.9Z" fill="white"/>
<path d="M39.9001 18.3C39.8001 18.3 39.6001 18.2 39.6001 18V11.2C39.6001 11.1 39.7001 10.9 39.9001 10.9C40.0001 10.9 40.2001 11 40.2001 11.2V18C40.2001 18.2 40.1001 18.3 39.9001 18.3Z" fill="white"/>
<path d="M32.3 18.3C32.2 18.3 32 18.2 32 18V10.9C32 10.8 32.1 10.6 32.3 10.6C32.4 10.6 32.6 10.7 32.6 10.9V18C32.5 18.2 32.4 18.3 32.3 18.3Z" fill="white"/>
<path d="M24.6002 18.3C24.5002 18.3 24.3003 18.2 24.3003 18V11.2C24.3003 11.1 24.4002 10.9 24.6002 10.9C24.7002 10.9 24.9003 11 24.9003 11.2V18C24.9003 18.2 24.8002 18.3 24.6002 18.3Z" fill="white"/>
<path d="M48.5002 47.5H37.6002C37.5002 47.5 37.3003 47.4 37.3003 47.2C37.3003 47.1 37.4002 46.9 37.6002 46.9H48.5002C48.6002 46.9 48.8003 47 48.8003 47.2C48.8003 47.4 48.6002 47.5 48.5002 47.5Z" fill="white"/>
<path d="M11.2001 43.1C5.20007 43.1 0.400146 38.2 0.400146 32.3C0.400146 26.3 5.30007 21.5 11.2001 21.5C11.6001 21.5 12.0001 21.8 12.0001 22.3V42.4C12.0001 42.7 11.6001 43.1 11.2001 43.1ZM10.4001 23C5.60015 23.4 1.90015 27.4 1.90015 32.3C1.90015 37.2 5.70015 41.2 10.4001 41.6V23Z" fill="#B57DFF"/>
<path d="M53.6002 43.1C53.2002 43.1 52.8003 42.8 52.8003 42.3V22.2C52.8003 21.8 53.1002 21.4 53.6002 21.4C59.6002 21.4 64.4003 26.3 64.4003 32.2C64.4003 38.2 59.6002 43.1 53.6002 43.1ZM54.4003 23V41.5C59.2003 41.1 62.9003 37.1 62.9003 32.2C62.9003 27.3 59.2003 23.4 54.4003 23Z" fill="#B57DFF"/>
<path d="M55.4003 23.2C55.0003 23.2 54.6002 22.9 54.6002 22.4C54.6002 15 49.9002 2.40002 32.2002 2.40002C14.5002 2.40002 9.80029 15 9.80029 22.4C9.80029 22.8 9.50024 23.2 9.00024 23.2C8.50024 23.2 8.2002 22.9 8.2002 22.4C8.2002 11.7 15.6002 0.900024 32.1002 0.900024C48.6002 0.900024 56.0002 11.7 56.0002 22.4C56.2002 22.9 55.9003 23.2 55.4003 23.2Z" fill="#B57DFF"/>
<path d="M39.3003 59.4C38.2003 59.4 37.6002 59.3 37.5002 59.3C37.1002 59.2 36.8002 58.8 36.9002 58.4C37.0002 58 37.3003 57.7 37.8003 57.8C37.9003 57.8 44.9002 58.8 50.9002 53.4C55.8002 49 54.9002 42.3 54.9002 42.3C54.8002 41.9 55.1002 41.5 55.5002 41.4C55.9002 41.3 56.3002 41.6 56.4002 42C56.4002 42.3 57.5002 49.5 51.9002 54.5C47.1002 58.8 42.0003 59.4 39.3003 59.4Z" fill="#B57DFF"/>
<path d="M33.4001 63.4C30.7001 63.4 28.6001 61.2 28.6001 58.6C28.6001 56 30.8001 53.8 33.4001 53.8C36.1001 53.8 38.3002 56 38.3002 58.6C38.3002 61.2 36.0001 63.4 33.4001 63.4ZM33.4001 55.2C31.6001 55.2 30.1001 56.7 30.1001 58.5C30.1001 60.3 31.6001 61.8 33.4001 61.8C35.2001 61.8 36.7001 60.3 36.7001 58.5C36.7001 56.7 35.2001 55.2 33.4001 55.2Z" fill="#B57DFF"/>
<path d="M11.2001 42.6C5.50007 42.6 0.900146 38 0.900146 32.3C0.900146 26.6 5.50007 22 11.2001 22C11.3001 22 11.5001 22.1 11.5001 22.3V42.4C11.5001 42.5 11.3001 42.6 11.2001 42.6ZM10.9001 22.5C5.60015 22.6 1.40015 27 1.40015 32.3C1.40015 37.6 5.70015 42 10.9001 42.1V22.5Z" fill="#E8BAFF"/>
<path d="M53.6002 42.6C53.5002 42.6 53.3003 42.5 53.3003 42.3V22.2C53.3003 22.1 53.4002 21.9 53.6002 21.9C59.3002 21.9 63.9003 26.5 63.9003 32.2C63.9003 38 59.3002 42.6 53.6002 42.6ZM53.9003 22.5V42.1C59.2003 42 63.4003 37.6 63.4003 32.3C63.4003 27 59.2003 22.6 53.9003 22.5Z" fill="#E8BAFF"/>
<path d="M55.4003 22.7C55.3003 22.7 55.1002 22.6 55.1002 22.4C55.1002 12.2 48.0002 1.90002 32.2002 1.90002C16.4002 1.90002 9.30029 12.2 9.30029 22.4C9.30029 22.5 9.20024 22.7 9.00024 22.7C8.90024 22.7 8.7002 22.6 8.7002 22.4C8.7002 11.9 15.9002 1.40002 32.1002 1.40002C48.3002 1.40002 55.5002 11.9 55.5002 22.4C55.7002 22.6 55.6003 22.7 55.4003 22.7Z" fill="#E8BAFF"/>
<path d="M39.2001 58.9C38.2001 58.9 37.6001 58.8 37.6001 58.8C37.5001 58.8 37.4001 58.6 37.4001 58.5C37.4001 58.4 37.6001 58.3 37.7001 58.3C37.8001 58.3 45.0001 59.4 51.2001 53.8C56.3001 49.2 55.4002 42.3 55.3002 42.2C55.3002 42.1 55.4001 41.9 55.5001 41.9C55.6001 41.9 55.8002 42 55.8002 42.1C55.8002 42.2 56.8001 49.3 51.5001 54.2C46.9001 58.3 41.7001 58.9 39.2001 58.9Z" fill="#E8BAFF"/>
<path d="M33.4001 62.9C31.0001 62.9 29.1001 61 29.1001 58.6C29.1001 56.2 31.0001 54.3 33.4001 54.3C35.8001 54.3 37.7001 56.2 37.7001 58.6C37.7001 60.9 35.8001 62.9 33.4001 62.9ZM33.4001 54.7C31.3001 54.7 29.6001 56.4 29.6001 58.5C29.6001 60.6 31.3001 62.3 33.4001 62.3C35.5001 62.3 37.2001 60.6 37.2001 58.5C37.2001 56.4 35.5001 54.7 33.4001 54.7Z" fill="#E8BAFF"/>
</svg>
