<svg width="106" height="105" viewBox="0 0 106 105" fill="none" xmlns="http://www.w3.org/2000/svg">
<path d="M16 104.2C14.7 104.2 13.4 104 12.1 103.7C10.8 103.4 10.1001 102.1 10.4001 100.8L11.7 95.8C12 94.6 13.2001 93.9 14.4001 94.1L16.3001 94.4L19.6 91.1L18.4001 86.8L14.1 85.6999L10.8001 89L11.1 90.9C11.3 92.1 10.6001 93.2999 9.40006 93.6L4.40006 94.9C3.10006 95.2 1.90004 94.4999 1.50004 93.1999C0.100039 87.9999 1.60006 82.4 5.40006 78.6C9.80006 74.2 17.5001 74.8 17.8001 74.8C18.8001 74.9 20.6001 74.2 21.4001 73.5L65.7 29.1999C66.4 28.4999 66.9001 26.8 66.8001 25.8C66.7001 25.2 64.5 12.3 71 5.9C76 0.9 83.1001 -1.10005 89.9001 0.599951C90.5001 0.799951 91.0001 1.09993 91.4001 1.69993C91.7001 2.19993 91.8 2.89998 91.6 3.49998L90.1 9.30002C89.8 10.6 88.5 11.3 87.2 11L84.6 10.3L78.6 16.3L80.8001 24.5L89 26.6999L95 20.6999L94.3001 18.1C94.1001 17.5 94.2 16.8 94.5 16.3C94.8 15.8 95.3001 15.3999 95.9001 15.1999L101.7 13.6C102.3 13.4 103 13.5 103.5 13.8C104 14.1 104.4 14.6 104.6 15.3C106.3 22 104.3 29.2999 99.3001 34.1999C92.8001 40.6999 79.9001 38.5 79.3001 38.4C78.3001 38.2 76.6001 38.8 75.9001 39.5L31.6 83.8C30.8 84.6 30.2001 86.3 30.3001 87.4C30.3001 87.7 31 95.4 26.5 99.8C23.8 102.7 19.9 104.2 16 104.2ZM15.6 99.5C18.4 99.6 21.2001 98.5 23.3001 96.5C25.7001 94.1 25.8 89.5 25.7 87.9C25.5 85.5 26.6001 82.3 28.4001 80.5L72.7 36.1999C74.5 34.3999 77.7 33.4 80.2 33.8C83.2 34.3 92 34.8 96 30.9C99.2 27.7 100.8 23.2 100.4 18.8L99.4001 19.1L99.8001 20.6999C100 21.4999 99.8 22.4 99.2 23L91.3001 30.9C90.7001 31.5 89.8 31.7 89 31.5L78.1 28.6C77.3 28.4 76.7001 27.7 76.4001 26.9L73.5 16.1C73.3 15.3 73.5 14.4 74.1 13.8L82 5.9C82.6 5.3 83.5001 5.10002 84.3001 5.30002L85.9001 5.69993L86.2 4.69993C81.8 4.29993 77.4 5.89993 74.1 9.19993C70.2 13.0999 70.7 21.9 71.2 25C71.6 27.5 70.6001 30.7 68.8001 32.5L24.5 76.8C22.7 78.6 19.6 79.7 17.1 79.5C15.5 79.4 10.8 79.5 8.50004 81.9C6.50004 83.9 5.40004 86.7 5.50004 89.6L5.90006 89.5L5.69999 88.5C5.59999 87.7 5.80006 87 6.40006 86.4L11.5 81.3C12.1 80.7 13.0001 80.4999 13.8001 80.6999L20.8001 82.5C21.6001 82.7 22.3 83.3999 22.5 84.1999L24.4001 91.1999C24.6001 91.9999 24.4001 92.9 23.8001 93.5L18.7 98.6C18.2 99.1 17.4 99.4 16.6 99.3L15.6 99.1V99.5ZM41.6 46.8L11.8001 17L5.50004 15.9C4.60004 15.7 3.89999 15.1 3.69999 14.3C3.39999 13.5 3.70009 12.6 4.30009 11.9L10 6.19993C10.6 5.59993 11.5001 5.39995 12.4001 5.59995C13.2001 5.89995 13.9 6.6 14 7.4L15.1 13.6999L44.9001 43.5C45.8001 44.4 45.8001 45.9 44.9001 46.8C44.0001 47.8 42.5 47.8 41.6 46.8Z" fill="#FFC400"/>
<path d="M82.6999 102.1C78.0999 97.9 74.2 92.9999 70.5 88.1999C66.9 83.5999 63.2 78.8 58.9 75C56.5 72.9 55.1 70.3 55 67.5C54.9 64.9 55.9 62.5 57.9 60.5C59.9 58.5 62.4 57.5 64.9 57.6C67.7 57.7 70.4 59.1 72.4 61.5C76.3 65.7 81 69.4 85.6 73C90.4 76.7 95.3 80.5 99.4 85.1C103.5 89.9 102.2 97.3 98.4 101.1C95 104.9 87.4999 106.2 82.6999 102.1ZM61.4 63.8C60.3 64.9 59.8 66 59.9 67.3C60 68.8 60.7999 70.2 62.1999 71.4C66.7999 75.6 70.7 80.5 74.4 85.3C78 89.9 81.7 94.7 86 98.5C88 100.2 91.2 100.1 93.6 99.1L91.6999 97.1999C90.7999 96.2999 90.7999 94.8 91.6999 93.9C92.5999 93 94.1 93 95 93.9L96.9 95.8C98 93.4 98 90.1999 96.3 88.1999C92.4 83.8999 87.7 80.1999 83.1 76.6999C78.3 72.9999 73.4 69.2 69.3 64.6C68 63.1 66.6 62.3 65.1 62.3C63.6 62.1 62.4 62.8 61.4 63.8Z" fill="#8957FF"/>
<path d="M83.2999 101.4C78.6999 97.3001 74.8999 92.4 71.2999 87.7C67.6999 83.1 63.9998 78.3001 59.5998 74.3001C57.3998 72.4001 56.0998 70 56.0998 67.5C55.9998 65.2 56.8998 63 58.6998 61.2C62.4998 57.4 68.1998 57.9 71.8998 62.1C75.7998 66.4 80.5998 70.1 85.1998 73.7C89.8998 77.4 94.7998 81.2 98.8998 85.7C102.6 90 101.5 97 97.9998 100.5C94.3998 104.1 87.3999 104.9 83.2999 101.4ZM64.7999 61.3001C63.3999 61.3001 61.9999 61.9 60.7999 63.1C59.5999 64.3 58.8998 65.8001 58.9998 67.3001C59.0998 69.0001 59.9998 70.7 61.5998 72.1C66.1998 76.2 69.9998 81.1001 73.5998 85.8001C77.1998 90.4001 80.8999 95.2 85.2999 99.2C87.8999 101.5 93.4998 101 96.1998 98.4001C98.6998 95.9001 99.5998 90.6 96.9998 87.5C93.0998 83.2 88.2998 79.5001 83.6998 75.8001C78.9998 72.1001 74.0998 68.3001 69.9998 63.8001C68.2998 62.2001 66.4999 61.3001 64.7999 61.3001Z" fill="#B57DFF"/>
<path d="M97.1 100.9C96.7 100.9 96.4 100.8 96.1 100.5L92.2 96.6C91.6 96 91.6 95.2 92.2 94.6C92.8 94 93.6 94 94.2 94.6L98.1 98.5C98.7 99.1 98.7 99.9 98.1 100.5C97.8 100.7 97.4 100.9 97.1 100.9Z" fill="#B57DFF"/>
<path d="M84.0002 100.7C79.5002 96.6 75.7001 91.8 72.1001 87.1C68.5001 82.4 64.7002 77.6 60.3002 73.6C58.3002 71.9 57.1001 69.7 57.1001 67.4C57.0001 65.4 57.8002 63.4 59.5002 61.8C61.1002 60.2 62.9002 59.4 64.9002 59.4C67.2002 59.4 69.5002 60.6 71.3002 62.6C75.3002 67 80.1002 70.7 84.8002 74.4C89.5002 78.1 94.4002 81.8 98.4002 86.3C101.7 90.2 100.7 96.6 97.5002 99.8C94.0002 103.2 87.6002 103.8 84.0002 100.7ZM64.8002 60.4C63.1002 60.4 61.5001 61.1 60.1001 62.5C58.7001 63.9 57.9002 65.6 58.0002 67.4C58.1002 69.4 59.1002 71.3 60.9002 72.9C65.4002 77 69.2002 81.8 72.8002 86.5C76.4002 91.2 80.2001 96 84.6001 100C87.9001 102.8 93.7002 102.2 96.8002 99.2C99.7002 96.2999 100.6 90.5 97.6001 87C93.6001 82.6 88.8001 78.8 84.1001 75.2C79.4001 71.5 74.6002 67.8 70.5002 63.3C68.8002 61.4 66.8002 60.4 64.8002 60.4Z" fill="#E8BAFF"/>
<path d="M97.1 99.9C97 99.9 96.9 99.9 96.8 99.8L92.9 95.9C92.7 95.7 92.7 95.3999 92.9 95.1999C93.1 94.9999 93.4 94.9999 93.6 95.1999L97.5 99.1C97.7 99.3 97.7 99.6 97.5 99.8C97.3 99.9 97.2 99.9 97.1 99.9Z" fill="#E8BAFF"/>
<path d="M16.0001 103.3C14.8001 103.3 13.5002 103.1 12.3002 102.8C11.5002 102.6 11.1002 101.8 11.3002 101.1L12.6001 96.1C12.8001 95.4 13.5001 95 14.2001 95.1L16.6001 95.5L20.6001 91.5L19.2001 86.1L13.8002 84.6999L9.8002 88.6999L10.2001 91.1C10.3001 91.7999 9.9001 92.4999 9.2001 92.6999L4.2001 94C3.5001 94.2 2.70015 93.8 2.50015 93C1.20015 88.1 2.60012 82.9 6.10012 79.3C9.20012 76.2 13.9001 75.8 16.5001 75.8C17.3001 75.8 17.8002 75.8 17.8002 75.8C19.4002 75.8 21.2001 75.0999 22.1001 74.1999L66.4002 29.9C67.3002 29 68.0001 26.9999 67.7001 25.6999C67.6001 25.1999 65.5001 12.7 71.7001 6.59996C76.4001 1.89996 83.3001 -4.43459e-05 89.7001 1.59996C90.1001 1.69996 90.4001 1.90003 90.6001 2.30003C90.8001 2.60003 90.8001 3 90.7001 3.4L89.2001 9.19993C89.0001 9.99993 88.2001 10.3999 87.5001 10.1999L84.4002 9.4L77.6001 16.1999L80.1001 25.5L89.4002 28L96.2001 21.1999L95.4002 18.1C95.3002 17.7 95.4001 17.4 95.5001 17C95.7001 16.7 96.0002 16.4 96.4002 16.3L102.2 14.6999C102.6 14.5999 103 14.7 103.3 14.8C103.6 15 103.9 15.2999 104 15.6999C105.6 22.0999 103.7 28.9999 99.0001 33.6999C92.7001 39.9999 80.1002 37.6999 79.9002 37.6999C78.5002 37.3999 76.6001 38.1 75.7001 39L31.4002 83.3C30.4002 84.3 29.7002 86.2999 29.8002 87.6C29.8002 87.9 30.4002 95.0999 26.3002 99.1999C23.3002 101.8 19.8001 103.3 16.0001 103.3ZM14.4002 100.3C17.9002 100.8 21.4002 99.6 23.9002 97.1C27.1002 93.9 26.6001 87.7999 26.6001 87.6999C26.4001 85.5999 27.5001 82.7 29.0001 81.1L73.3002 36.8C74.9002 35.2 77.8001 34.2999 80.0001 34.6999C80.0001 34.6999 91.5001 36.7 96.6001 31.5C100.3 27.8 101.9 22.6 101.2 17.6L98.2001 18.4L98.9002 20.9C99.0002 21.4 98.9001 21.9 98.5001 22.3L90.6001 30.1999C90.2001 30.5999 89.7001 30.7 89.2001 30.6L78.3002 27.6999C77.8002 27.5999 77.4002 27.1999 77.3002 26.6999L74.4002 15.9C74.3002 15.4 74.4002 14.9 74.8002 14.5L82.7001 6.59996C83.0001 6.19996 83.6001 6.09993 84.1001 6.19993L86.6001 6.9L87.4002 3.9C82.3002 3.1 77.2001 4.79998 73.5001 8.49998C68.4001 13.6 70.3002 25 70.3002 25.1C70.7002 27.3 69.8001 30.2 68.2001 31.8L23.9002 76.1C22.4002 77.6 19.4002 78.7 17.3002 78.5C17.3002 78.5 16.9002 78.5 16.3002 78.5C14.6002 78.5 10.4002 78.7999 7.90017 81.1999C5.40017 83.6999 4.2001 87.2999 4.7001 90.6999L7.00015 90.1L6.7001 88.3C6.6001 87.9 6.80012 87.4 7.10012 87.1L12.2001 82C12.6001 81.6 13.1001 81.5 13.6001 81.6L20.6001 83.4C21.1001 83.5 21.5001 83.9 21.6001 84.4L23.5001 91.4C23.6001 91.9 23.5001 92.4 23.1001 92.8L18.0001 97.9C17.7001 98.2 17.2002 98.4 16.8002 98.3L15.0001 98L14.4002 100.3Z" fill="#FFEC4A"/>
<path d="M42.3 46.2L10.7 14.6C10.2 14 10.2 13.2 10.7 12.6C11.3 12 12.2 12 12.7 12.6L44.3 44.2C44.8 44.8 44.8 45.7 44.3 46.2C43.7001 46.7 42.8 46.7 42.3 46.2Z" fill="#FFEC4A"/>
<path d="M13 16.3001C12.9 16.3001 12.7999 16.3001 12.6999 16.3001L5.69992 15C5.19992 14.9 4.79994 14.5 4.59994 14C4.39994 13.5 4.59997 13 4.99997 12.6L10.6999 6.90004C11.0999 6.50004 11.5999 6.39999 12.0999 6.59999C12.5999 6.79999 12.9999 7.19996 13.0999 7.69996L14.3 14.3001C14.4 14.5001 14.5 14.7 14.5 15C14.5 15.6 13.8 16.3001 13 16.3001ZM8.89999 12.7L11.1999 13.1L10.8 10.8001L8.89999 12.7Z" fill="#FFEC4A"/>
<path d="M16 102.3C14.8 102.3 13.7 102.2 12.5 101.8C12.2 101.7 12.0999 101.5 12.1999 101.2L13.5 96.2C13.6 96 13.8 95.8 14 95.9L16.8 96.4L21.5 91.7L19.8 85.2L13.4 83.5L8.69993 88.2L9.19993 91C9.19993 91.2 9.1 91.5 8.9 91.5L3.9 92.8C3.6 92.9 3.40003 92.7 3.30003 92.5C2.10003 87.9 3.39993 83.1001 6.69993 79.8C9.49993 77 14 76.5 16.4 76.5C17.1 76.5 17.6 76.5 17.6 76.5C19.2 76.6 21.5999 75.8 22.6999 74.6L67 30.3C68.1 29.2 68.9 26.9 68.6 25.3C68.5 24.8 66.5 12.8 72.3 7C75.7 3.6 80.2999 1.69995 85.1 1.69995C86.6 1.69995 88 1.89995 89.4 2.19995C89.5 2.19995 89.5999 2.30002 89.6999 2.40002C89.7999 2.50002 89.8 2.60005 89.8 2.80005L88.3 8.59998C88.2 8.89998 87.9999 9.00002 87.6999 8.90002L84.1 7.90002L76.5 15.5L79.3 25.8L89.6 28.6L97.1999 21.1L96.1999 17.5C96.1999 17.4 96.1999 17.2 96.1999 17.1C96.2999 17 96.4 16.9 96.5 16.9L102.3 15.3C102.4 15.3 102.6 15.3 102.7 15.3C102.8 15.4 102.9 15.5 102.9 15.6C104.4 21.7 102.6 28.3 98.1 32.7C93.7 37.1 84.8 37.3 79.8 36.4C78.1 36.1 75.9 36.9 74.8 38L30.5 82.3C29.3 83.5 28.5 85.8 28.6 87.4C28.6 87.7 29.2 94.5 25.4 98.3C22.8 101 19.5 102.3 16 102.3ZM13.3 101.1C14.2 101.3 15.1 101.4 16.1 101.4C19.4 101.4 22.3999 100.1 24.6999 97.8C28.1999 94.3 27.7 87.7 27.6 87.7C27.4 85.7999 28.3999 83.2 29.6999 81.9L74 37.6C75.3 36.3 78 35.4 79.9 35.8C81.3 36.1 92.2 37.5 97.4 32.4C101.5 28.3 103.3 22.3 102 16.6L97.1 17.9L98 21.3C98 21.5 98 21.6 97.9 21.8L90 29.7C89.9 29.8 89.7 29.9 89.5 29.8L78.6 26.9C78.4 26.9 78.3 26.7 78.3 26.6L75.4 15.8C75.4 15.6 75.4 15.5 75.5 15.3L83.4 7.40002C83.5 7.30002 83.7 7.20005 83.9 7.30005L87.3 8.19995L88.6 3.30005C87.4 3.00005 86.2 2.90002 85 2.90002C80.4 2.90002 76.1 4.7 72.9 8C67.4 13.5 69.4 25.3 69.5 25.4C69.8 27.3 68.9999 29.9 67.6999 31.3L23.4 75.6C22.1 76.9 19.4 77.8999 17.6 77.7C17.6 77.7 17.2 77.7 16.5 77.7C14.7 77.7 10.1 78 7.4 80.7C4.4 83.7 3.19995 88 4.09995 92.1L8.30003 91L7.80003 88.3C7.80003 88.2001 7.8 88 7.9 87.9L13 82.8C13.1 82.7001 13.3 82.6 13.5 82.7L20.5 84.5C20.7 84.5 20.8 84.7001 20.8 84.8L22.6999 91.8C22.6999 92 22.7 92.1001 22.6 92.3L17.5 97.4C17.4 97.5 17.2 97.6 17.1 97.5L14.4 97.1L13.3 101.1Z" fill="white"/>
<path d="M43 45.5L11.4 13.9C11.2 13.7 11.2 13.3999 11.4 13.1999C11.6 12.9999 11.9 12.9999 12.1 13.1999L43.6999 44.8C43.8999 45 43.8999 45.3 43.6999 45.5C43.3999 45.7 43.1 45.7 43 45.5Z" fill="white"/>
<path d="M12.9999 15.3001C12.8999 15.3001 12.8999 15.3001 12.9999 15.3001L5.89995 14C5.69995 14 5.59992 13.8 5.49992 13.7C5.39992 13.5 5.4999 13.3 5.5999 13.2L11.3 7.50004C11.4 7.40004 11.6 7.30007 11.8 7.40007C12 7.50007 12.0999 7.60009 12.0999 7.80009L13.3999 14.6C13.3999 14.7 13.4999 14.7001 13.4999 14.8001C13.4999 15.1001 13.2999 15.3001 12.9999 15.3001ZM6.99992 13.3001L12.3999 14.3001L11.3999 8.90007L6.99992 13.3001Z" fill="white"/>
</svg>
