<svg width="122" height="102" viewBox="0 0 122 102" fill="none" xmlns="http://www.w3.org/2000/svg">
<path d="M2.3 2L2 99.2" stroke="#C200FF" stroke-width="3.3854" stroke-miterlimit="10" stroke-linecap="round"/>
<path d="M2.3 2L2 99.2" stroke="#F0C2FF" stroke-miterlimit="10" stroke-linecap="round"/>
<path d="M119.5 99.5H2" stroke="#C200FF" stroke-width="3.3854" stroke-miterlimit="10" stroke-linecap="round"/>
<path d="M1.6001 99.4L118.5 99.8" stroke="#F0C2FF" stroke-miterlimit="10" stroke-linecap="round"/>
<path d="M8.40015 69.7L24.7001 86" stroke="#C200FF" stroke-width="3.3854" stroke-miterlimit="10" stroke-linecap="round"/>
<path d="M47.7002 44.7L24.7002 86" stroke="#C200FF" stroke-width="3.3854" stroke-miterlimit="10" stroke-linecap="round"/>
<path d="M70.0002 84.6L47.7002 44.7" stroke="#C200FF" stroke-width="3.3854" stroke-miterlimit="10" stroke-linecap="round"/>
<path d="M105.9 15.5L70 84.6" stroke="#C200FF" stroke-width="3.3854" stroke-miterlimit="10" stroke-linecap="round"/>
<path d="M47.1002 50C49.5303 50 51.5002 48.03 51.5002 45.6C51.5002 43.1699 49.5303 41.2 47.1002 41.2C44.6702 41.2 42.7002 43.1699 42.7002 45.6C42.7002 48.03 44.6702 50 47.1002 50Z" fill="#F3A300"/>
<path d="M70.1002 89.2C72.5303 89.2 74.5002 87.2301 74.5002 84.8C74.5002 82.37 72.5303 80.4 70.1002 80.4C67.6702 80.4 65.7002 82.37 65.7002 84.8C65.7002 87.2301 67.6702 89.2 70.1002 89.2Z" fill="#F3A300"/>
<path d="M106 19.5C108.43 19.5 110.4 17.53 110.4 15.1C110.4 12.6699 108.43 10.7 106 10.7C103.57 10.7 101.6 12.6699 101.6 15.1C101.6 17.53 103.57 19.5 106 19.5Z" fill="#F3A300"/>
<path d="M24.0001 89.9C26.4301 89.9 28.4001 87.9301 28.4001 85.5C28.4001 83.0699 26.4301 81.1 24.0001 81.1C21.57 81.1 19.6001 83.0699 19.6001 85.5C19.6001 87.9301 21.57 89.9 24.0001 89.9Z" fill="#F3A300"/>
<path d="M8.50009 74.3C10.9301 74.3 12.9001 72.3301 12.9001 69.9C12.9001 67.47 10.9301 65.5 8.50009 65.5C6.07004 65.5 4.1001 67.47 4.1001 69.9C4.1001 72.3301 6.07004 74.3 8.50009 74.3Z" fill="#F3A300"/>
</svg>
