<svg width="98" height="120" viewBox="0 0 98 120" fill="none" xmlns="http://www.w3.org/2000/svg">
<path d="M92.2999 44.3L69.5999 30.8C68.5999 30.2 68.4999 28.8999 69.2999 28.0999L72 25.4C74.8 22.6 79.1 22.0999 82.4 24.0999L92.0999 29.8C95.4999 31.8 97 35.7999 96 39.5999L94.9 43.1999C94.5 44.2999 93.2999 44.8 92.2999 44.3Z" stroke="#E80088" stroke-width="2.5493" stroke-miterlimit="10" stroke-linecap="round" stroke-linejoin="round"/>
<path d="M92.0001 22.6999C92.6001 21.6999 92.3001 20.4 91.2001 19.8C90.2001 19.2 88.9 19.5 88.3 20.6L92.0001 22.6999Z" stroke="#E80088" stroke-width="2.5493" stroke-miterlimit="10" stroke-linecap="round" stroke-linejoin="round"/>
<path d="M5.70006 44.3L28.4001 30.8C29.4001 30.2 29.5001 28.8999 28.7001 28.0999L26 25.4C23.2 22.6 18.9 22.0999 15.6 24.0999L5.90007 29.8C2.50007 31.8 1.00005 35.7999 2.00005 39.5999L3.10002 43.1999C3.50002 44.2999 4.80006 44.8 5.70006 44.3Z" stroke="#E80088" stroke-width="2.5493" stroke-miterlimit="10" stroke-linecap="round" stroke-linejoin="round"/>
<path d="M6.10018 22.6999C5.50018 21.6999 5.80023 20.4 6.90023 19.8C7.90023 19.2 9.2002 19.5 9.8002 20.6L6.10018 22.6999Z" stroke="#E80088" stroke-width="2.5493" stroke-miterlimit="10" stroke-linecap="round" stroke-linejoin="round"/>
<path d="M4.5 26.9L15.3 20.4L20.2 9.19995C20.7 8.09995 21.5 7.30005 22.5 6.80005C28.5 3.90005 38.2 2.09998 49 2.09998C59.8 2.09998 69.5 4.00005 75.5 6.80005C76.5 7.30005 77.4 8.19995 77.8 9.19995L82.7 20.4L93.5 26.9" stroke="#E80088" stroke-width="2.5493" stroke-miterlimit="10" stroke-linecap="round" stroke-linejoin="round"/>
<path d="M14.5002 102.3C22.9002 111.9 35.3002 118 49.1002 118C62.9002 118 75.3003 111.9 83.7003 102.3" stroke="#E80088" stroke-width="2.5493" stroke-miterlimit="10" stroke-linecap="round" stroke-linejoin="round"/>
<path d="M64.7003 29.1C59.8003 27.3 54.5003 26.3 49.0003 26.3C43.5003 26.3 38.2003 27.3 33.3003 29.1" stroke="#E80088" stroke-width="2.5493" stroke-miterlimit="10" stroke-linecap="round" stroke-linejoin="round"/>
<path d="M94.9003 72.8C94.9003 72.6 94.9003 72.4 94.9003 72.1C94.9003 63.1 92.3003 54.7 87.8003 47.6" stroke="#E80088" stroke-width="2.5493" stroke-miterlimit="10" stroke-linecap="round" stroke-linejoin="round"/>
<path d="M10.3002 47.6C5.80017 54.7 3.2002 63.1 3.2002 72.1C3.2002 72.3 3.2002 72.5 3.2002 72.8" stroke="#E80088" stroke-width="2.5493" stroke-miterlimit="10" stroke-linecap="round" stroke-linejoin="round"/>
<path d="M20.7002 102.3C28.1002 109.2 38.0002 113.5 49.0002 113.5C60.0002 113.5 69.9002 109.2 77.3002 102.3" stroke="#E80088" stroke-width="2.5493" stroke-miterlimit="10" stroke-linecap="round" stroke-linejoin="round"/>
<path d="M90.3002 72.8C90.3002 72.6 90.3002 72.4 90.3002 72.1C90.3002 49.3 71.8002 30.8 49.0002 30.8C26.2002 30.8 7.7002 49.3 7.7002 72.1C7.7002 72.3 7.7002 72.5 7.7002 72.8" stroke="#E80088" stroke-width="2.5493" stroke-miterlimit="10" stroke-linecap="round" stroke-linejoin="round"/>
<path d="M17.1 99.1L18.9 88.6H8.29999L6.5 99.1H2L6.29999 74.9H10.7L9 84.4H19.6L21.3 74.9H25.7L21.4 99.1H17.1Z" stroke="#8648FF" stroke-width="2.5493" stroke-miterlimit="10" stroke-linecap="round" stroke-linejoin="round"/>
<path d="M27.3999 89.1C27.3999 80.6 33.6999 74.3 41.1999 74.3C47.0999 74.3 50.8999 78.2 50.8999 84.7C50.8999 93.2 44.5999 99.5 37.0999 99.5C31.1999 99.6 27.3999 95.6 27.3999 89.1ZM32.2999 88.8C32.2999 92.8 33.9999 95.3 37.7999 95.3C42.9999 95.3 45.9999 90.5 45.9999 85.2C45.9999 81.2 44.2999 78.7 40.4999 78.7C35.2999 78.6 32.2999 83.5 32.2999 88.8Z" stroke="#8648FF" stroke-width="2.5493" stroke-miterlimit="10" stroke-linecap="round" stroke-linejoin="round"/>
<path d="M53.8 91.7C53.8 90.9 53.9 89.8 54.1 88.7L56.6 74.9H61.0001L58.8 87.3C58.6 88.7 58.5001 89.7 58.5001 90.7C58.5001 93.5 59.5 95.4 62.6 95.4C66.9 95.4 68.5001 91.8 69.2001 87.3L71.4001 74.9H75.8L73.3 88.7C72.1 95.3 68.3 99.6 61.8 99.6C56.4 99.6 53.8 96.6 53.8 91.7Z" stroke="#8648FF" stroke-width="2.5493" stroke-miterlimit="10" stroke-linecap="round" stroke-linejoin="round"/>
<path d="M90.0001 99.1L86.8001 90.1H82.6001L81.0001 99.1H76.6001L80.9001 74.9H89.6001C93.7001 74.9 96.5001 76.4 96.5001 80.8C96.5001 85 93.9001 87.4 91.2001 89L94.7001 99.2H90.0001V99.1ZM84.6001 78.5L83.3001 85.9H86.1001C90.2001 85.9 91.7001 84.3 91.7001 81.4C91.7001 79.6 91.1001 78.5 87.8001 78.5H84.6001Z" stroke="#8648FF" stroke-width="2.5493" stroke-miterlimit="10" stroke-linecap="round" stroke-linejoin="round"/>
<path d="M37.4001 59.9L40.5001 51.2L42.0001 47C42.1001 46.8 42.1001 46.6 41.9001 46.5C41.8001 46.3 41.6001 46.2 41.4001 46.2C41.3001 46.2 41.2001 46.2 41.1001 46.3C41.0001 46.4 40.9001 46.5 40.9001 46.6C40.9001 46.7 40.8001 46.9 40.6001 47.4C40.4001 47.8 40.2001 48.6 39.8001 49.7L39.4001 50.9C38.9001 52.2 38.3001 53.8 37.6001 55.9L37.2001 57.1H29.9001L30.2001 56C30.7001 54.5 31.1001 53.2 31.5001 52.3C31.8001 51.3 32.2001 50.4 32.7001 49.6C33.1001 48.8 33.8001 48.1 34.9001 47.5C35.1001 47.4 35.2001 47.2 35.2001 47C35.2001 46.9 35.1001 46.7 35.0001 46.6C34.9001 46.5 34.7001 46.4 34.6001 46.4C34.5001 46.4 34.4001 46.4 34.3001 46.5C33.7001 46.8 33.1001 47.3 32.5001 47.9C31.6001 47.7 30.3001 47.4 28.7001 46.9C27.5001 46.5 26.4001 46.2 25.6001 46.1C24.8001 45.9 23.9001 45.8 22.9001 45.8C22.1001 45.8 21.3001 46 20.5001 46.5C19.7001 47 19.1001 47.6 18.7001 48.3C18.2001 49.1 18.0001 49.9 18.0001 50.8C18.0001 52 18.4001 53 19.2001 53.8C20.0001 54.6 21.1001 54.9 22.4001 54.9C23.4001 54.9 24.5001 54.7 25.5001 54.2C25.7001 54.1 25.8001 53.9 25.8001 53.7C25.8001 53.6 25.8001 53.4 25.7001 53.3C25.6001 53.2 25.5001 53.1 25.3001 53.1C25.2001 53.1 25.1001 53.1 25.0001 53.2C24.1001 53.6 23.2001 53.8 22.4001 53.8C21.4001 53.8 20.6001 53.6 20.0001 53.1C19.4001 52.6 19.1001 51.8 19.1001 50.8C19.1001 50.2 19.3001 49.6 19.6001 49C20.0001 48.4 20.4001 48 21.0001 47.6C21.6001 47.2 22.2001 47.1 22.8001 47.1C23.6001 47.1 24.5001 47.2 25.2001 47.4C26.0001 47.6 27.0001 47.9 28.2001 48.2C29.7001 48.7 30.9001 49 31.6001 49.1L31.5001 49.3C31.0001 50.2 30.6001 51.1 30.2001 52.1C29.8001 53.1 29.4001 54.4 28.9001 55.9L28.4001 57.4H27.0001C26.8001 57.4 26.7001 57.5 26.6001 57.6C26.5001 57.7 26.4001 57.9 26.4001 58C26.4001 58.2 26.5001 58.3 26.6001 58.4C26.7001 58.5 26.9001 58.6 27.0001 58.6H28.2001L27.9001 59.4C27.3001 61.2 26.8001 62.6 26.3001 63.6C25.8001 64.6 25.2001 65.5 24.3001 66.2C23.5001 66.9 22.4001 67.3 21.2001 67.3C20.0001 67.3 19.1001 66.9 18.4001 66.2C17.7001 65.5 17.4001 64.6 17.4001 63.4C17.4001 62.5 17.6001 61.7 18.1001 61C18.6001 60.3 19.2001 59.7 19.9001 59.3C20.7001 58.9 21.5001 58.7 22.3001 58.7C22.5001 58.7 22.6001 58.6 22.7001 58.5C22.8001 58.4 22.9001 58.2 22.9001 58.1C22.9001 57.9 22.8001 57.8 22.7001 57.7C22.6001 57.6 22.4001 57.5 22.3001 57.5C21.2001 57.5 20.3001 57.8 19.3001 58.3C18.4001 58.8 17.6001 59.5 17.0001 60.4C16.4001 61.3 16.1001 62.3 16.1001 63.4C16.1001 64.9 16.5001 66.1 17.4001 67.1C18.3001 68.1 19.5001 68.5 21.0001 68.5C22.5001 68.5 23.8001 68.1 24.8001 67.3C25.8001 66.5 26.5001 65.6 27.1001 64.4C27.6001 63.3 28.2001 61.7 28.9001 59.8L29.3001 58.7H36.6001L36.1001 60C35.1001 62.6 34.4001 64.6 34.0001 65.9C33.6001 67.3 33.3001 68.4 33.3001 69.2C33.3001 70.3 33.6001 71.2 34.1001 71.9C34.6001 72.6 35.4001 72.9 36.4001 72.9C36.6001 72.9 36.7001 72.8 36.8001 72.7C36.9001 72.6 37.0001 72.4 37.0001 72.3C37.0001 72.1 36.9001 72 36.8001 71.9C36.7001 71.8 36.5001 71.7 36.4001 71.7C35.7001 71.7 35.3001 71.5 34.9001 71.1C34.6001 70.7 34.4001 70.1 34.4001 69.4C34.4001 68.7 34.6001 67.8 35.0001 66.5C35.7001 64.7 36.4001 62.7 37.4001 59.9Z" stroke="#00AAEB" stroke-width="1.2746" stroke-miterlimit="10"/>
<path d="M85.1001 59.7C85.0001 59.7 84.9001 59.6 84.8001 59.6C84.6001 59.6 84.4001 59.7 84.3001 60C83.5001 61.8 82.6001 63.3 81.6001 64.5C80.5001 65.7 79.2001 66.5 77.7001 67.1L78.1001 65.9L80.4001 59.5C81.0001 57.9 81.7001 56.1 82.5001 53.9C82.6001 53.7 82.5001 53.5 82.4001 53.3C82.3001 53.1 82.1001 53 81.9001 53C81.8001 53 81.7001 53 81.6001 53.1C81.5001 53.2 81.4001 53.3 81.4001 53.4C80.9001 54.8 80.5001 55.9 80.1001 56.7C79.7001 57.7 79.4001 58.5 79.3001 59C78.7001 60.7 78.0001 62.2 77.2001 63.4C76.4001 64.6 75.6001 65.2 74.9001 65.2C73.7001 65.2 73.0001 64.6 73.0001 63.4C73.0001 63.1 73.1001 62.7 73.2001 62.3C73.3001 61.9 73.6001 61.3 73.9001 60.4L74.7001 58.1L76.3001 53.8C76.4001 53.6 76.4001 53.4 76.2001 53.3C76.1001 53.1 75.9001 53 75.7001 53C75.6001 53 75.5001 53 75.4001 53.1C75.3001 53.2 75.2001 53.3 75.2001 53.4L73.6001 57.7L73.3001 58.6C72.9001 59.6 72.6001 60.4 72.4001 61C72.2001 61.5 71.9001 62 71.5001 62.4C70.9001 63.1 70.2001 63.5 69.5001 63.5C69.0001 63.5 68.5001 63.3 68.2001 62.9C68.7001 62.1 69.2001 61 69.7001 59.7C70.2001 58.4 70.4001 57.2 70.4001 56.3C70.4001 55.3 70.2001 54.6 69.8001 54C69.4001 53.4 68.8001 53.1 68.0001 53.1C67.1001 53.1 66.1001 53.6 65.3001 54.5L65.5001 53.9C65.6001 53.7 65.6001 53.5 65.4001 53.4C65.3001 53.2 65.1001 53.1 64.9001 53.1C64.6001 53.1 64.4001 53.2 64.3001 53.5L64.1001 54L62.4001 58.7L61.4001 61.6C61.2001 61.9 61.0001 62.2 60.7001 62.5C60.1001 63.2 59.4001 63.6 58.7001 63.6C58.2001 63.6 57.7001 63.4 57.4001 63C57.9001 62.2 58.4001 61.1 58.9001 59.8C59.4001 58.5 59.6001 57.3 59.6001 56.4C59.6001 55.4 59.4001 54.7 59.0001 54.1C58.6001 53.5 58.0001 53.2 57.2001 53.2C56.3001 53.2 55.3001 53.7 54.5001 54.6L54.7001 54C54.8001 53.8 54.8001 53.6 54.6001 53.5C54.5001 53.3 54.3001 53.2 54.1001 53.2C53.8001 53.2 53.6001 53.3 53.5001 53.6L53.3001 54.1L51.6001 58.8L50.7001 61.4C50.2001 62.5 49.7001 63.4 49.2001 64.1C48.6001 65 47.9001 65.5 47.1001 65.5C46.8001 65.5 46.6001 65.4 46.4001 65.2C46.3001 65 46.2001 64.7 46.2001 64.3C46.2001 63.8 46.3001 63.1 46.6001 62.3C46.9001 61.5 47.3001 60.2 47.8001 58.6L48.1001 57.7L49.5001 53.9C49.6001 53.7 49.6001 53.6 49.5001 53.4C49.4001 53.2 49.2001 53.1 49.0001 53.1C48.9001 53.1 48.7001 53.1 48.6001 53.2C48.5001 53.3 48.4001 53.4 48.4001 53.5L47.9001 54.8C47.4001 53.8 46.6001 53.3 45.3001 53.3C44.2001 53.3 43.2001 53.9 42.3001 55C41.3001 56.2 40.6001 57.6 40.0001 59.2C39.4001 60.8 39.1001 62.3 39.1001 63.6C39.1001 64.5 39.3001 65.2 39.7001 65.8C40.1001 66.4 40.7001 66.6 41.4001 66.6C42.6001 66.6 43.8001 65.8 44.9001 64.2C44.9001 64.9 45.1001 65.5 45.4001 65.9C45.7001 66.3 46.3001 66.6 46.9001 66.6C47.6001 66.6 48.2001 66.4 48.8001 65.9L46.4001 72.7C46.3001 72.9 46.3001 73.1 46.5001 73.2C46.6001 73.4 46.8001 73.5 47.0001 73.5C47.3001 73.5 47.5001 73.4 47.6001 73.1C47.8001 72.5 48.7001 70 50.3001 65.5C50.6001 66.3 51.3001 66.7 52.4001 66.7C53.9001 66.7 55.2001 65.8 56.5001 64.1C56.7001 64.3 57.0001 64.5 57.3001 64.6C57.6001 64.7 58.0001 64.8 58.4001 64.8C59.0001 64.8 59.5001 64.6 60.1001 64.3L57.1001 72.7C57.0001 72.9 57.0001 73.1 57.2001 73.2C57.3001 73.4 57.5001 73.5 57.7001 73.5C58.0001 73.5 58.2001 73.4 58.3001 73.1C58.5001 72.5 59.4001 70 61.0001 65.5C61.3001 66.3 62.0001 66.7 63.1001 66.7C64.6001 66.7 65.9001 65.8 67.2001 64.1C67.4001 64.3 67.7001 64.5 68.0001 64.6C68.3001 64.7 68.7001 64.8 69.1001 64.8C69.9001 64.8 70.7001 64.5 71.5001 63.8C71.5001 64.5 71.8001 65.2 72.2001 65.7C72.7001 66.3 73.5001 66.6 74.6001 66.6C75.4001 66.6 76.1001 66.3 76.7001 65.6L76.0001 67.6C75.4001 67.8 74.6001 67.9 73.8001 68.1C70.6001 68.7 69.0001 69.9 69.0001 71.8C69.0001 72.6 69.2001 73.3 69.7001 73.8C70.2001 74.3 70.9001 74.5 71.7001 74.5C72.7001 74.5 73.7001 74 74.5001 73C75.4001 72 76.2001 70.5 76.9001 68.6C78.9001 68 80.5001 67.1 81.8001 65.8C83.1001 64.5 84.2001 62.8 85.1001 60.6C85.1001 60.5 85.2001 60.4 85.2001 60.3C85.5001 60 85.4001 59.8 85.1001 59.7ZM45.1001 61.6C44.6001 62.6 44.1001 63.4 43.5001 64.1C42.9001 64.8 42.2001 65.2 41.5001 65.2C41.1001 65.2 40.8001 65 40.7001 64.7C40.5001 64.3 40.4001 63.8 40.4001 63.2C40.4001 62.2 40.7001 61 41.2001 59.6C41.7001 58.2 42.3001 56.9 43.1001 55.9C43.9001 54.8 44.7001 54.3 45.5001 54.3C46.0001 54.3 46.4001 54.5 46.8001 54.9C47.1001 55.3 47.3001 55.8 47.3001 56.4L46.6001 58.2C46.1001 59.5 45.6001 60.7 45.1001 61.6ZM56.9001 59.9C56.8001 59.7 56.6001 59.7 56.4001 59.7C56.3001 59.7 56.1001 59.7 56.0001 59.8C55.9001 59.9 55.8001 60 55.8001 60.1C55.7001 60.6 55.6001 61 55.6001 61.5C55.6001 62 55.7001 62.4 55.9001 62.9C55.4001 63.7 54.8001 64.3 54.3001 64.7C53.7001 65.1 53.1001 65.4 52.5001 65.4C52.1001 65.4 51.8001 65.3 51.6001 65.1C51.4001 64.9 51.3001 64.5 51.3001 64C51.3001 63.7 51.3001 63.4 51.4001 63.2C51.4001 63 51.5001 62.7 51.7001 62.3C51.8001 61.9 51.9001 61.7 52.0001 61.5C52.5001 60.1 53.1001 59 53.5001 58C54.0001 57 54.5001 56.2 55.1001 55.4C55.7001 54.7 56.4001 54.3 57.1001 54.3C57.5001 54.3 57.8001 54.5 57.9001 54.8C58.1001 55.1 58.2001 55.6 58.2001 56.3C58.2001 57 58.1001 57.8 57.8001 58.6C57.6001 59.5 57.2001 60.4 56.8001 61.3C56.8001 61 56.9001 60.7 56.9001 60.6C57.1001 60.2 57.1001 60 56.9001 59.9ZM67.7001 59.9C67.6001 59.7 67.4001 59.7 67.2001 59.7C67.1001 59.7 66.9001 59.7 66.8001 59.8C66.7001 59.9 66.6001 60 66.6001 60.1C66.5001 60.6 66.4001 61 66.4001 61.5C66.4001 62 66.5001 62.4 66.7001 62.9C66.2001 63.7 65.6001 64.3 65.1001 64.7C64.5001 65.1 63.9001 65.4 63.3001 65.4C62.9001 65.4 62.6001 65.3 62.4001 65.1C62.2001 64.9 62.1001 64.5 62.1001 64C62.1001 63.7 62.1001 63.4 62.2001 63.2C62.2001 63 62.3001 62.7 62.5001 62.3C62.6001 61.9 62.7001 61.7 62.8001 61.5C63.3001 60.1 63.9001 59 64.3001 58C64.8001 57 65.3001 56.2 65.9001 55.4C66.5001 54.7 67.2001 54.3 67.9001 54.3C68.3001 54.3 68.6001 54.5 68.7001 54.8C68.9001 55.1 69.0001 55.6 69.0001 56.3C69.0001 57 68.9001 57.8 68.6001 58.6C68.4001 59.5 68.0001 60.4 67.6001 61.3C67.6001 61 67.7001 60.7 67.7001 60.6C67.8001 60.2 67.8001 60 67.7001 59.9ZM74.1001 72.1C73.4001 72.8 72.7001 73.2 72.0001 73.2C71.5001 73.2 71.2001 73.1 70.9001 72.8C70.6001 72.5 70.5001 72.1 70.5001 71.7C70.6001 71 70.9001 70.5 71.5001 70.1C72.1001 69.7 73.0001 69.4 74.3001 69.2C74.5001 69.2 75.1001 69.1 75.9001 68.9C75.3001 70.3 74.8001 71.4 74.1001 72.1Z" stroke="#00AAEB" stroke-width="1.2746" stroke-miterlimit="10"/>
<path d="M92.2999 44.3L69.5999 30.8C68.5999 30.2 68.4999 28.8999 69.2999 28.0999L72 25.4C74.8 22.6 79.1 22.0999 82.4 24.0999L92.0999 29.8C95.4999 31.8 97 35.7999 96 39.5999L94.9 43.1999C94.5 44.2999 93.2999 44.8 92.2999 44.3Z" stroke="white" stroke-width="0.956" stroke-miterlimit="10" stroke-linecap="round" stroke-linejoin="round"/>
<path d="M92.0001 22.6999C92.6001 21.6999 92.3001 20.4 91.2001 19.8C90.2001 19.2 88.9 19.5 88.3 20.6L92.0001 22.6999Z" stroke="white" stroke-width="0.956" stroke-miterlimit="10" stroke-linecap="round" stroke-linejoin="round"/>
<path d="M5.70006 44.3L28.4001 30.8C29.4001 30.2 29.5001 28.8999 28.7001 28.0999L26 25.4C23.2 22.6 18.9 22.0999 15.6 24.0999L5.90007 29.8C2.50007 31.8 1.00005 35.7999 2.00005 39.5999L3.10002 43.1999C3.50002 44.2999 4.80006 44.8 5.70006 44.3Z" stroke="white" stroke-width="0.956" stroke-miterlimit="10" stroke-linecap="round" stroke-linejoin="round"/>
<path d="M6.10018 22.6999C5.50018 21.6999 5.80023 20.4 6.90023 19.8C7.90023 19.2 9.2002 19.5 9.8002 20.6L6.10018 22.6999Z" stroke="white" stroke-width="0.956" stroke-miterlimit="10" stroke-linecap="round" stroke-linejoin="round"/>
<path d="M4.5 26.9L15.3 20.4L20.2 9.19995C20.7 8.09995 21.5 7.30005 22.5 6.80005C28.5 3.90005 38.2 2.09998 49 2.09998C59.8 2.09998 69.5 4.00005 75.5 6.80005C76.5 7.30005 77.4 8.19995 77.8 9.19995L82.7 20.4L93.5 26.9" stroke="white" stroke-width="0.956" stroke-miterlimit="10" stroke-linecap="round" stroke-linejoin="round"/>
<path d="M14.5002 102.3C22.9002 111.9 35.3002 118 49.1002 118C62.9002 118 75.3003 111.9 83.7003 102.3" stroke="white" stroke-width="0.956" stroke-miterlimit="10" stroke-linecap="round" stroke-linejoin="round"/>
<path d="M64.7003 29.1C59.8003 27.3 54.5003 26.3 49.0003 26.3C43.5003 26.3 38.2003 27.3 33.3003 29.1" stroke="white" stroke-width="0.956" stroke-miterlimit="10" stroke-linecap="round" stroke-linejoin="round"/>
<path d="M94.9003 72.8C94.9003 72.6 94.9003 72.4 94.9003 72.1C94.9003 63.1 92.3003 54.7 87.8003 47.6" stroke="white" stroke-width="0.956" stroke-miterlimit="10" stroke-linecap="round" stroke-linejoin="round"/>
<path d="M10.3002 47.6C5.80017 54.7 3.2002 63.1 3.2002 72.1C3.2002 72.3 3.2002 72.5 3.2002 72.8" stroke="white" stroke-width="0.956" stroke-miterlimit="10" stroke-linecap="round" stroke-linejoin="round"/>
<path d="M20.7002 102.3C28.1002 109.2 38.0002 113.5 49.0002 113.5C60.0002 113.5 69.9002 109.2 77.3002 102.3" stroke="white" stroke-width="0.956" stroke-miterlimit="10" stroke-linecap="round" stroke-linejoin="round"/>
<path d="M90.3002 72.8C90.3002 72.6 90.3002 72.4 90.3002 72.1C90.3002 49.3 71.8002 30.8 49.0002 30.8C26.2002 30.8 7.7002 49.3 7.7002 72.1C7.7002 72.3 7.7002 72.5 7.7002 72.8" stroke="white" stroke-width="0.956" stroke-miterlimit="10" stroke-linecap="round" stroke-linejoin="round"/>
<path d="M17.1 99.1L18.9 88.6H8.29999L6.5 99.1H2L6.29999 74.9H10.7L9 84.4H19.6L21.3 74.9H25.7L21.4 99.1H17.1Z" stroke="white" stroke-width="0.956" stroke-miterlimit="10" stroke-linecap="round" stroke-linejoin="round"/>
<path d="M27.3999 89.1C27.3999 80.6 33.6999 74.3 41.1999 74.3C47.0999 74.3 50.8999 78.2 50.8999 84.7C50.8999 93.2 44.5999 99.5 37.0999 99.5C31.1999 99.6 27.3999 95.6 27.3999 89.1ZM32.2999 88.8C32.2999 92.8 33.9999 95.3 37.7999 95.3C42.9999 95.3 45.9999 90.5 45.9999 85.2C45.9999 81.2 44.2999 78.7 40.4999 78.7C35.2999 78.6 32.2999 83.5 32.2999 88.8Z" stroke="white" stroke-width="0.956" stroke-miterlimit="10" stroke-linecap="round" stroke-linejoin="round"/>
<path d="M53.8 91.7C53.8 90.9 53.9 89.8 54.1 88.7L56.6 74.9H61.0001L58.8 87.3C58.6 88.7 58.5001 89.7 58.5001 90.7C58.5001 93.5 59.5 95.4 62.6 95.4C66.9 95.4 68.5001 91.8 69.2001 87.3L71.4001 74.9H75.8L73.3 88.7C72.1 95.3 68.3 99.6 61.8 99.6C56.4 99.6 53.8 96.6 53.8 91.7Z" stroke="white" stroke-width="0.956" stroke-miterlimit="10" stroke-linecap="round" stroke-linejoin="round"/>
<path d="M90.0001 99.1L86.8001 90.1H82.6001L81.0001 99.1H76.6001L80.9001 74.9H89.6001C93.7001 74.9 96.5001 76.4 96.5001 80.8C96.5001 85 93.9001 87.4 91.2001 89L94.7001 99.2H90.0001V99.1ZM84.6001 78.5L83.3001 85.9H86.1001C90.2001 85.9 91.7001 84.3 91.7001 81.4C91.7001 79.6 91.1001 78.5 87.8001 78.5H84.6001Z" stroke="white" stroke-width="0.956" stroke-miterlimit="10" stroke-linecap="round" stroke-linejoin="round"/>
<path d="M36.6001 72.2C35.6001 72.2 34.9001 71.9 34.4001 71.2C33.9001 70.6 33.7001 69.7 33.7001 68.6C33.7001 67.8 33.9001 66.7 34.3001 65.4C34.7001 64 35.4001 62 36.4001 59.5L37.0001 58H29.4001L29.0001 59.2C28.4001 61.1 27.8001 62.7 27.2001 63.8C26.7001 64.9 25.9001 65.9 25.0001 66.6C24.1001 67.4 22.8001 67.7 21.3001 67.7C19.8001 67.7 18.6001 67.2 17.8001 66.3C17.0001 65.4 16.6001 64.2 16.6001 62.7C16.6001 61.6 16.9001 60.6 17.4001 59.8C18.0001 58.9 18.7001 58.2 19.6001 57.7C20.5001 57.2 21.5001 56.9 22.5001 56.9C22.6001 56.9 22.7001 56.9 22.8001 57C22.9001 57.1 22.9001 57.2 22.9001 57.3C22.9001 57.4 22.9001 57.5 22.8001 57.6C22.7001 57.7 22.6001 57.7 22.5001 57.7C21.6001 57.7 20.8001 57.9 20.0001 58.4C19.2001 58.8 18.6001 59.4 18.1001 60.2C17.6001 61 17.4001 61.8 17.4001 62.7C17.4001 63.9 17.7001 64.9 18.4001 65.6C19.1001 66.3 20.0001 66.7 21.3001 66.7C22.6001 66.7 23.7001 66.3 24.5001 65.6C25.3001 64.9 26.0001 64 26.5001 62.9C27.0001 61.9 27.5001 60.4 28.1001 58.7L28.4001 57.7H27.0001C26.9001 57.7 26.8001 57.7 26.7001 57.6C26.6001 57.5 26.6001 57.4 26.6001 57.3C26.6001 57.2 26.6001 57.1 26.7001 57C26.8001 56.9 26.9001 56.9 27.0001 56.9H28.7001L29.2001 55.3C29.7001 53.7 30.1001 52.5 30.5001 51.5C30.9001 50.5 31.3001 49.6 31.8001 48.7L32.0001 48.3H31.8001C31.1001 48.1 30.0001 47.8 28.4001 47.4C27.2001 47 26.2001 46.7 25.4001 46.6C24.6001 46.4 23.8001 46.3 22.9001 46.3C22.3001 46.3 21.6001 46.5 21.0001 46.9C20.4001 47.3 19.9001 47.8 19.5001 48.4C19.1001 49 18.9001 49.6 18.9001 50.3C18.9001 51.4 19.2001 52.2 19.8001 52.7C20.4001 53.2 21.3001 53.5 22.3001 53.5C23.1001 53.5 24.0001 53.3 24.9001 52.9C25.0001 52.9 25.1001 52.9 25.1001 52.9C25.2001 52.9 25.3001 52.9 25.4001 53C25.5001 53.1 25.5001 53.2 25.5001 53.3C25.5001 53.5 25.4001 53.6 25.2001 53.7C24.2001 54.2 23.2001 54.4 22.2001 54.4C20.9001 54.4 19.8001 54 19.1001 53.3C18.3001 52.6 17.9001 51.6 17.9001 50.4C17.9001 49.5 18.1001 48.7 18.6001 48C19.0001 47.3 19.6001 46.7 20.4001 46.2C21.1001 45.8 21.9001 45.5 22.7001 45.5C23.6001 45.5 24.5001 45.6 25.3001 45.8C26.1001 46 27.2001 46.3 28.4001 46.6C30.0001 47.1 31.3001 47.5 32.2001 47.6H32.3001L32.4001 47.5C33.0001 46.9 33.6001 46.5 34.2001 46.2C34.3001 46.2 34.3001 46.1 34.4001 46.1C34.5001 46.1 34.6001 46.1 34.7001 46.2C34.8001 46.3 34.8001 46.4 34.8001 46.5C34.8001 46.7 34.7001 46.8 34.5001 46.9C33.4001 47.5 32.7001 48.2 32.3001 49.1C31.8001 49.9 31.4001 50.8 31.1001 51.8C30.8001 52.8 30.3001 54 29.8001 55.5L29.4001 56.8H37.1001L37.6001 55.5C38.3001 53.4 38.9001 51.8 39.4001 50.5L39.8001 49.3C40.2001 48.2 40.4001 47.4 40.6001 47C40.8001 46.4 40.9001 46.3 40.9001 46.2C40.9001 46.1 41.0001 46.1 41.0001 46C41.1001 46 41.2001 45.9 41.2001 45.9C41.4001 45.9 41.5001 46 41.6001 46.1C41.7001 46.2 41.7001 46.3 41.6001 46.5L40.1001 50.7L37.0001 59.4C36.0001 62.2 35.2001 64.3 34.9001 65.5C34.5001 66.8 34.3001 67.7 34.3001 68.4C34.3001 69.1 34.5001 69.7 34.8001 70.2C35.1001 70.7 35.7001 70.9 36.4001 70.9C36.5001 70.9 36.6001 70.9 36.7001 71C36.8001 71.1 36.8001 71.2 36.8001 71.3C36.8001 71.4 36.7001 71.5 36.6001 71.6C36.8001 72.2 36.7001 72.2 36.6001 72.2Z" fill="white"/>
<path d="M72.0001 74.2C71.2001 74.2 70.6 74 70.1 73.5C69.6 73 69.4001 72.4 69.4001 71.6C69.4001 69.8 71.0001 68.6 74.0001 68.1C74.8001 68 75.6001 67.8 76.2001 67.6H76.3L77.0001 65.5L76.7001 65.3C76.1001 65.9 75.4001 66.2 74.7001 66.2C73.7001 66.2 72.9001 65.9 72.5001 65.4C72.1001 64.9 71.9 64.3 71.8 63.6V63.3L71.6 63.5C70.9 64.1 70.1 64.4 69.3 64.4C68.9 64.4 68.6 64.3 68.3 64.2C68 64.1 67.7001 63.9 67.5001 63.7L67.4001 63.6L67.3 63.7C66 65.4 64.7 66.3 63.3 66.3C62.2 66.3 61.6 65.9 61.3 65.2L61.1 64.8L61.0001 65.2C59.4001 69.8 58.5 72.2 58.3 72.8C58.2 73 58.1001 73.1 57.9001 73.1C57.7001 73.1 57.6001 73 57.5001 72.9C57.4001 72.8 57.4001 72.7 57.4001 72.5L60.6 63.7L60.2001 63.9C59.7001 64.2 59.2 64.4 58.6 64.4C58.2 64.4 57.9 64.3 57.6 64.2C57.3 64.1 57 63.9 56.8 63.7L56.7001 63.6L56.6 63.7C55.3 65.4 54 66.3 52.6 66.3C51.5 66.3 50.9 65.9 50.6 65.2L50.4001 64.8L50.3 65.2C48.7 69.7 47.8 72.2 47.6 72.8C47.5 73 47.4001 73.1 47.2001 73.1C47.0001 73.1 46.9 73 46.8 72.9C46.7 72.8 46.7001 72.7 46.7001 72.5L49.3 65.2L48.9001 65.6C48.3001 66 47.7 66.3 47.1 66.3C46.5 66.3 46.0001 66.1 45.7001 65.7C45.4001 65.3 45.2001 64.8 45.2001 64.1V63.6L44.9001 64C43.8001 65.5 42.7001 66.3 41.5001 66.3C40.8001 66.3 40.3001 66 39.9001 65.5C39.5001 65 39.3 64.3 39.3 63.4C39.3 62.1 39.6001 60.7 40.2001 59.1C40.8001 57.5 41.6001 56.1 42.5001 54.9C43.4001 53.8 44.4001 53.2 45.4001 53.2C46.6001 53.2 47.4 53.7 47.8 54.6L48.0001 54.9L48.6 53.3C48.6 53.2 48.7001 53.2 48.7001 53.1C48.8001 53.1 48.9001 53 49.0001 53C49.2001 53 49.3001 53.1 49.4001 53.2C49.5001 53.3 49.5001 53.5 49.4001 53.6L48.0001 57.4L47.7001 58.3C47.1001 59.9 46.7001 61.1 46.5001 62C46.2001 62.9 46.1 63.5 46.1 64.1C46.1 64.6 46.2 64.9 46.3 65.1C46.5 65.3 46.7 65.5 47.1 65.5C47.9 65.5 48.7 65 49.3 64C49.8 63.3 50.3 62.4 50.8 61.3L53.5001 54L53.7001 53.5C53.8001 53.3 53.9 53.2 54.1 53.2C54.3 53.2 54.4001 53.3 54.5001 53.4C54.6001 53.5 54.6 53.6 54.6 53.8L54.4001 54.4L54.7001 54.6C55.6001 53.7 56.4 53.3 57.3 53.3C58.1 53.3 58.6001 53.6 59.0001 54.1C59.4001 54.7 59.5001 55.4 59.5001 56.3C59.5001 57.2 59.3 58.4 58.8 59.7C58.3 61 57.9 62.1 57.3 62.9L57.2001 63L57.3 63.1C57.7 63.5 58.2001 63.7 58.7001 63.7C59.4001 63.7 60.1 63.3 60.8 62.6C61 62.3 61.3001 62 61.5001 61.6L64.3 54L64.5001 53.5C64.6001 53.3 64.7001 53.2 64.9001 53.2C65.1001 53.2 65.2 53.3 65.3 53.4C65.4 53.5 65.4001 53.6 65.4001 53.8L65.2001 54.4L65.5001 54.6C66.4001 53.7 67.2 53.3 68.1 53.3C68.9 53.3 69.4 53.6 69.8 54.1C70.2 54.7 70.3 55.4 70.3 56.3C70.3 57.2 70.1 58.4 69.6 59.7C69.1 61 68.7 62.1 68.1 62.9L68.0001 63L68.1 63.1C68.5 63.5 69.0001 63.7 69.5001 63.7C70.2001 63.7 70.9 63.3 71.6 62.6C72 62.2 72.3001 61.7 72.5001 61.1C72.7001 60.5 73.0001 59.7 73.4001 58.7L73.7001 57.8L75.3 53.5C75.3 53.4 75.4001 53.4 75.4001 53.3C75.5001 53.3 75.6 53.2 75.6 53.2C75.8 53.2 75.9001 53.3 76.0001 53.4C76.1001 53.5 76.1001 53.6 76.0001 53.8L74.4001 58.1L73.6 60.4C73.3 61.3 73.0001 61.9 72.9001 62.3C72.8001 62.7 72.7001 63.1 72.7001 63.4C72.7001 64.7 73.4001 65.4 74.7001 65.4C75.5001 65.4 76.3 64.8 77.1 63.5C77.9 62.3 78.6 60.8 79.3 59C79.5 58.5 79.7 57.7 80.1 56.7C80.4 55.9 80.9001 54.8 81.4001 53.4C81.4001 53.3 81.5 53.2 81.6 53.2C81.7 53.1 81.8 53.1 81.8 53.1C81.9 53.1 82.1001 53.2 82.2001 53.3C82.3001 53.4 82.3 53.6 82.3 53.7C81.5 55.8 80.8001 57.7 80.2001 59.3L77.9001 65.7L77.4001 67.3L77.7001 67.2C79.3001 66.7 80.6001 65.8 81.7001 64.6C82.8001 63.4 83.7001 61.9 84.5001 60.1C84.6001 59.9 84.8001 59.8 84.9001 59.8C84.9001 59.8 85 59.8 85.1 59.8C85.3 59.9 85.4001 60 85.4001 60.2C85.4001 60.2 85.4001 60.3 85.4001 60.4C84.5001 62.5 83.4 64.2 82.1 65.5C80.8 66.8 79.2001 67.7 77.2001 68.3H77.1V68.4C76.4 70.3 75.6 71.8 74.8 72.8C73.9 73.8 73.0001 74.2 72.0001 74.2ZM75.8 68.7C75 68.9 74.5 69 74.3 69C73 69.2 72.0001 69.5 71.4001 69.9C70.8001 70.3 70.4001 70.9 70.4001 71.6C70.4001 72.1 70.6001 72.5 70.9001 72.9C71.2001 73.2 71.6 73.4 72.1 73.4C72.9 73.4 73.7001 73 74.4001 72.2C75.1001 71.4 75.6 70.3 76.1 68.9L76.2001 68.6L75.8 68.7ZM68.0001 54C67.2001 54 66.5001 54.4 65.9001 55.2C65.3001 55.9 64.7001 56.8 64.2001 57.8C63.7001 58.8 63.2001 60 62.7001 61.3C62.6001 61.5 62.5001 61.7 62.4001 62.1C62.3001 62.5 62.2 62.8 62.1 63C62.1 63.2 62.0001 63.5 62.0001 63.8C62.0001 64.4 62.1 64.8 62.3 65C62.5 65.3 62.8 65.4 63.3 65.4C63.9 65.4 64.6001 65.2 65.2001 64.7C65.8001 64.2 66.4001 63.6 66.9001 62.8V62.7V62.6C66.7001 62.2 66.7001 61.7 66.7001 61.3C66.7001 60.8 66.8001 60.4 66.9001 60C66.9001 59.9 67.0001 59.8 67.0001 59.8C67.1001 59.7 67.2 59.7 67.3 59.7C67.4 59.7 67.5 59.8 67.6 59.9C67.7 60 67.7001 60.1 67.7001 60.3C67.6001 60.4 67.6 60.7 67.6 61L67.9001 61.1C68.3001 60.2 68.7001 59.3 68.9001 58.4C69.1001 57.5 69.3 56.7 69.3 56C69.3 55.3 69.2001 54.8 69.0001 54.5C68.7001 54.2 68.4001 54 68.0001 54ZM57.2001 54C56.4001 54 55.7 54.4 55.1 55.2C54.5 55.9 53.9001 56.8 53.4001 57.8C52.9001 58.8 52.4001 60 51.9001 61.3C51.8001 61.5 51.7 61.7 51.6 62.1C51.5 62.5 51.4 62.8 51.3 63C51.3 63.2 51.2001 63.5 51.2001 63.8C51.2001 64.4 51.3001 64.8 51.5001 65C51.7001 65.3 52.0001 65.4 52.5001 65.4C53.1001 65.4 53.8001 65.2 54.4001 64.7C55.0001 64.2 55.6 63.6 56.1 62.8V62.7V62.6C55.9 62.2 55.9001 61.8 55.9001 61.3C55.9001 60.8 56 60.4 56.1 60C56.1 59.9 56.2001 59.8 56.2001 59.8C56.3001 59.7 56.4001 59.7 56.5001 59.7C56.6001 59.7 56.7 59.8 56.8 59.9C56.9 60 56.9001 60.1 56.9001 60.3C56.8001 60.4 56.8 60.7 56.8 61L57.1 61.1C57.5 60.2 57.9 59.3 58.1 58.4C58.3 57.5 58.5001 56.7 58.5001 56C58.5001 55.3 58.4001 54.8 58.2001 54.5C58.0001 54.2 57.7001 54 57.2001 54ZM45.5001 54.1C44.6001 54.1 43.8001 54.7 43.0001 55.8C42.2001 56.9 41.6 58.1 41.1 59.6C40.6 61 40.3 62.3 40.3 63.3C40.3 64 40.4 64.5 40.6 64.9C40.8 65.3 41.1 65.5 41.6 65.5C42.3 65.5 43.0001 65.1 43.7001 64.4C44.3001 63.7 44.9 62.8 45.3 61.8C45.8 60.8 46.3 59.7 46.8 58.3L47.5001 56.5C47.5001 55.8 47.3001 55.3 46.9001 54.9C46.5001 54.3 46.0001 54.1 45.5001 54.1Z" fill="white"/>
</svg>
