<svg width="49" height="43" viewBox="0 0 49 43" fill="none" xmlns="http://www.w3.org/2000/svg">
<path d="M13.7 19.4C13.6 20.2 14.6 20.6 15.1 20C15.3 19.8 15.5 19.5 15.8 19.3C17.6 17.7 20.3 18.5 20.9 20.8C21.2 22 20.8 23 19.9 23.9C17.3 26.5 14.6001 29.1 12.0001 31.8C11.7001 32.1 11.4 32.5 11.1 32.8C10.8 33.1 10.3001 33.1 10.0001 32.8C9.90006 32.7 9.70006 32.5 9.50006 32.2C7.40006 29.3 4.90003 26.8 2.10003 24.7C0.600034 23.6 -0.299966 22.3 0.100034 20.7C0.700034 18.6 3.19996 17.7 4.89996 19.1C5.19996 19.4 5.59996 19.7 5.89996 20C6.29996 20.4 7.10003 20.2 7.10003 19.6C7.20003 18.9 7.29996 18.1 7.39996 17.4C8.99996 9.09999 16 2.4 24.3 1.1C34.8 -0.599995 45.8 6.1 48.1 17.8C50.2 28.8 42.9 39.7 31.9 41.9C26.9 42.9 22.2 42.2 17.8 39.8C16.4 39 15.7 37.7 15.9 36.3C16.1 34.9 17.1001 33.8 18.5001 33.5C19.4001 33.3 20.2001 33.5 21.0001 33.9C23.3001 35.1 25.8 35.7 28.4 35.6C34.9 35.4 40.7 30.2 41.6 23.9C42.8 16.2 38 9.2 30.4 7.7C22.7 6.2 14.9 11.6 13.7 19.4Z" fill="#F1BC19"/>
</svg>
