<svg width="40" height="40" viewBox="0 0 40 40" fill="none" xmlns="http://www.w3.org/2000/svg">
<path d="M37 14.7C36 14.1 35.4999 12.8 35.6999 11.7C36.4999 8.4 34.6 5.1 31.3 4.3C30.3 4 29.3 4 28.3 4.3C27.1 4.6 25.9 4.1 25.3 3C23.6 0.0999968 19.8 -0.900002 16.9 0.899998C16 1.4 15.3 2.2 14.8 3C14.2 4 12.9 4.6 11.8 4.3C8.5 3.5 5.19997 5.4 4.39997 8.7C4.09997 9.7 4.09997 10.7 4.39997 11.7C4.69997 12.9 4.19992 14.1 3.09993 14.7C0.199925 16.4 -0.80005 20.2 0.99995 23.1C1.49995 24 2.29993 24.7 3.09993 25.2C4.09993 25.8 4.69997 27.1 4.39997 28.2C3.59997 31.5 5.5 34.8 8.8 35.6C9.8 35.9 10.8 35.9 11.8 35.6C13 35.3 14.2 35.8 14.8 36.9C16.5 39.8 20.2999 40.8 23.1999 39C24.0999 38.5 24.8 37.7 25.3 36.9C25.9 35.9 27.2 35.4 28.3 35.6C31.6 36.4 34.8999 34.5 35.6999 31.2C35.9999 30.2 35.9999 29.2 35.6999 28.2C35.3999 27 35.9 25.8 37 25.2C39.9 23.5 40.8999 19.7 39.0999 16.8C38.5999 16 37.9 15.3 37 14.7ZM35.3 22.4C33 23.8 31.7999 26.6 32.5 29.2C32.9 30.7 32 32.1 30.5 32.5C30.1 32.6 29.5999 32.6 29.0999 32.5C26.4999 31.8 23.7 33 22.3 35.3C21.5 36.6 19.8999 37 18.5999 36.3C18.1999 36.1 17.8999 35.7 17.5999 35.3C16.4999 33.4 14.5 32.3 12.3 32.3C11.8 32.3 11.3 32.4 10.8 32.5C9.3 32.9 7.89995 32 7.49995 30.5C7.39995 30.1 7.39995 29.6 7.49995 29.1C8.19995 26.5 6.9999 23.7 4.6999 22.3C3.3999 21.5 2.9999 19.9 3.6999 18.6C3.8999 18.2 4.2999 17.9 4.6999 17.6C6.9999 16.2 8.19995 13.4 7.49995 10.8C7.09995 9.3 7.99995 7.8 9.49995 7.5C9.89995 7.4 10.4 7.4 10.9 7.5C13.5 8.2 16.2999 7 17.6999 4.7C18.4999 3.4 20.1 3 21.4 3.7C21.8 3.9 22.1 4.3 22.4 4.7C23.8 7 26.5999 8.2 29.1999 7.5C30.6999 7.1 32.2 8 32.5 9.5C32.5999 9.9 32.5999 10.4 32.5 10.9C31.7999 13.5 33 16.3 35.3 17.7C36.6 18.5 37 20.1 36.3 21.4C36 21.8 35.7 22.1 35.3 22.4Z" fill="#F1BC19"/>
<path d="M20 11.5C15.3 11.5 11.5 15.3 11.5 20C11.5 24.7 15.3 28.5 20 28.5C24.7 28.5 28.5 24.7 28.5 20C28.5 15.3 24.7 11.5 20 11.5ZM20 25.1C17.2 25.1 14.9 22.8 14.9 20C14.9 17.2 17.2 14.9 20 14.9C22.8 14.9 25.1 17.2 25.1 20C25.1 22.8 22.8 25.1 20 25.1Z" fill="#F1BC19"/>
</svg>
