<svg width="287" height="242" viewBox="0 0 287 242" fill="none" xmlns="http://www.w3.org/2000/svg">
<path d="M40.9999 204.2C40.9999 203.1 40.9999 201.9 40.9999 200.8C40.9999 199.9 40.5999 199.6 39.5999 199.8C34.1999 200.7 29 199.7 24.4 196.8C19.1 193.5 16.1999 188.6 15.5999 182.4C15.0999 176.9 16.3999 171.9 19.2999 167.3C19.3999 167.1 19.6 166.9 19.7 166.7C21.2 164.3 21.0999 164.2 18.5999 163.6C18.2999 163.5 17.8999 163.5 17.5999 163.4C13.9999 162.4 10.7999 160.6 8.29993 157.9C4.19993 153.6 2.89996 148.5 3.69996 142.7C4.69996 135.7 8.49997 130.4 13.9 126.2C14.4 125.8 14.9999 125.3 15.4999 125C18.2999 123.3 17.0999 123.1 15.0999 122.2C11.2999 120.6 8.19997 118.2 5.39997 115.2C3.39997 112.9 1.89993 110.3 1.29993 107.3C0.299935 101.8 1.59995 96.9 5.49995 92.7C8.79995 89.1 12.7999 86.9 17.2999 85.2C17.9999 84.9 18.7999 84.7001 19.5999 84.4C19.9999 84.2001 20 83.8 19.7 83.6C18.5 82.4 17.1999 81.2001 16.0999 79.9C13.6999 77.2 11.7999 74.2 11.0999 70.6C9.79992 64.4 11.4 59 16.2 54.7C18.8 52.4 21.8999 50.8 25.2999 50C28.0999 49.3 30.8999 48.7 33.7999 48.6C36.2999 48.5 36.3999 48.3 34.9999 46C33.9999 44.3 33.1999 42.5 32.4999 40.7C31.2999 37.2 30.7 33.7 31.4 29.9C33.1 21.6 39.7999 16.5 47.5999 16.1C55.6999 15.7 62.5999 18.8 68.7999 23.6C71.7999 25.9 74.3 28.7 76.4 31.9C77.8 34 78.3999 36.3 78.9999 38.6C79.1999 39.6 79 40.6 78.7 41.6C76.2 50 74.3999 58.5 73.0999 67.1C72.5999 70.3 72.4 73.5 72.2 76.7C71.7 82.5 71.2999 88.4 71.5999 94.2C71.8999 99 72.3 103.8 72.7 108.6C73 112.9 73.5999 117.2 74.2999 121.5C76.5999 135.2 80.1 148.6 84.9 161.6C87.7 169.1 91 176.5 94.7 183.6C98.9 191.5 103.7 199.1 108.9 206.3C110.6 208.7 112.9 210.7 115 212.8C115.6 213.4 116.2 213.9 116.7 214.5C117.4 215.2 117.6 216.1 117.2 217C114.2 226.1 108.5 233 100.3 237.9C95.4999 240.7 90.2999 241.9 84.7999 241.4C81.4999 241.1 78.6999 239.8 76.0999 237.6C71.8999 234 70 229.4 69.9 224C69.9 223.7 69.9 223.3 69.9 223C69.8 222.2 69.4999 221.9 68.7999 222.2C67.1999 222.7 65.6 223.4 63.9 223.8C58.5 225 53.3999 224.4 48.7999 221.3C43.8999 218 41.4999 213.2 40.9999 207.4C40.8999 206.3 40.9999 205.3 40.9999 204.2Z" fill="#54DEDD"/>
<path d="M35.5999 57.3C39.1999 57.2 42.7 57.8 46.2 58.6C48.2 59 50.2 59.5 52.2 59.9C52.4 59.9 52.5999 59.8 52.7999 59.7C52.6999 59.5 52.5999 59.3 52.5 59.1C48.0999 54.9 44.1999 50.2 41.5999 44.6C40.0999 41.4 39.4 38.1 39.7 34.6C40.1 30.5 43.6 26.4 47.2 25.8C49.6 25.4 52 25.3 54.4 26.2C56.3 26.9 58.2999 27.6 60.0999 28.5C64.1999 30.6 67.8 33.4 71.4 36.3C71.8 36.7 72.1999 37.1 72.5999 37.5C73.2999 38.2 73.5 39 73.2 40C73 40.7 72.7999 41.3 72.5999 42C70.9999 47.6 69.5 53.3 68.5 59C68 61.8 67.6999 64.7 67.2999 67.5C66.9999 69.9 66.7999 72.3 66.5 74.7C65.4 82.1 65.7999 89.6 66 97C66.2 105.2 67.2 113.4 68.5 121.6C70.5 133.9 73.5 145.8 77.7 157.5C78.8 160.6 79.7 163.8 81.2 166.8C82.6 169.8 83.9999 172.8 85.2999 175.9C87.7999 181.9 91.3 187.5 94.5 193.2C96.8 197.4 99.7 201.3 102.5 205.2C103.7 206.9 105.2 208.3 106.6 209.8C107.6 210.8 107.6 211.7 107 212.9C104.9 217 102 220.5 98.7999 223.9C96.3999 226.4 93.6999 228.5 90.5999 230C88.1999 231.1 85.7 231.8 83 231.7C77.7 231.5 74.2999 227.5 75.0999 222.3C75.6999 218.6 77.1999 215.3 79.0999 212.1C81.1999 208.4 83.8 205 86.5 201.7C87.2 200.8 87.8999 199.9 88.5999 199C88.6999 198.8 88.8999 198.5 88.7999 198.4C88.4999 198 88.2 198.3 88 198.5C83.2 202.4 77.9 205.7 72.4 208.4C69 210.1 65.4 211.3 61.7 212C59.2 212.5 56.7 212.5 54.2 211.7C50.7 210.5 48.2999 207.5 48.0999 203.8C47.8999 200.8 48.7999 198.1 50.0999 195.5C52.6999 190.2 56.2999 185.6 60.5 181.5C61 181 61.5 180.6 62 180.1C63.2 178.9 64.3999 177.7 65.5999 176.5C65.5999 176.5 65.5 176.3 65.4 176.3C63.6 176.7 62.0999 177.8 60.5999 178.8C55.3999 181.9 50 184.3 44.2 185.9C40 187 35.9 187.3 31.7 185.8C26.2 183.7 24.3999 179.4 24.7999 175.2C24.9999 173.5 25.4999 171.8 26.2999 170.3C27.3999 168.3 28.6 166.4 30.2 164.6C33.6 160.9 37.4999 157.6 41.5999 154.7C42.1999 154.3 42.7 153.9 43.2 153.4C43.3 153.3 43.2999 153.1 43.2999 153.1C43.1999 153 43 152.7 42.9 152.7C41.1 153 39.2999 153.3 37.5 153.6C33.2 154.1 28.8 154.3 24.5 153.4C22.7 153 21 152.3 19.4 151.3C14.1 148 12.9999 142 15.0999 137.2C16.8999 133 20.1999 130.2 24.0999 128C26.5999 126.6 29.1999 125.4 31.7999 124.2C32.0999 124 32.5 123.9 32.4 123.5C32.3 123.2 31.9 123 31.7 122.9C30.6 122.5 29.5 122.1 28.5 121.8C25 120.6 21.8 118.7 18.9 116.5C16 114.3 14.2 111.3 14 107.8C13.7 104 15.2 100.6 17.9 97.9C18.9 96.8 20.2 96 21.5 95.3C25.1 93.3 29.1 92.1 33.2 91.3C35.2 90.9 37.1999 90.5 39.2999 90.4C40.2999 90.4 41.2999 90 42.2999 89.8C42.3999 89.8 42.5999 89.7 42.5999 89.6C42.4999 89.4 42.4999 89.1 42.2999 89.1C40.1999 87.9 38.1 86.8 36 85.6C31.7999 83.1 27.9999 80.2 24.7999 76.5C23.3999 74.9 22.2 73.3 21.5 71.3C19.5 66.2 21.8999 60.6 27.0999 58.6C28.2999 58.1 29.5 57.7 30.7 57.5C32.1 57.4 33.8999 57.4 35.5999 57.3Z" fill="#00B46F"/>
<path d="M250.1 199.8C246.9 199.6 243.7 199.5 240.5 199.2C234.8 198.7 229.2 197.2 223.7 195.6C218.5 194 213.8 191.5 209.6 188C201.6 181.6 197.2 173.3 196.1 163.4C195.2 156 195.8 148.5 198.1 141.3C201.5 130.7 207 121.5 214.5 113.4C219.4 108.2 224.6 103.5 230.7 99.7C233.1 98.2 235.4 96.5 237.9 95C239.5 94.1 241.1 93.3 242.9 92.8C245.7 92.1 247.5 92.7 249.1 95.1C250.1 96.6 250.7 98.2 250.9 99.9C252.4 109.7 252.2 119.5 249.7 129.2C247.8 136.3 245.3 143.2 241.7 149.6C241.1 150.6 240.5 151.6 240 152.6C239.1 154.2 239.3 154.6 241 155C242.8 155.5 244.5 155.9 246.3 156.5C250.9 157.9 255.2 160.1 259.4 162.4C266.7 166.5 273.2 171.8 279.6 177.2C281.8 179.1 283.6 181.3 285.1 183.8C286.5 186.2 286.3 188.1 284.5 190.1C283.2 191.6 281.5 192.6 279.7 193.4C271.4 196.9 262.9 199.5 253.8 199.4C252.5 199.4 251.3 199.4 250 199.4C250.1 199.6 250.1 199.7 250.1 199.8Z" fill="#54DEDD"/>
<path d="M239.2 165C239.9 165.2 240.8 165.4 241.7 165.7C244.5 166.7 247.3 167.8 250 168.9C255.8 171.3 261.5 174 266.9 177.3C268.9 178.5 270.8 179.8 272.3 181.5C272.8 182 273.2 182.5 273.5 183.1C274 184.2 273.9 185.4 273.1 186.3C272.3 187.2 271.2 187.6 270 187.1C268 186.2 266 185.3 264.2 184.2C260 181.7 255.6 180 251.2 178C246.9 176.1 242.6 174.2 238.3 172.4C236.7 171.7 235.7 170.5 235 169.1C234.5 168.2 234.7 167.2 235.4 166.6C236.4 165.5 237.6 164.9 239.2 165Z" fill="#00B46F"/>
<path d="M247 110.4C247.2 114.3 246.1 117.5 245.2 120.7C243 128.8 239.3 136.3 235.5 143.8C235 144.8 234.4 145.8 233.4 146.5C232.1 147.4 230.4 147.4 229.2 146.4C228 145.4 227.5 143.9 228.1 142.4C228.6 141.2 229.2 140.1 229.8 139C233.3 132 236.4 124.9 238.7 117.4C239.5 114.9 240.2 112.4 240.7 109.8C241 108.4 241.2 106.9 242.3 105.7C243.5 104.3 244.9 104.3 246.1 105.8C246.7 106.5 247.1 107.4 247.1 108.3C247 109.1 247 110 247 110.4Z" fill="#00B46F"/>
<path d="M215.8 130.8C215.8 129 216.4 127.6 217 126.3C218.7 122.7 220.4 119.1 222.1 115.5C222.2 115.2 222.4 114.9 222.6 114.6C223.7 113.1 225.5 112.4 226.8 113C228.1 113.6 229 115.4 228.8 117C228.7 117.6 228.6 118.1 228.4 118.7C227.2 123.4 225.1 127.7 222.9 131.9C222.3 133.1 221.4 133.8 220.2 134.3C218.5 135 217.3 134.6 216.5 133.1C216 132.2 215.8 131.4 215.8 130.8Z" fill="#00B46F"/>
<path d="M232.8 180.6C234 180.5 234.8 180.7 235.5 181.1C238.7 182.7 241.8 184.3 244.9 185.9C245.7 186.3 246.4 186.9 247.1 187.5C248.1 188.4 248.5 189.5 248.4 190.9C248.2 192.2 247.5 193 246.3 193.2C245.2 193.4 244 193.3 242.9 192.9C239.4 191.6 235.9 190.2 232.5 188.5C231.5 188 230.6 187.2 229.9 186.3C228.4 184.1 229.2 181.7 231.7 180.9C232.2 180.7 232.7 180.6 232.8 180.6Z" fill="#00B46F"/>
<path d="M67.7999 30.9001C67.4999 17.6001 78.4 3.30002 95.4 3.30002C112.5 3.20002 123.3 17.6001 123.3 31.4001C123.3 45.7001 110.9 59.2 95.2999 59C79.5999 58.7 67.0999 45.2001 67.7999 30.9001Z" fill="#FF6175"/>
<path d="M153.1 56.3C139.6 57.1 125 45.4 125.2 28.5C125.4 12.3 138.5 1.00001 152.9 0.900011C167.1 0.800011 180.8 12.1 180.8 28.9C180.8 45.1 166.6 57.1 153.1 56.3Z" fill="#FF6175"/>
<path d="M131 21.6C145.2 21.3 158.5 23.5 171.4 28C180.7 31.2 189.4 35.6 197 41.9C206 49.3 213.2 58.1 216.5 69.6C217.5 73 218.1 76.5 218.2 80.1C218.4 86.7 217.7 93.1 215.5 99.4C212.3 108.3 207.3 116 200.3 122.4C194.9 127.3 188.6 130.3 181.4 131.8C174.7 133.2 167.9 133.1 161.3 131.2C155.4 129.5 150 126.6 146.1 121.7C141.5 116 140.4 109.5 142.3 102.6C143.3 98.7 145 95.1 147.1 91.6C148.8 88.8 150 85.9 151.1 82.9C152.1 80.5 152.1 78 151.8 75.4C151.6 73.8 150.9 72.3 149.8 71.1C145.2 65.3 139.1 63 131.8 64.2C125.5 65.3 120.6 68.6 116.7 73.6C110.6 81.5 107.1 90.5 105.2 100.2C104 106.2 103.5 112.2 103.8 118.3C104.5 129.4 107 140.1 113.4 149.5C120.7 160.2 130.8 166.8 143.5 168.7C152.8 170 162 169.3 170.9 165.7C178.3 162.7 185 158.6 191.1 153.4C194.4 150.7 197.9 148.3 201.5 146C203.7 144.6 206.2 143.5 208.7 142.8C213.5 141.4 217.9 142.6 221.6 145.7C227 150.2 229.5 155.9 227.9 163.1C226.6 168.9 224.4 174.2 221.3 179.2C217 186 211.8 192.1 206 197.7C192.2 211 175.8 218.9 157.1 222.8C146.8 225 136.4 225.2 126 224.6C116 224 106.2 222.2 96.6999 219C84.8999 215.1 74.0999 209.6 64.2999 201.9C55.9999 195.4 49.1999 187.5 43.7999 178.5C37.3999 167.8 33.1999 156.2 31.1999 143.8C30.4999 139.5 29.9999 135.2 29.7999 130.8C29.6999 128.1 29.2999 125.3 29.3999 122.6C29.7999 108.9 31.3999 95.4 36.1999 82.4C40.3999 70.8 46.5999 60.5 55.1999 51.6C60.3999 46.2 65.9999 41.3 72.2999 37.3C81.9999 31.1 92.3999 26.8 103.6 24.3C112.8 22.5 122.1 21.3 131 21.6Z" fill="#FF6175"/>
<path d="M65 107.8C62.2 107.9 58.8999 107.8 55.5999 108.3C52.4999 108.8 49.5 109.3 46.8 110.9C45.1 111.9 42.8 111.2 41.7 108.9C41.3 108.2 41.2 107.4 41.4 106.6C41.7 105.6 42.0999 104.7 42.5999 103.8C47.7999 95.4 54.7 88.5 63.4 83.7C69.5 80.4 76.0999 78.5 83.0999 78.1C84.6999 78 86.3 77.6 87.9 77.6C95 77.6 102.1 78.2 108.9 80.4C111.8 81.3 111.9 81.5 110.6 84.3C108.5 88.7 106.9 93.2 105.9 97.9C104.4 105 103.5 112.1 104.2 119.4C104.3 121 104 121.4 102.3 121.6C99.7 121.9 97.1 122 94.4 122.3C87.8 123 81.1999 123.5 74.5999 124.2C72.8999 124.4 71.4 123.9 70 123.1C68.3 122.1 67.5999 120 68.0999 118C68.7999 115.3 70.2999 113 72.0999 110.9C72.5999 110.3 73.2 109.8 73.8 109.2C74 109 74.2 108.6 74 108.3C73.9 108.1 73.6 108.1 73.4 108.1C72.7 108.1 72 108 71.3 108C69.4 107.8 67.5 107.8 65 107.8Z" fill="#9B033F"/>
<path d="M78.9999 137.9C79.1999 137.9 79.7999 137.9 80.2999 138.1C82.9999 138.8 84.2999 140.8 83.7999 143.5C83.5999 144.9 83 146.1 82.2 147.3C81.1 148.9 80.0999 150.6 78.9999 152.2C75.2999 157.8 71.3999 163.4 67.9999 169.2C67.6999 169.8 67.2999 170.4 66.9999 171C66.6999 171.6 67 172.2 67.7 172.2C68.6 172.2 69.5 172 70.4 171.9C73.5 171.6 76.4999 171.6 79.5999 172.1C83.0999 172.7 86 176.1 83.7 180.8C82.7999 182.7 81.5 184.3 80.2 185.9C76.4 190.5 72.3999 194.9 68.0999 199C67.2999 199.8 66.3999 200.5 65.4999 201.2C64.6999 201.8 63.8999 201.8 62.9999 201.1C59.3999 198.4 56.3 195.2 53.4 191.8C47.5 185 42.6999 177.5 38.7999 169.4C36.6999 165.1 36.6999 165 39.7999 161.6C46.9999 153.6 55 146.7 64.9 142.3C68.1 140.8 71.5 139.6 74.9 138.6C76.1 138.2 77.3999 137.9 78.9999 137.9Z" fill="#9B033F"/>
<path d="M105.7 180.2C105.5 178 105.9 175.4 106.4 172.8C107.7 166.6 109.7 160.6 112.7 155C112.9 154.6 113.1 154.2 113.3 153.8C114.6 151.6 115.1 151.5 116.8 153.5C118.6 155.6 120.4 157.6 122.6 159.4C128.8 164.5 135.9 167.4 143.8 168.7C145.7 169 147.7 168.9 149.6 169C151.1 169.1 151.9 169.7 151.6 171.4C150.9 175.5 150.4 179.6 149.8 183.6C148.9 189.5 148.5 195.4 148.5 201.4C148.5 203.2 148.5 205.1 148.5 206.9C148.5 208.3 148.2 209.6 147.8 210.9C146.6 214.4 143.6 215.4 140.4 213.6C139.1 212.8 138 211.9 137 210.7C130.5 202.5 125.9 193.4 123.2 183.2C122.9 182.2 122.7 181.2 122.3 180.2C122.1 179.7 121.5 179.6 121.2 180.1C119.8 182.1 118.4 184 117.2 186.1C116.2 187.7 115.1 189.1 113.7 190.4C111 192.9 107.5 192 106.4 188.5C105.9 187 105.5 185.4 105.6 183.8C105.7 182.8 105.7 181.8 105.7 180.2Z" fill="#9B033F"/>
<path d="M187.2 59.6C184.8 60 182.4 60.3 179.9 60.7C178.2 61 176.5 61 174.8 60.8C172.7 60.6 170.8 59.9 169.4 58.2C167.8 56.2 167.4 54.2 168.5 51.8C169.4 49.9 170.8 48.4 172.4 47.1C176.4 43.6 180.3 40.2 184.6 37.1C187.4 35 187.5 35 190.3 36.9C199 42.8 206.5 49.9 212.2 58.9C212.3 59.1 212.5 59.3 212.6 59.5C214.2 62.5 214.6 62.8 211.4 65C200.5 72.6 189.6 80.1 177.4 85.6C175.7 86.3 174 87 172.3 87.5C170.2 88.1 168.7 87.2 167.5 85.7C166.3 84.3 166.5 82.7 167.2 81.2C167.6 80.2 168.3 79.5 169 78.7C173.5 74 178.4 69.6 183.4 65.5C185.3 64 187.1 62.4 188.9 60.8C189.1 60.6 189.2 60.2 189.2 59.9C189.2 59.9 188.8 59.7 188.6 59.7C188 59.6 187.7 59.6 187.2 59.6Z" fill="#9B033F"/>
<path d="M184.2 192.4C184.2 190.6 184.1 189.1 184.2 187.6C184.3 185.8 184.9 184.2 186.3 183C187.7 181.6 189.4 181 191.3 181.8C192.8 182.4 194.3 183 195.7 183.7C197.7 184.6 197.9 184.5 198 182.5C198.1 179.4 198.6 176.4 199.3 173.3C199.7 171.6 200.3 170 200.8 168.4C201 167.9 201.2 167.3 201.5 166.8C203.9 162.7 208 161.5 211.6 165.6C212.6 166.7 213.5 167.9 214.3 169.2C216.3 172.2 217.7 175.4 219.3 178.6C220.1 180.3 220.2 181.8 218.8 183.3C217.9 184.3 217.1 185.5 216.3 186.6C210 194.5 202.7 201.5 194.5 207.4C192.7 208.7 191 209.9 189.1 211.1C188.3 211.6 187.5 211.3 187.2 210.4C186.2 207.8 185.5 205.1 185.2 202.4C184.7 198.9 184 195.5 184.2 192.4Z" fill="#9B033F"/>
<path opacity="0.5" d="M136.1 224.9C123 225.1 111 223.4 99.2999 219.9C85.3999 215.8 72.7999 209.2 61.6999 199.8C51.4999 191.2 44.0999 180.6 38.6999 168.5C34.4999 159.1 31.7999 149.3 30.6999 139.1C29.9999 133.3 29.3999 127.5 29.5999 121.6C30.0999 107.6 31.8999 93.7 37.0999 80.5C40.5999 71.4 45.4999 63.2 51.6999 55.7C56.0999 50.3 61.1999 45.4 66.7999 41.2C67.0999 41 67.2999 40.8 67.5999 40.6C68.1999 40.2 68.9 39.5 69.4 39.9C70.3 40.5 69.3999 41.4 69.0999 42C67.4999 45.2 65.6999 48.2 64.0999 51.4C61.5999 56.3 59.3999 61.3 57.2999 66.4C53.4999 75.8 50.8999 85.5 49.1999 95.5C48.6999 98.7 48.3999 101.9 48.0999 105C47.5999 109.1 47.6999 113.2 47.6999 117.4C47.6999 130.2 50.1 142.5 54.9 154.3C60.3 168.3 68.9999 180 80.9999 189C89.9999 195.8 100.1 200.2 111.2 202.6C119.1 204.3 127.1 205 135.1 204.6C143 204.2 150.8 202.8 158.4 200.6C170.6 197.1 182 191.7 192.6 184.8C198.1 181.2 203.2 177.3 208.2 172.9C211.9 169.7 215.4 166.1 218.8 162.6C220.7 160.7 222.3 158.6 224.1 156.7C225 155.8 225.8 154.1 227.4 154.9C228.7 155.5 228.4 157.1 228.4 158.3C228.5 161.3 227.8 164.2 226.9 167C223.9 176 218.6 183.5 212.5 190.7C207 197.1 200.7 202.6 193.9 207.5C187.7 212.1 180.7 215.3 173.5 218C166.5 220.6 159.3 222.5 151.9 223.7C146.5 224.8 140.9 225.1 136.1 224.9Z" fill="#9B033F"/>
<path d="M172.7 30.4C173.5 39.7 164.7 49.4 153.8 49.4C143.3 49.4 134.5 40.8 134.5 29.9C134.5 21.7 141.3 11 153.7 11C165.6 10.9 173.6 21.4 172.7 30.4Z" fill="white"/>
<path d="M173.1 30C172.8 37.4 169.6 43.1 163.2 47C162.1 47.7 161.1 47.7 159.9 47.3C157.2 46.4 154.9 44.9 153 43C150 40 148.2 36.4 147.4 32.2C145.9 24.5 150.3 15.5 157.4 12.1C158.2 11.7 158.9 11.6 159.7 11.9C161 12.4 162.4 12.8 163.5 13.5C169.4 17.4 172.8 22.8 173.1 30Z" fill="#001249"/>
<path d="M115.5 30.5C115.8 38.8 108.3 49.5 96.2999 49.4C86.6999 49.4 76.7999 41.9 76.9999 29.8C77.1999 19.3 84.9999 11 96.1999 11C108.5 11 115.8 21.1 115.5 30.5Z" fill="white"/>
<path d="M89.8 29.5C89.5 24.4 91.4999 20.1 94.5999 16.2C95.7999 14.8 97.4 13.8 98.9 12.8C100.4 11.7 102 11.7 103.7 12.4C111.9 15.7 117.1 24.9 115.2 33.9C114.1 39.1 111.1 43 107 46.2C105.2 47.6 103.4 47.8 101.3 46.8C94.1 43.2 90 37.6 89.8 29.5Z" fill="#001249"/>
<path d="M178.1 123.6C175.9 123.6 174.4 122.7 174 121.3C173.5 119.5 174.1 117.9 175.8 116.9C177 116.3 178.3 115.8 179.6 115.4C183.8 114.1 187.6 112.1 191.2 109.5C192.9 108.3 194.4 106.9 195.7 105.2C197.5 102.8 199.2 100.4 201 98C201.5 97.4 201.9 96.6 202.4 96.1C203.2 95.3 204.2 94.6 205.5 95.1C206.9 95.6 207.9 97.2 207.7 98.6C207.6 99.5 207.3 100.4 206.9 101.2C203.6 108.2 198.9 114 192.1 117.9C188.2 120.2 184.1 121.9 179.8 123.1C179.1 123.3 178.5 123.5 178.1 123.6Z" fill="white"/>
<path d="M162.2 123.6C159.8 123.4 157.7 122.4 156.4 120.1C155.7 118.9 155.8 117.7 156.6 116.6C157.4 115.6 158.4 115.2 159.6 115.5C161.1 116 162.7 116.4 164.1 117.1C165.8 117.9 166.6 119.6 166.2 121C165.8 122.5 164.1 123.6 162.2 123.6Z" fill="white"/>
</svg>
