<svg width="90" height="77" viewBox="0 0 90 77" fill="none" xmlns="http://www.w3.org/2000/svg">
<path d="M21 19.0043V58.3375C21 59.8375 19.8334 61.0042 18.3334 61.0042H2.66674C1.16675 61.0042 0.00012207 59.8375 0.00012207 58.3375V19.0043C0.00012207 17.5043 1.16675 16.3376 2.66674 16.3376H18.3334C19.6667 16.3376 21 17.5043 21 19.0043Z" fill="#B49BFF"/>
<path d="M21 38.6709V58.3375C21 59.8375 19.8334 61.0042 18.3334 61.0042H2.66674C1.16675 61.0042 0.00012207 59.8375 0.00012207 58.3375V38.6709H21Z" fill="#A485FF"/>
<path d="M53.3333 8.67092V68.6708C53.3333 74.8374 46.6667 78.6707 41.3334 75.5041L17.6667 61.1708V16.5043L41.3334 2.17089C46.5001 -1.3291 53.3333 2.50427 53.3333 8.67092Z" fill="#F2EDFF"/>
<path d="M53.3333 38.6709V68.6708C53.3333 74.8374 46.6667 78.6707 41.3334 75.5041L17.6667 61.1708V38.6709H53.3333Z" fill="#E6D8FB"/>
<path d="M67.3334 38.6708C67.3334 41.1708 66.3333 43.6708 64.5 45.5041C63.5 46.5041 61.8334 46.5041 60.8334 45.5041C59.8334 44.5041 59.8334 42.8375 60.8334 41.8375C61.6667 41.0042 62.1668 39.8375 62.1668 38.6708C62.1668 37.5042 61.6667 36.5041 60.8334 35.5041C59.8334 34.5041 59.8334 32.8376 60.8334 31.8376C61.8334 30.8376 63.5 30.8376 64.5 31.8376C66.3333 33.6709 67.3334 36.1708 67.3334 38.6708Z" fill="#DC5958"/>
<path d="M62 38.6709H67.3334C67.3334 41.1709 66.3333 43.6708 64.5 45.5041C63.5 46.5041 61.8334 46.5041 60.8334 45.5041C59.8334 44.5041 59.8334 42.8376 60.8334 41.8376C61.6667 41.0042 62 39.8375 62 38.6709Z" fill="#D7225B"/>
<path d="M78.5 38.6709C78.5 44.0042 76.5001 49.3375 72.3334 53.5042C71.3334 54.5042 69.6666 54.5042 68.6666 53.5042C67.6666 52.5042 67.6666 50.8375 68.6666 49.8375C71.6666 46.8375 73.1667 42.8375 73.1667 38.8375C73.1667 34.8375 71.6666 30.8375 68.6666 27.8375C67.6666 26.8375 67.6666 25.1709 68.6666 24.1709C69.6666 23.1709 71.3334 23.1709 72.3334 24.1709C76.5001 28.0042 78.5 33.3375 78.5 38.6709Z" fill="#FFE178"/>
<path d="M78.5 38.6709C78.5 44.0042 76.5001 49.3376 72.3334 53.5042C71.3334 54.5042 69.6666 54.5042 68.6666 53.5042C67.6666 52.5042 67.6666 50.8375 68.6666 49.8375C71.6666 46.8375 73.1667 42.8375 73.1667 38.8375H78.5V38.6709Z" fill="#FFB354"/>
<path d="M90 38.6708C90 46.8375 86.8332 55.0041 80.3333 61.3374C79.3333 62.3374 77.6667 62.3374 76.6667 61.3374C75.6667 60.3374 75.6667 58.6708 76.6667 57.6708C82 52.3375 84.6667 45.5042 84.6667 38.6708C84.6667 31.8375 82 25.0042 76.6667 19.6708C75.6667 18.6708 75.6667 17.0043 76.6667 16.0043C77.6667 15.0043 79.3333 15.0043 80.3333 16.0043C86.8332 22.3376 90 30.5042 90 38.6708Z" fill="#C4DF91"/>
<path d="M90 38.6709C90 46.8375 86.8332 55.0041 80.3333 61.3374C79.3333 62.3374 77.6667 62.3374 76.6667 61.3374C75.6667 60.3374 75.6667 58.6709 76.6667 57.6709C82 52.3375 84.6667 45.5042 84.6667 38.6709H90Z" fill="#C3FF52"/>
</svg>
