<svg width="54" height="46" viewBox="0 0 54 46" fill="none" xmlns="http://www.w3.org/2000/svg">
<path d="M12.6 11.2V34.8C12.6 35.7 11.9 36.4 11 36.4H1.59998C0.699976 36.4 0 35.7 0 34.8V11.2C0 10.3 0.699976 9.59998 1.59998 9.59998H11C11.8 9.59998 12.6 10.3 12.6 11.2Z" fill="#B49BFF"/>
<path d="M12.6 23V34.8C12.6 35.7 11.9 36.4 11 36.4H1.59998C0.699976 36.4 0 35.7 0 34.8V23H12.6Z" fill="#A485FF"/>
<path d="M32 4.99996V41C32 44.7 28 47 24.8 45.1L10.6 36.5V9.69997L24.8 1.09997C27.9 -1.00003 32 1.29996 32 4.99996Z" fill="#F2EDFF"/>
<path d="M32 23V41C32 44.7 28 47 24.8 45.1L10.6 36.5V23H32Z" fill="#E6D8FB"/>
<path d="M40.4001 23C40.4001 24.5 39.8 26 38.7 27.1C38.1 27.7 37.1 27.7 36.5 27.1C35.9 26.5 35.9 25.5 36.5 24.9C37 24.4 37.3001 23.7 37.3001 23C37.3001 22.3 37 21.7 36.5 21.1C35.9 20.5 35.9 19.5 36.5 18.9C37.1 18.3 38.1 18.3 38.7 18.9C39.8 20 40.4001 21.5 40.4001 23Z" fill="#DC5958"/>
<path d="M37.2 23H40.4001C40.4001 24.5 39.8 26 38.7 27.1C38.1 27.7 37.1 27.7 36.5 27.1C35.9 26.5 35.9 25.5 36.5 24.9C37 24.4 37.2 23.7 37.2 23Z" fill="#D7225B"/>
<path d="M47.1 23C47.1 26.2 45.9001 29.4 43.4001 31.9C42.8001 32.5 41.8 32.5 41.2 31.9C40.6 31.3 40.6 30.3 41.2 29.7C43 27.9 43.9001 25.5 43.9001 23.1C43.9001 20.7 43 18.3 41.2 16.5C40.6 15.9 40.6 14.8999 41.2 14.2999C41.8 13.6999 42.8001 13.6999 43.4001 14.2999C45.9001 16.5999 47.1 19.8 47.1 23Z" fill="#FFE178"/>
<path d="M47.1 23C47.1 26.2 45.9001 29.4 43.4001 31.9C42.8001 32.5 41.8 32.5 41.2 31.9C40.6 31.3 40.6 30.3 41.2 29.7C43 27.9 43.9001 25.5 43.9001 23.1H47.1V23Z" fill="#FFB354"/>
<path d="M54 23C54 27.9 52.1 32.8 48.2 36.6C47.6 37.2 46.6 37.2 46 36.6C45.4 36 45.4 35 46 34.4C49.2 31.2 50.8001 27.1 50.8001 23C50.8001 18.9 49.2 14.8 46 11.6C45.4 11 45.4 9.99995 46 9.39995C46.6 8.79995 47.6 8.79995 48.2 9.39995C52.1 13.2 54 18.1 54 23Z" fill="#C4DF91"/>
<path d="M54 23C54 27.9 52.1 32.8 48.2 36.6C47.6 37.2 46.6 37.2 46 36.6C45.4 36 45.4 35 46 34.4C49.2 31.2 50.8001 27.1 50.8001 23H54Z" fill="#C3FF52"/>
</svg>
