<svg width="150" height="150" viewBox="0 0 150 150" fill="none" xmlns="http://www.w3.org/2000/svg">
<circle cx="75" cy="75" r="75" fill="#C4C4C4"/>
<path d="M44.672 62.256C42.296 64.872 39.56 66.18 36.464 66.18C34.736 66.18 33.14 65.808 31.676 65.064C30.236 64.32 28.976 63.336 27.896 62.112C26.84 60.888 26.012 59.508 25.412 57.972C24.812 56.412 24.512 54.816 24.512 53.184C24.512 51.48 24.8 49.848 25.376 48.288C25.976 46.728 26.804 45.36 27.86 44.184C28.916 42.984 30.164 42.036 31.604 41.34C33.044 40.62 34.616 40.26 36.32 40.26C37.568 40.26 38.708 40.404 39.74 40.692C40.772 40.956 41.684 41.34 42.476 41.844C43.292 42.324 43.988 42.912 44.564 43.608C45.164 44.28 45.668 45.024 46.076 45.84L44.132 47.136C43.292 45.552 42.2 44.388 40.856 43.644C39.512 42.9 37.988 42.528 36.284 42.528C34.868 42.528 33.584 42.828 32.432 43.428C31.304 44.028 30.332 44.832 29.516 45.84C28.724 46.824 28.112 47.964 27.68 49.26C27.248 50.532 27.032 51.852 27.032 53.22C27.032 54.66 27.272 56.028 27.752 57.324C28.256 58.62 28.94 59.76 29.804 60.744C30.668 61.704 31.676 62.472 32.828 63.048C34.004 63.624 35.276 63.912 36.644 63.912C38.108 63.912 39.5 63.576 40.82 62.904C42.164 62.208 43.448 61.116 44.672 59.628V55.38H38.984V53.436H46.796V66H44.672V62.256ZM59.8935 40.44H62.0175L72.6375 66H69.9735L66.6615 58.008H55.1775L51.9015 66H49.2015L59.8935 40.44ZM66.0855 56.028L60.9375 43.392L55.7175 56.028H66.0855ZM98.9457 66V45.012L89.6217 61.248H88.1457L78.8217 45.012V66H76.3017V40.44H78.8937L88.8657 57.936L98.9097 40.44H101.466V66H98.9457ZM125.044 63.768V66H107.872V40.44H124.72V42.672H110.392V51.888H122.884V54.012H110.392V63.768H125.044ZM36.5 108.18C34.724 108.18 33.092 107.82 31.604 107.1C30.14 106.356 28.88 105.384 27.824 104.184C26.768 102.96 25.952 101.568 25.376 100.008C24.8 98.448 24.512 96.852 24.512 95.22C24.512 93.516 24.812 91.884 25.412 90.324C26.036 88.764 26.888 87.384 27.968 86.184C29.048 84.984 30.32 84.036 31.784 83.34C33.248 82.62 34.832 82.26 36.536 82.26C38.312 82.26 39.932 82.644 41.396 83.412C42.884 84.156 44.144 85.14 45.176 86.364C46.232 87.588 47.048 88.98 47.624 90.54C48.2 92.076 48.488 93.648 48.488 95.256C48.488 96.96 48.176 98.592 47.552 100.152C46.952 101.712 46.112 103.092 45.032 104.292C43.976 105.468 42.716 106.416 41.252 107.136C39.788 107.832 38.204 108.18 36.5 108.18ZM27.032 95.22C27.032 96.612 27.26 97.956 27.716 99.252C28.172 100.524 28.82 101.664 29.66 102.672C30.5 103.656 31.496 104.448 32.648 105.048C33.8 105.624 35.084 105.912 36.5 105.912C37.94 105.912 39.248 105.6 40.424 104.976C41.6 104.352 42.596 103.536 43.412 102.528C44.228 101.52 44.852 100.38 45.284 99.108C45.74 97.836 45.968 96.54 45.968 95.22C45.968 93.828 45.728 92.496 45.248 91.224C44.792 89.928 44.144 88.788 43.304 87.804C42.464 86.82 41.468 86.04 40.316 85.464C39.164 84.864 37.892 84.564 36.5 84.564C35.06 84.564 33.752 84.876 32.576 85.5C31.4 86.1 30.404 86.904 29.588 87.912C28.772 88.92 28.136 90.06 27.68 91.332C27.248 92.604 27.032 93.9 27.032 95.22ZM52.1819 82.44L61.3259 104.868L70.4339 82.44H73.0619L62.4059 108H60.2099L49.5539 82.44H52.1819ZM93.8955 105.768V108H76.7235V82.44H93.5715V84.672H79.2435V93.888H91.7355V96.012H79.2435V105.768H93.8955ZM98.661 108V82.44H109.461C110.565 82.44 111.573 82.68 112.485 83.16C113.421 83.616 114.225 84.228 114.897 84.996C115.569 85.74 116.085 86.592 116.445 87.552C116.829 88.512 117.021 89.484 117.021 90.468C117.021 91.404 116.877 92.304 116.589 93.168C116.325 94.008 115.941 94.776 115.437 95.472C114.957 96.144 114.369 96.72 113.673 97.2C112.977 97.656 112.197 97.968 111.333 98.136L117.597 108H114.753L108.741 98.568H101.181V108H98.661ZM101.181 96.336H109.533C110.277 96.336 110.949 96.18 111.549 95.868C112.173 95.532 112.701 95.088 113.133 94.536C113.565 93.984 113.901 93.36 114.141 92.664C114.381 91.968 114.501 91.236 114.501 90.468C114.501 89.7 114.357 88.968 114.069 88.272C113.805 87.552 113.433 86.928 112.953 86.4C112.497 85.872 111.945 85.452 111.297 85.14C110.673 84.828 110.013 84.672 109.317 84.672H101.181V96.336Z" fill="#731C9B"/>
</svg>
