<svg width="97" height="96" viewBox="0 0 97 96" fill="none" xmlns="http://www.w3.org/2000/svg">
<g filter="url(#filter0_d)">
<circle cx="48" cy="44" r="42" fill="#D6F229" stroke="#23C8EC" stroke-width="3"/>
<path d="M41.344 51.352V49.336C41.344 47.704 41.904 46.328 43.024 45.208C44.176 44.088 45.552 43.528 47.152 43.528H60.304C60.816 43.528 61.248 43.352 61.6 43C61.984 42.616 62.176 42.168 62.176 41.656V32.344C62.176 31.832 61.984 31.4 61.6 31.048C61.248 30.664 60.816 30.472 60.304 30.472H35.488V26.44L60.304 26.488C61.904 26.488 63.264 27.064 64.384 28.216C65.536 29.336 66.112 30.712 66.112 32.344V41.656C66.112 43.256 65.536 44.632 64.384 45.784C63.264 46.904 61.904 47.464 60.304 47.464H47.152C46.64 47.464 46.192 47.656 45.808 48.04C45.456 48.392 45.28 48.824 45.28 49.336V51.352H41.344ZM41.344 61V57.064H45.28V61H41.344Z" fill="#42EDF8"/>
<path d="M41.344 51.352H39.844V52.852H41.344V51.352ZM43.024 45.208L41.9784 44.1325L41.9708 44.1399L41.9633 44.1473L43.024 45.208ZM61.6 43L62.6607 44.0607L62.6607 44.0607L61.6 43ZM61.6 31.048L60.4943 32.0616L60.5383 32.1097L60.5864 32.1537L61.6 31.048ZM35.488 30.472H33.988V31.972H35.488V30.472ZM35.488 26.44L35.4909 24.94L33.988 24.9371V26.44H35.488ZM60.304 26.488L60.3011 27.988H60.304V26.488ZM64.384 28.216L63.3085 29.2616L63.3232 29.2768L63.3384 29.2915L64.384 28.216ZM64.384 45.784L63.3233 44.7233L63.3233 44.7233L64.384 45.784ZM45.808 48.04L44.7473 46.9793L44.7473 46.9793L45.808 48.04ZM45.28 51.352V52.852H46.78V51.352H45.28ZM41.344 61H39.844V62.5H41.344V61ZM41.344 57.064V55.564H39.844V57.064H41.344ZM45.28 57.064H46.78V55.564H45.28V57.064ZM45.28 61V62.5H46.78V61H45.28ZM42.844 51.352V49.336H39.844V51.352H42.844ZM42.844 49.336C42.844 48.0883 43.2554 47.0979 44.0847 46.2687L41.9633 44.1473C40.5526 45.5581 39.844 47.3197 39.844 49.336H42.844ZM44.0696 46.2835C44.9429 45.4344 45.9443 45.028 47.152 45.028V42.028C45.1597 42.028 43.4091 42.7416 41.9784 44.1325L44.0696 46.2835ZM47.152 45.028H60.304V42.028H47.152V45.028ZM60.304 45.028C61.2011 45.028 62.0185 44.7028 62.6607 44.0607L60.5393 41.9393C60.4775 42.0012 60.4309 42.028 60.304 42.028V45.028ZM62.6607 44.0607C63.307 43.4143 63.676 42.5918 63.676 41.656H60.676C60.676 41.7442 60.661 41.8177 60.5393 41.9393L62.6607 44.0607ZM63.676 41.656V32.344H60.676V41.656H63.676ZM63.676 32.344C63.676 31.4033 63.3014 30.5727 62.6136 29.9423L60.5864 32.1537C60.6421 32.2048 60.6571 32.2359 60.6613 32.2452C60.6652 32.2539 60.676 32.2802 60.676 32.344H63.676ZM62.7057 30.0344C62.0753 29.3466 61.2447 28.972 60.304 28.972V31.972C60.3678 31.972 60.3941 31.9828 60.4028 31.9867C60.4121 31.9909 60.4432 32.0059 60.4943 32.0616L62.7057 30.0344ZM60.304 28.972H35.488V31.972H60.304V28.972ZM36.988 30.472V26.44H33.988V30.472H36.988ZM35.4851 27.94L60.3011 27.988L60.3069 24.988L35.4909 24.94L35.4851 27.94ZM60.304 27.988C61.4969 27.988 62.4696 28.3987 63.3085 29.2616L65.4595 27.1704C64.0584 25.7293 62.3111 24.988 60.304 24.988V27.988ZM63.3384 29.2915C64.1948 30.1241 64.612 31.11 64.612 32.344H67.612C67.612 30.314 66.8772 28.5479 65.4296 27.1405L63.3384 29.2915ZM64.612 32.344V41.656H67.612V32.344H64.612ZM64.612 41.656C64.612 42.8501 64.1998 43.8469 63.3233 44.7233L65.4447 46.8447C66.8722 45.4171 67.612 43.6619 67.612 41.656H64.612ZM63.3233 44.7233C62.4878 45.5588 61.5107 45.964 60.304 45.964V48.964C62.2973 48.964 64.0402 48.2492 65.4447 46.8447L63.3233 44.7233ZM60.304 45.964H47.152V48.964H60.304V45.964ZM47.152 45.964C46.2162 45.964 45.3937 46.333 44.7473 46.9793L46.8687 49.1007C46.9903 48.979 47.0638 48.964 47.152 48.964V45.964ZM44.7473 46.9793C44.1052 47.6215 43.78 48.4389 43.78 49.336H46.78C46.78 49.2091 46.8068 49.1625 46.8687 49.1007L44.7473 46.9793ZM43.78 49.336V51.352H46.78V49.336H43.78ZM45.28 49.852H41.344V52.852H45.28V49.852ZM42.844 61V57.064H39.844V61H42.844ZM41.344 58.564H45.28V55.564H41.344V58.564ZM43.78 57.064V61H46.78V57.064H43.78ZM45.28 59.5H41.344V62.5H45.28V59.5Z" fill="#BE2AD7"/>
</g>
<defs>
<filter id="filter0_d" x="0.5" y="0.5" width="95" height="95" filterUnits="userSpaceOnUse" color-interpolation-filters="sRGB">
<feFlood flood-opacity="0" result="BackgroundImageFix"/>
<feColorMatrix in="SourceAlpha" type="matrix" values="0 0 0 0 0 0 0 0 0 0 0 0 0 0 0 0 0 0 127 0"/>
<feOffset dy="4"/>
<feGaussianBlur stdDeviation="2"/>
<feColorMatrix type="matrix" values="0 0 0 0 0 0 0 0 0 0 0 0 0 0 0 0 0 0 0.25 0"/>
<feBlend mode="normal" in2="BackgroundImageFix" result="effect1_dropShadow"/>
<feBlend mode="normal" in="SourceGraphic" in2="effect1_dropShadow" result="shape"/>
</filter>
</defs>
</svg>
