<svg width="49" height="43" viewBox="0 0 49 43" fill="none" xmlns="http://www.w3.org/2000/svg">
<path d="M14.0001 19.4C13.9001 20.2 14.9001 20.6 15.4001 20C15.6001 19.8 15.8 19.5 16.1 19.3C17.9 17.7 20.6 18.5 21.2 20.8C21.5 22 21.1 23 20.2 23.9C17.6 26.5 14.9001 29.1 12.3001 31.8C12.0001 32.1 11.7001 32.5 11.4001 32.8C11.1001 33.1 10.6001 33.1 10.3001 32.8C10.2001 32.7 10.0001 32.5 9.80011 32.2C7.70011 29.3 5.20008 26.8 2.40008 24.7C0.900083 23.6 8.32379e-05 22.3 0.400083 20.7C1.00008 18.6 3.50001 17.7 5.20001 19.1C5.50001 19.4 5.90001 19.7 6.20001 20C6.60001 20.4 7.40008 20.2 7.40008 19.6C7.50008 18.9 7.60001 18.1 7.70001 17.4C9.30001 9.10001 16.3 2.4 24.6 1.1C35.1 -0.599995 46.1001 6.1 48.4001 17.8C50.5001 28.8 43.2 39.7 32.2 41.9C27.2 42.9 22.5 42.2 18.1 39.8C16.7 39 16 37.7 16.2 36.3C16.4 34.9 17.4001 33.8 18.8001 33.5C19.7001 33.3 20.5001 33.5 21.3001 33.9C23.6001 35.1 26.1 35.7 28.7 35.6C35.2 35.4 41.0001 30.2 41.9001 23.9C43.1001 16.2 38.3 9.2 30.7 7.70001C23 6.20001 15.2001 11.6 14.0001 19.4Z" fill="#F1BC19"/>
</svg>
