<svg width="127" height="127" viewBox="0 0 127 127" fill="none" xmlns="http://www.w3.org/2000/svg">
<path d="M11.6 31.7C29.3 2.79999 67.1 -6.3 96.1 11.4C101.2 14.5 105.8 18.4 109.8 22.8C119.9 34.1 125.5 48.7 125.5 63.8C125.5 97.7 98 125.3 64 125.3C30 125.3 2.5 97.8 2.5 63.8C2.5 52.5 5.59998 41.4 11.6 31.7Z" fill="#F7643C"/>
<path d="M12.5 63.9C12.5 31.9 37 5.30001 68.9 2.70001C67.2 2.60001 65.6 2.5 63.9 2.5C30 2.5 2.50002 30 2.40002 63.9C2.40002 97.8 29.9 125.4 63.9 125.4C65.6 125.4 67.3 125.3 68.9 125.2C37.4 122.6 12.5 96.1 12.5 63.9Z" fill="#FFA233"/>
<path d="M33.1 57.4C44.477 57.4 53.7 48.1771 53.7 36.8C53.7 25.4229 44.477 16.2 33.1 16.2C21.7229 16.2 12.5 25.4229 12.5 36.8C12.5 48.1771 21.7229 57.4 33.1 57.4Z" fill="#CC5A26"/>
<path d="M71.9 73.1C78.7484 73.1 84.3 67.5483 84.3 60.7C84.3 53.8517 78.7484 48.3 71.9 48.3C65.0517 48.3 59.5 53.8517 59.5 60.7C59.5 67.5483 65.0517 73.1 71.9 73.1Z" fill="#CC5A26"/>
<path d="M91.4 107.2C99.3529 107.2 105.8 100.753 105.8 92.8C105.8 84.8471 99.3529 78.4 91.4 78.4C83.4471 78.4 77 84.8471 77 92.8C77 100.753 83.4471 107.2 91.4 107.2Z" fill="#CC5A26"/>
<path d="M27 82.9C19.4 82.9 12.9 88.4 11.6 95.9C16 103.1 21.9 109.3 28.8 114.2C37.4 113.2 43.6 105.5 42.7 96.9C41.7 88.9 34.9 82.9 27 82.9Z" fill="#CC5A26"/>
<path d="M109.7 22.9C103.6 16.1 96.1 10.8 87.7 7.20001C87.2 7.00001 86.7 6.79998 86.2 6.59998C77.2 10.4 73 20.8 76.9 29.8C80.8 38.8 91.1 43 100.1 39.1C106.2 36.5 110.3 30.7 110.8 24.1C110.5 23.7 110.1 23.3 109.7 22.9Z" fill="#CC5A26"/>
<path d="M92.9 28.2C95.7167 28.2 98 25.9166 98 23.1C98 20.2833 95.7167 18 92.9 18C90.0834 18 87.8 20.2833 87.8 23.1C87.8 25.9166 90.0834 28.2 92.9 28.2Z" fill="#FCC251"/>
<path d="M91.2 97.2C93.3539 97.2 95.1 95.4539 95.1 93.3C95.1 91.1461 93.3539 89.4 91.2 89.4C89.046 89.4 87.3 91.1461 87.3 93.3C87.3 95.4539 89.046 97.2 91.2 97.2Z" fill="#FCC251"/>
<path d="M71.9 65.3C74.4405 65.3 76.5 63.2405 76.5 60.7C76.5 58.1595 74.4405 56.1 71.9 56.1C69.3595 56.1 67.3 58.1595 67.3 60.7C67.3 63.2405 69.3595 65.3 71.9 65.3Z" fill="#FCC251"/>
<path d="M27.6 105.3C31.6317 105.3 34.9 102.032 34.9 98C34.9 93.9683 31.6317 90.7 27.6 90.7C23.5683 90.7 20.3 93.9683 20.3 98C20.3 102.032 23.5683 105.3 27.6 105.3Z" fill="#FCC251"/>
<path d="M12.8 29.7C12.8 30.1 12.7 30.5 12.7 30.8C12.7 37.5 18.1 43 24.9 43C31.7 43 37.1 37.6 37.1 30.8C37.1 24 31.7 18.6 24.9 18.6C23.9 18.6 22.8 18.7 21.8 19C18.5 22.3 15.4 25.9 12.8 29.7Z" fill="#FCC251"/>
<path d="M92.8001 41.7C97.4001 41.7 101.8 40 105.2 36.9C105.8 36.3 105.9 35.4 105.3 34.8C104.7 34.2 103.8 34.1 103.2 34.7C96.9 40.4 87.2 39.9 81.4 33.7C80.7 32.9 80.1 32.1 79.5 31.1C79.1 30.4 78.2 30.2 77.4 30.6C76.7 31 76.5 31.9 76.9 32.7C80.3 38.2 86.3001 41.7 92.8001 41.7Z" fill="#C75030"/>
<path d="M110.8 21.8C110 20.9 109.2 20.1 108.4 19.3C83.8001 -5.30002 44.0001 -5.30002 19.4001 19.3C-5.19993 43.9 -5.19993 83.7 19.4001 108.3C44.0001 132.9 83.9001 132.9 108.4 108.3C132.1 84.7 133.1 46.8 110.8 21.8C110.9 21.9 110.9 21.9 110.8 21.8ZM123.9 63.9C123.9 97 97.0001 123.9 63.9001 123.8C52.3001 123.8 41.0001 120.4 31.3001 114.1C33.7001 113.6 36 112.5 38 111C38.7001 110.5 38.8001 109.5 38.3001 108.9C37.8001 108.2 36.9 108.1 36.2 108.6C33.8 110.5 30.8001 111.5 27.8001 111.5H27.7C22.3 107.4 17.7001 102.4 14 96.8C14.3 91.5 17.6 86.9 22.5 84.8C23.3 84.5 23.6001 83.6 23.3001 82.8C23.0001 82 22.1001 81.7 21.3001 82C16.6001 84 13 88 11.6 92.9C2.10003 75.7 1.6001 54.8 10.3001 37.2C10.4001 42 12.1 46.7 15 50.5C15.5 51.2 16.5 51.3 17.1 50.8C17.8 50.3 17.9001 49.3 17.4001 48.7C15.2001 45.9 13.8001 42.5 13.4001 38.9C16.0001 41.9 19.8 43.6 23.7 43.6C23.8 43.6 23.9 43.6 24 43.6C31.6 43.4 37.6001 37.1 37.4001 29.4C37.4001 27.9 37.1 26.4 36.5 24.9C36.2001 24.1 35.4 23.7 34.6 24C33.8 24.3 33.4 25.1 33.7 25.9C35.8 31.5 32.9001 37.7 27.4001 39.8C21.9001 41.9 15.6 39 13.5 33.5C13.3 33 13.2 32.5 13.1 32C15.5 28.2 18.3 24.7 21.5 21.5C22.3 20.7 23.1001 20 23.9001 19.3C26.8001 19.3 29.1 20.1 31 21.9C31.6 22.5 32.6 22.4 33.1 21.8C33.7 21.2 33.6 20.3 33 19.7C31.8 18.5 30.3 17.6 28.7 17C36.9 15.1 45.4001 18.6 49.9001 25.7C50.4001 26.4 51.3 26.6 52 26.1C52.7001 25.6 52.9001 24.7 52.4001 24C48.2001 17.4 40.9 13.5 33.1 13.5C32.4 13.5 31.8 13.5 31.1 13.6C46.7 3.49996 66.1 1.19998 83.6 7.29998C77.8 10.6 74.2 16.7 74.2 23.3C74.2 24.4 74.3 25.6 74.5 26.7C74.6 27.4 75.3 27.9 76 27.9C76.1 27.9 76.2001 27.9 76.3001 27.9C77.1001 27.7 77.7 27 77.5 26.1C77.3 25.2 77.2 24.2 77.2 23.3C77.2 16.8 81.3 10.9 87.5 8.79998C94.5 11.8 100.8 16.1 106.1 21.5C106.7 22.1 107.4 22.8 108 23.5C108 25.5 107.6 27.5 106.8 29.3C106.5 30.1 106.8 30.9 107.6 31.3C108.4 31.6 109.2 31.3 109.6 30.5C110.1 29.3 110.5 28 110.7 26.7C119.4 37.2 123.9 50.3 123.9 63.9Z" fill="#F7643C"/>
<path d="M92.2 29.7C93 29.7 93.7 29 93.7 28.2C93.7 27.4 93 26.7 92.2 26.7C90.5 26.7 89.1 25.3 89.1 23.6C89.1 21.9 90.5 20.5 92.2 20.5C93 20.5 93.7 19.8 93.7 19C93.7 18.2 93 17.5 92.2 17.5C88.8 17.5 86.1 20.2 86.1 23.6C86.1 27 88.9 29.7 92.2 29.7Z" fill="#C75030"/>
<path d="M72 66.9C72.8 66.9 73.5 66.2 73.5 65.4C73.5 64.6 72.8 63.9 72 63.9C70.3 63.9 68.9001 62.5 68.9001 60.8C68.9001 59.1 70.3 57.7 72 57.7C73.7 57.7 75.1 59.1 75.1 60.8C75.1 61.6 75.8 62.3 76.6 62.3C77.4 62.3 78.1 61.6 78.1 60.8C78.1 57.4 75.4 54.7 72 54.7C68.6 54.7 65.9001 57.4 65.9001 60.8C65.8001 64.2 68.6 66.9 72 66.9Z" fill="#C75030"/>
<path d="M85.6999 60.8C85.6999 58.7 85.2 56.7 84.4 54.9C84 54.1 83.2 53.8 82.4 54.2C81.6 54.6 81.2999 55.4 81.6999 56.2C82.3999 57.6 82.6999 59.2 82.6999 60.8C82.6999 66.8 77.9 71.6 71.9 71.6C65.9 71.6 61.0999 66.8 61.0999 60.8C61.0999 58.2 61.9999 55.7 63.6999 53.8C64.1999 53.2 64.2 52.2 63.5 51.7C62.9 51.2 61.9 51.2 61.4 51.9C56.4 57.7 57.1 66.4 62.8 71.4C68.6 76.4 77.3 75.7 82.3 70C84.6 67.3 85.6999 64.1 85.6999 60.8Z" fill="#C75030"/>
<path d="M72 50C74.5 50 77 50.9 78.9 52.5C79.5 53 80.5 53 81 52.3C81.5 51.7 81.5 50.7 80.8 50.2C78.3 48.1 75.2 47 71.9 47C71.1 47 70.4 47.7 70.4 48.5C70.4 49.3 71.1 50 72 50Z" fill="#C75030"/>
<path d="M41.4 90.5C40.6 90.8 40.2999 91.7 40.5999 92.5C41.8999 95.6 42 99.1 40.8 102.3C40.5 103.1 40.8999 103.9 41.6999 104.2C42.4999 104.5 43.2999 104.1 43.5999 103.3C44.9999 99.4 44.9 95.2 43.3 91.3C43 90.5 42.1 90.2 41.4 90.5Z" fill="#C75030"/>
<path d="M33.9999 82C33.1999 81.7 32.3999 82.1 31.9999 82.8C31.6999 83.6 32.1 84.4 32.8 84.8C34.6 85.5 36.1999 86.6 37.5999 88C38.1999 88.6 39.0999 88.6 39.6999 88C40.2999 87.4 40.2999 86.5 39.6999 85.9C38.1999 84.2 36.1999 82.9 33.9999 82Z" fill="#C75030"/>
<path d="M35.4 96.2C34.6 96.2 33.9 96.9 33.9 97.7C33.9 101.1 31.1 103.9 27.7 103.9C24.3 103.9 21.5 101.1 21.5 97.7C21.5 94.3 24.3 91.5 27.7 91.5C28.5 91.5 29.2 90.8 29.2 90C29.2 89.2 28.5 88.5 27.7 88.5C22.6 88.5 18.5 92.6 18.5 97.7C18.5 102.8 22.6 106.9 27.7 106.9C32.8 106.9 36.9 102.8 36.9 97.7C36.9 96.8 36.2 96.2 35.4 96.2Z" fill="#C75030"/>
<path d="M54.6999 35C53.8999 35 53.1999 35.7 53.1999 36.5C53.1999 47.6 44.1999 56.5 33.1999 56.5C29.8999 56.5 26.5999 55.7 23.6999 54.1C22.9999 53.7 22.0999 54 21.6999 54.7C21.2999 55.4 21.6 56.3 22.3 56.7C33.5 62.8 47.3999 58.6 53.4999 47.4C55.2999 44 56.3 40.3 56.3 36.4C56.2 35.7 55.5999 35 54.6999 35Z" fill="#C75030"/>
<path d="M78.4 92.7C78.4 90.6 78.9 88.4 79.9 86.6C80.3 85.9 80 85 79.3 84.6C78.6 84.2 77.7 84.5 77.3 85.2C74 91.4 75.1 99.1 80.1 104.1C80.7 104.7 81.5999 104.7 82.1999 104.1C82.7999 103.5 82.7999 102.6 82.1999 102C79.6999 99.5 78.4 96.2 78.4 92.7Z" fill="#C75030"/>
<path d="M104.5 98.8C103.8 98.4 102.9 98.6 102.4 99.3C100.1 103.2 95.8 105.6 91.3 105.6C89.7 105.6 88.0999 105.3 86.5999 104.7C85.7999 104.4 84.9999 104.8 84.5999 105.5C84.2999 106.3 84.7 107.1 85.4 107.5C92.7 110.3 100.9 107.5 104.9 100.8C105.5 100.2 105.2 99.2 104.5 98.8Z" fill="#C75030"/>
<path d="M91.3 76.8C90.5 76.8 89.8 77.5 89.8 78.3C89.8 79.1 90.5 79.8 91.3 79.8C98.4 79.8 104.2 85.6 104.2 92.7C104.2 93.5 104.9 94.2 105.7 94.2C106.5 94.2 107.2 93.5 107.2 92.7C107.2 83.9 100.1 76.8 91.3 76.8Z" fill="#C75030"/>
<path d="M90.7 92.1C91.5 92.1 92.2 91.4 92.2 90.6C92.2 89.8 91.5 89.1 90.7 89.1C88.2 89.1 86.1 91.1 86.1 93.7C86.1 96.3 88.1 98.3 90.7 98.3C91.5 98.3 92.2 97.6 92.2 96.8C92.2 96 91.5 95.3 90.7 95.3C89.8 95.3 89.1 94.6 89.1 93.7C89.1 92.8 89.8 92.1 90.7 92.1Z" fill="#C75030"/>
</svg>
