<svg width="152" height="126" viewBox="0 0 152 126" fill="none" xmlns="http://www.w3.org/2000/svg">
<path d="M77.6 122.3C110.295 122.3 136.8 95.7952 136.8 63.1C136.8 30.4047 110.295 3.90002 77.6 3.90002C44.9047 3.90002 18.4 30.4047 18.4 63.1C18.4 95.7952 44.9047 122.3 77.6 122.3Z" fill="#AC2743" stroke="#AC2743" stroke-width="6.0681" stroke-miterlimit="10"/>
<path d="M116.7 102.7C95.6999 123.7 68.8999 127 44.5999 108.8C20.5999 90.7 18.5999 46.8 39.5999 25.8C60.5999 4.80001 96.8999 2.90004 118.2 24.2C139.5 45.4 137.7 81.7 116.7 102.7Z" fill="#C13356"/>
<path d="M114.8 102.5C94.2001 123.2 67.5001 126.3 43.3001 108C19.3001 89.8 17.1 46.2 37.7 25.6C58.3 4.99997 94.5 3.29998 116 24.3C141.3 48.9 135.5 81.8 114.8 102.5Z" fill="#EF4660"/>
<path d="M123.4 36C128.371 36 132.4 31.9706 132.4 27C132.4 22.0294 128.371 18 123.4 18C118.429 18 114.4 22.0294 114.4 27C114.4 31.9706 118.429 36 123.4 36Z" fill="#8DC63F" stroke="#AC2743" stroke-width="5.1579" stroke-miterlimit="10"/>
<path d="M29.3001 55.5C26.8001 58 26.4 61.6 28.4 63.6" stroke="#AC2743" stroke-width="3.034" stroke-miterlimit="10" stroke-linecap="round" stroke-linejoin="round"/>
<path d="M137.1 65C145.2 69.3 148.5 73.5 148.3 78.7C147.6 92 114.7 101.2 74.6999 99.2C34.6999 97.2 2.79995 84.7 3.49995 71.4C3.79995 65.4 7.1 61.5 18.3 57.8" stroke="#AC2743" stroke-width="6.0681" stroke-miterlimit="10"/>
<path d="M53.9 106.4C59.3676 106.4 63.8 101.968 63.8 96.5C63.8 91.0324 59.3676 86.6 53.9 86.6C48.4324 86.6 44 91.0324 44 96.5C44 101.968 48.4324 106.4 53.9 106.4Z" fill="#8DC63F" stroke="#AC2743" stroke-width="5.1579" stroke-miterlimit="10"/>
<path d="M76.3 89.2L114.9 87.9" stroke="#AC2743" stroke-width="5.1579" stroke-miterlimit="10" stroke-linecap="round" stroke-linejoin="round"/>
<path d="M62 19.2C74.1 11.3 88.2 11.5 93.6 19.8" stroke="#AC2743" stroke-width="5.1579" stroke-miterlimit="10" stroke-linecap="round" stroke-linejoin="round"/>
</svg>
