<svg width="121" height="121" viewBox="0 0 121 121" fill="none" xmlns="http://www.w3.org/2000/svg">
<path d="M81 57.9C89 59.3 104.5 54.4 111.9 51.3C114.2 49.7 116.3 47.9 118.3 45.9C119.8 51.7 120.4 57.7 120.1 63.7C114.2 67.6 107.7 70.4 100.8 71.9L100.7 71.8C88 75.7 67.9 68.5 60.1 65.2C57 63.4 54.1 61.3 51.5 58.9C47.3 55.2 48.6 48.4 53.8 46.4C56.5 45.4 59.5 46 61.6 47.9C63.6 49.8 65.7 51.6 67.6 52.7C69.6 54 76.4 56.9 81 57.9Z" fill="#6ADDC7"/>
<path d="M60 65.3C67.8 68.6 87.9 75.8 100.7 71.9L100.8 72C107.7 70.5 114.2 67.7 120.1 63.8C119.8 69.5 118.7 75.2 116.8 80.6C109.7 84.9 92.7 87.2 84.5 87.9C83.1 87.9 74.2 87 70.3 86.6C63 85.5 57.7 83.9 56.8 83.5C53.1 82 48.9 83.8 47.4 87.5C46 91.1 47.6 95.1 51 96.7C52.3 97.3 54.6 98 57.7 98.8V98.9C64 99.9 80.4 102.1 88.1 101.7V101.8C92.2 101.3 103 99.7999 106.8 98.6C101.1 105.6 93.9 111.3 85.7 115.1C85.7 115.1 69.3 111.7 60.3 109.7L60.2 109.8C55.7 108.5 51.6 106.9 48.7 105C48.2 104.7 47.7 104.5 47.1 104.5C46.1 104.5 45.2 104.9 44.6 105.6C43.2 107 43.2 109.2 44.6 110.6C44.9 110.9 45.2 111.1 45.5 111.3C53.7 115.4 62.4 118.2 71.3 119.8C38.7 125.9 7.40001 104.5 1.20001 72C0.600012 68.7 0.200012 65.4 0.200012 62H0.399994C0.399994 62 1.69999 65.7999 4.79999 71.6C5.89999 73.6 8.4 74.4 10.5 73.3C12.5 72.2 13.3 69.7 12.2 67.6C12.2 67.5 12.1 67.4 12.1 67.4C6.90001 59 2.70001 44.2 2.70001 44.2C4.10001 39.4 6.10001 34.7 8.70001 30.4C8.90001 30 9.19999 29.6 9.39999 29.2C9.39999 31.4 9.49999 33.5 9.79999 35.7H9.89999C11.3 41.9 14.3 53.7 16.4 59.1C17.4 61.9 20.6 63.3 23.3 62.3C25.4 61.5 26.8 59.5 26.8 57.2C26.8 56.4 26.6 55.5 26.2 54.8C25.5 53.4 21.5 41.5 20.5 38.9C20.3 38.1 20.2 37.3 20 36.5C19.7 34.7 19.4 32.8 19.3 31C18.9 26.3 19 21.5 19.6 16.8C23.8 12.9 28.5 9.69999 33.6 7.19999C33 10.4 32.7 13.7 32.7 17C32.6 21.2 36 24.7 40.2 24.8C44.4 24.9 47.9 21.5 48 17.3C48.1 15.7 48.9 8.49999 49 6.69999V6.59995C49.3 4.89995 49.7 3.29999 50.4 1.69999C55.1 0.89999 59.9 0.699954 64.6 1.09995C63.9 3.39995 63.5 5.69995 63.5 8.09995V8.19999C63.8 10.2 64.5 16.4 65.2 18.3C66.4 21.5 69.9 23.2 73.1 22C76.1 20.9 77.8 17.7 77 14.6C75.9 9.99995 77.2 5.39999 78.2 3.69999V3.59995C87.1 6.39995 95.2 11.2 101.9 17.7C100.7 19.8 94.5 23.1 92.5 24.2C91 24.5 89.5 24.5 88 24.3C85.4 23.9 82.9 25.3 81.8 27.7L81.6 28.1C80.4 31 81.7 34.3 84.6 35.6C85 35.8 85.4 35.9 85.8 36C87.5 36.3 89.2 36.5 90.9 36.5C91 36.4 91 36.3 91.1 36.1C93 32.8 97.3 31.8 100.5 33.7C100.9 33.9 101.2 34.2 101.5 34.4C104.9 33 108 30.9 110.6 28.3C114.1 33.8 116.7 39.8 118.3 46.1C116.4 48.1 114.2 49.9 111.9 51.5C104.5 54.6 89 59.5 81 58V58.1C76.4 57.1 69.6 54.2 67.5 52.9C65.7 51.8 63.5 50 61.5 48.1C59.4 46.1 56.4 45.5 53.7 46.6C48.5 48.6 47.2 55.4 51.4 59.1C54.1 61.4 57 63.5 60 65.3ZM32.8 101.1C34.4 99.5 34.4 96.9 32.8 95.3C32.7 95.2 32.6 95.1 32.6 95.1C30.3 93.2 28.3 91.2 26.3 89.2C25.5 88.4 20.9 83 20.1 82.2C18.6 80.4 16 80.2 14.3 81.7C12.6 83.1 12.3 85.7 13.7 87.4C15.2 89.3 16.9 91.2 18.7 93.2C19.8 94.3 26 100.3 27.3 101.3C28.9 102.7 31.3 102.6 32.8 101.1Z" fill="#A267F4"/>
<path d="M70.3 86.5C74.2 86.9 83.1 87.7 84.5 87.8C92.6 87.1 109.7 84.8 116.8 80.5C114.5 87 111.1 93.1 106.7 98.5C102.9 99.7 92.1 101.2 88 101.7V101.6C80.3 101.9 64 99.7 57.6 98.8V98.7C54.5 98 52.2 97.2 50.9 96.6C47.3 94.9 45.7 90.7 47.4 87C49 83.5 53.1 81.9 56.6 83.4C57.7 83.8 62.9 85.3 70.3 86.5Z" fill="#6ADDC7"/>
<path d="M92.4 24.1C94.4 23 100.6 19.7 101.8 17.6C105.1 20.8 108 24.3 110.5 28.2C107.9 30.8 104.8 32.9 101.4 34.3C101.1 34 100.7 33.8 100.4 33.6C97.1 31.7 92.9 32.7 91 36C90.9 36.1 90.9 36.2 90.8 36.4C89.1 36.4 87.4 36.2 85.7 35.9C82.6 35.3 80.6 32.3 81.2 29.2C81.3 28.8 81.4 28.4 81.6 28L81.8 27.6C82.8 25.2 85.4 23.8 88 24.2C89.3 24.4 90.9 24.4 92.4 24.1Z" fill="#6ADDC7"/>
<path d="M78.1 3.5C77.1 5.2 75.7 9.8 76.9 14.5C77.8 17.8 75.8 21.2 72.5 22C69.4 22.8 66.2 21.1 65.1 18.1C64.4 16.2 63.7 10 63.4 8V7.90002C63.5 5.50002 63.8 3.20002 64.5 0.900024C69.2 1.30002 73.7 2.1 78.1 3.5Z" fill="#6ADDC7"/>
<path d="M60.3 109.6C69.3 111.7 85.7 115 85.7 115C81.1 117.1 76.3 118.7 71.3 119.6C62.3 118 53.6 115.2 45.5 111.1C43.8 110.2 43 108.1 43.9 106.4C44.1 106.1 44.3 105.8 44.6 105.5C45.3 104.8 46.2 104.4 47.1 104.4C47.7 104.4 48.2 104.6 48.7 104.9C51.6 106.7 55.7 108.3 60.2 109.7L60.3 109.6Z" fill="#6ADDC7"/>
<path d="M50.4 1.59998C49.8 3.19998 49.3 4.8 49 6.5V6.59998C48.8 8.39998 48 15.6 48 17.2C47.9 21.4 44.3 24.7 40.1 24.6C36 24.5 32.7 21 32.7 16.9C32.7 13.6 33 10.3 33.6 7.09998C38.9 4.39998 44.5 2.49998 50.4 1.59998Z" fill="#6ADDC7"/>
<path d="M20.1 82.2C20.9 83 25.5 88.4 26.3 89.2C28.2 91.2 30.3 93.1 32.6 95.1C34.3 96.6 34.5 99.2 33 100.9C31.5 102.6 29 102.8 27.3 101.4C26.1 100.4 19.9 94.3 18.7 93.3C16.9 91.4 15.3 89.4 13.7 87.5C12.3 85.7 12.6 83.1 14.4 81.7C16.1 80.2 18.7 80.5 20.1 82.2Z" fill="#6ADDC7"/>
<path d="M20.5 38.7C21.5 41.2 25.5 53.1 26.2 54.6C26.6 55.4 26.8 56.2 26.8 57C26.8 60 24.4 62.4 21.4 62.4C19.1 62.4 17.1 61 16.3 58.9C14.3 53.5 11.2 41.6 9.8 35.5H9.70002C9.40002 33.4 9.2 31.2 9.3 29C12.1 24.5 15.6 20.3 19.5 16.7C18.9 21.4 18.8 26.2 19.2 30.9C19.4 32.7 19.6 34.6 19.9 36.4C20.2 37.1 20.3 37.9 20.5 38.7Z" fill="#6ADDC7"/>
<path d="M12.6 69.4C12.6 71.7 10.7 73.6 8.4 73.6C6.9 73.6 5.50001 72.8 4.70001 71.4C1.60001 65.7 0.29999 61.8 0.29999 61.8H0.100008C8.19564e-06 55.7 0.800002 49.7 2.5 43.9C2.5 43.9 6.7 58.7 11.9 67.1C12.4 67.9 12.6 68.6 12.6 69.4Z" fill="#6ADDC7"/>
<path d="M43.5 43.9C47.9735 43.9 51.6 40.2735 51.6 35.8C51.6 31.3265 47.9735 27.7 43.5 27.7C39.0265 27.7 35.4 31.3265 35.4 35.8C35.4 40.2735 39.0265 43.9 43.5 43.9Z" fill="#EEE051"/>
<path d="M33.2 80.6C36.4585 80.6 39.1 77.9585 39.1 74.7C39.1 71.4415 36.4585 68.8 33.2 68.8C29.9415 68.8 27.3 71.4415 27.3 74.7C27.3 77.9585 29.9415 80.6 33.2 80.6Z" fill="#EEE051"/>
<path d="M97.1 46.8C100.911 46.8 104 43.7108 104 39.9C104 36.0893 100.911 33 97.1 33C93.2892 33 90.2 36.0893 90.2 39.9C90.2 43.7108 93.2892 46.8 97.1 46.8Z" fill="#EEE051"/>
<path d="M28.4 17.8C29.8 16.5 31.3 15.3 32.8 14.1C32.9 11.7 33.1999 9.30002 33.5999 6.90002C28.4999 9.40002 23.7999 12.7 19.5999 16.5C19.0999 20.5 18.9 24.5 19.2 28.5C21.8 24.7 24.9 21 28.4 17.8Z" fill="#D79FFF"/>
<path d="M11.9 43.7C11.1 40.6 10.4 37.7 9.89999 35.4H9.79999C9.49999 33.3 9.29999 31.1 9.39999 28.9C9.09999 29.3 8.90001 29.7 8.70001 30.1C6.10001 34.4 4.10001 39.1 2.70001 43.9C2.70001 43.9 5.40001 53.4 9.10001 61.5C9.10001 55.9 9.9 50.4 11.5 45.1C11.5 44.7 11.7 44.2 11.9 43.7Z" fill="#D79FFF"/>
<path d="M10.1 73.3C8.10001 74.1 5.79999 73.3 4.79999 71.5C1.69999 65.8 0.399994 61.9 0.399994 61.9H0.200012C0.800012 93.1 25.2 118.6 56.3 120.6C32.8 115.5 14.6 96.9 10.1 73.3Z" fill="#D79FFF"/>
<path d="M64.3 2.20004C64.4 1.80004 64.5 1.40005 64.6 0.900052C59.8 0.500052 55.1 0.800028 50.4 1.50003C49.9 2.70003 49.5 4.00002 49.3 5.30002C52.5 4.20002 55.9 3.30002 59.2 2.80002C60.9 2.50002 62.6 2.30004 64.3 2.20004Z" fill="#D79FFF"/>
<path d="M9.89996 35.4C10.4 37.6 11.1 40.5 11.9 43.7C13.3 39.4 15.1 35.3 17.5 31.4C17.7 31 18 30.6 18.2 30.2C18.5 29.7 18.9 29.2 19.2 28.7C19 24.7 19.0999 20.7 19.5999 16.7C15.6999 20.3 12.2 24.5 9.39996 29C9.29996 31.1 9.39996 33.2 9.89996 35.4Z" fill="#85FFE8"/>
<path d="M32.7 14.2C37.7 10.4 43.3 7.40002 49.2 5.40002C49.5 4.10002 49.8 2.89998 50.3 1.59998C44.5 2.59998 38.8 4.4 33.5 7C33.1 9.4 32.9 11.8 32.7 14.2Z" fill="#85FFE8"/>
<path d="M10.1 73.3C9.49998 69.9 9.09997 66.5 8.99997 63.1C8.99997 62.6 8.99997 62.1 8.99997 61.6C5.19997 53.5 2.59998 44 2.59998 44C0.899978 49.8 0.0999838 55.8 0.199984 61.9H0.399965C0.399965 61.9 1.69996 65.7 4.79996 71.5C5.79996 73.3 8.09998 74.1 10.1 73.3Z" fill="#85FFE8"/>
<path d="M90.8 37.8C89 37.8 87.2 37.6 85.4 37.2C81.5 36.4 79 32.7 79.7 28.8C79.8 28.3 79.9 27.8 80.1 27.4L80.3 27C81.6 24 84.8 22.2 88.1 22.8C89.4 23 90.8 23 92.1 22.7C92.9 22.6 93.7 23.1 93.8 23.9C93.9 24.7 93.4 25.4999 92.6 25.5999C90.9 25.8999 89.2 25.9 87.6 25.7C85.7 25.4 83.8 26.4 83 28.2L82.8 28.5999C82.3 29.7999 82.3 31.1 82.9 32.2C83.5 33.3 84.6 34.1 85.8 34.4C87.4 34.7 89 34.9 90.6 34.9C91.4 34.9 92.1 35.6 92.1 36.4C92.2 37.1 91.6 37.8 90.8 37.8Z" fill="#814ED1"/>
<path d="M90.5 43.4C89.9 43.4 89.3 43 89.1 42.5C87.4 38.2 89.6 33.4 93.9 31.7C98.2 30 103 32.2 104.7 36.5C104.8 36.8 104.9 37.1 105 37.4C105.2 38.2 104.7 39 103.9 39.2C103.1 39.4 102.3 38.9 102.1 38.1C101.4 35.2 98.4 33.5 95.5 34.2C92.6 34.9 90.9 37.9 91.6 40.8C91.7 41 91.7 41.2 91.8 41.4C92.1 42.2 91.7 43 91 43.3C90.8 43.4 90.6 43.4 90.5 43.4Z" fill="#814ED1"/>
<path d="M96.9 47.8C95.4 47.8 93.9 47.4 92.6 46.6C91.9 46.2 91.7 45.3 92.1 44.6C92.5 43.9 93.4 43.7 94.1 44.1C96.3 45.4 99.2 45 100.9 43C101.4 42.4 102.4 42.3 103 42.8C103.6 43.3 103.7 44.3 103.2 44.9C101.6 46.8 99.3 47.8 96.9 47.8Z" fill="#814ED1"/>
<path d="M88.6 60C86 60 83.4 59.8 80.8 59.3C80 59.2 79.5 58.4 79.6 57.6C79.7 56.8 80.5 56.3 81.3 56.4C89 57.8 96.9 57 104.1 53.9C104.8 53.6 105.7 53.9 106 54.7C106.3 55.4 106 56.3 105.2 56.6C99.9 58.9 94.3 60 88.6 60Z" fill="#814ED1"/>
<path d="M60.2 66.8C59.9 66.8 59.7 66.7 59.5 66.6C56.3 64.7 53.3 62.5 50.5 60C46.8 56.7 46.5 51.1 49.8 47.4C50.7 46.3 51.9 45.5 53.2 45C56.4 43.8 60 44.5 62.6 46.8C64.9 48.9 66.8 50.5 68.3 51.4C70.3 52.6 72.4 53.6 74.5 54.4C75.3 54.7 75.6 55.5 75.4 56.3C75.1 57.1 74.3 57.4 73.5 57.2C71.2 56.3 68.9 55.2 66.8 54C65.1 53 63 51.3 60.6 49C58.2 46.7 54.4 46.8 52.1 49.1C49.8 51.5 49.9 55.3 52.2 57.6C52.3 57.7 52.3 57.7 52.4 57.8C55 60.1 57.9 62.2 60.9 64C61.6 64.4 61.8 65.3 61.4 66C61.2 66.6 60.7 66.8 60.2 66.8Z" fill="#814ED1"/>
<path d="M88.7 74.7C81.1 74.7 73.6 73.2 66.6 70.3C65.9 70 65.5 69.1 65.8 68.4C66.1 67.7 67 67.3 67.7 67.6C75.1 70.7 83.2 72.2 91.3 71.8C92.1 71.8 92.8 72.4 92.8 73.2C92.8 74 92.2 74.7 91.4 74.7C90.6 74.7 89.6 74.7 88.7 74.7Z" fill="#814ED1"/>
<path d="M39.6 44.1C39.3 44.1 39.1 44 38.9 43.9C34.4 41.2 32.9 35.4 35.6 30.9C36 30.2 36.9 30 37.6 30.4C38.3 30.8 38.5 31.7 38.1 32.4C36.2 35.5 37.3 39.5 40.4 41.4C41.1 41.8 41.3 42.7 40.9 43.4C40.6 43.8 40.1 44.1 39.6 44.1Z" fill="#814ED1"/>
<path d="M48.8 43.4C48 43.4 47.3 42.7 47.3 41.9C47.3 41.5 47.5 41 47.8 40.8C50.6 38.5 51 34.4 48.7 31.6C48.2 31 47.6 30.5 47 30.1C46.3 29.7 46.1 28.8 46.5 28.1C46.9 27.4 47.8 27.2 48.5 27.6C53 30.3 54.5 36.1 51.8 40.6C51.2 41.5 50.5 42.4 49.7 43.1C49.5 43.3 49.1 43.4 48.8 43.4Z" fill="#814ED1"/>
<path d="M21.4 63.8C21.1 63.8 20.7 63.8 20.4 63.7C17.9 63.4 15.8 61.7 15 59.3C12.5 52.5 10.6 46.3 9.4 41C9.2 40.2 9.7 39.4 10.5 39.2C11.3 39 12.1 39.5 12.3 40.3C13.5 45.5 15.3 51.5 17.8 58.2C18.6 60.2 20.8 61.3 22.8 60.5C23.5 60.2 24.1 59.8 24.6 59.2C25.5 58 25.7 56.4 25 55.0999C24.2 53.5999 23.5 52 22.8 50.4C22.5 49.6 22.9 48.8 23.6 48.5C24.3 48.2 25.2 48.5 25.5 49.3C26.1 50.8 26.8 52.3 27.6 53.8C28.8 56.1 28.5 59 26.9 61C25.6 62.8 23.6 63.8 21.4 63.8Z" fill="#814ED1"/>
<path d="M84.5 89.2C82.8 89.2 81 89.1 79.3 89C78.5 88.9 77.9 88.2 77.9 87.4C78 86.6 78.7 86 79.5 86C81.2 86.1 82.9 86.2 84.5 86.2C85.3 86.2 86 86.9 86 87.7C86 88.6 85.3 89.2 84.5 89.2Z" fill="#814ED1"/>
<path d="M57.7 100.2C57.6 100.2 57.5 100.2 57.4 100.2C54.4 99.5 51.9 98.7 50.5 98C46.2 96 44.3 90.8 46.3 86.5C46.3 86.4 46.4 86.4 46.4 86.3C48.4 82.2 53.2 80.4 57.4 82.1C58.3 82.4 63.6 84 71.1 85.1C71.9 85.2 72.5 86 72.3 86.8C72.2 87.6 71.4 88.2 70.6 88C62.8 86.8 57.3 85.2 56.2 84.8C53.4 83.7 50.2 84.9 48.9 87.6C47.5 90.4 48.7 93.9 51.5 95.3C51.5 95.3 51.6 95.3 51.6 95.4C52.9 96 55.2 96.7 58 97.4C58.8 97.6 59.3 98.4 59.1 99.2C58.9 99.7 58.3 100.2 57.7 100.2Z" fill="#814ED1"/>
<path d="M83.7 103.2C77.9 103.2 72 102.7 66.2 101.9C65.4 101.8 64.8 101 65 100.2C65.2 99.4 65.9 98.8 66.7 99C73.7 100.1 80.8 100.5 87.9 100.2C88.7 100.2 89.4 100.8 89.4 101.6C89.4 102.4 88.8 103.1 88 103.1C86.6 103.2 85.2 103.2 83.7 103.2Z" fill="#814ED1"/>
<path d="M27.9 75.7H27.8C27 75.6 26.4 74.9 26.5 74.1C26.9 70.3 30.3 67.4 34.1 67.8C37 68.1 39.5 70.2 40.2 73C40.4 73.8 39.9 74.6 39.1 74.8C38.3 75 37.5 74.5 37.3 73.7C36.8 71.5 34.6 70.2 32.4 70.8C30.7 71.2 29.5 72.6 29.4 74.3C29.3 75.1 28.6 75.7 27.9 75.7Z" fill="#814ED1"/>
<path d="M33.4 81.7C31.3 81.7 29.3 80.8 28 79.2C27.5 78.6 27.6 77.6 28.2 77.1C28.8 76.6 29.7 76.7 30.3 77.3C31.3 78.5 32.9 79 34.4 78.7C35.2 78.5 36 79 36.2 79.8C36.4 80.6 35.9 81.4 35.1 81.6C34.5 81.6 33.9 81.7 33.4 81.7Z" fill="#814ED1"/>
<path d="M18.7 94.6C18.3 94.6 17.9 94.4 17.6 94.1C15.9 92.2 14.2 90.3 12.6 88.2C10.7 85.8 11.1 82.2 13.5 80.3C15.9 78.4 19.4 78.8 21.3 81.2C21.8 81.8 21.6999 82.8 21.0999 83.3C20.4999 83.8 19.6 83.7 19 83.1C18.1 82 16.4 81.8 15.3 82.7C14.2 83.6 14 85.3 14.9 86.4C16.5 88.4 18.1 90.3 19.8 92.1C20.4 92.7 20.3 93.6 19.7 94.2C19.4 94.5 19 94.6 18.7 94.6Z" fill="#814ED1"/>
<path d="M29.9 103.8C28.6 103.8 27.3 103.3 26.3 102.5C25.1 101.5 23.9 100.4 22.7 99.3C22.1 98.7 22.1 97.8 22.6 97.2C23.1 96.6 24.1 96.6 24.7 97.1C25.8 98.2 27 99.2 28.2 100.2C29.3 101.1 31 101 32 99.9C32.4 99.4 32.6 98.7 32.6 98.1C32.6 97.4 32.2 96.7 31.7 96.2C29.5 94.3 27.4 92.3 25.3 90.3C24.5 89.5 23.7 88.7 23 87.9C22.5 87.3 22.5 86.4 23.1 85.8C23.7 85.3 24.6 85.3 25.2 85.9C25.9 86.7 26.7 87.5 27.4 88.3C29.4 90.3 31.5 92.3 33.6 94.1C36 96.1 36.2 99.7 34.2 102C33.1 103 31.5 103.8 29.9 103.8Z" fill="#814ED1"/>
<path d="M63.5 9.40002C64.3 9.40002 65 8.8 65 8C65.1 5.8 65.3999 3.50002 66.0999 1.40002C66.0999 1.30002 66.1 1.19998 66.2 1.09998C65.7 1.09998 65.2 1 64.7 1C64.2 1 63.7 0.900024 63.2 0.900024C62.5 3.20002 62.1999 5.60002 62.0999 7.90002C61.9999 8.70002 62.7 9.40002 63.5 9.40002Z" fill="#814ED1"/>
<path d="M75.5 14.8C76.1 17.1 74.9 19.6 72.6 20.4C70.2 21.3 67.5 20 66.6 17.6C65.9 15.8 65.5 13.9 65.3 12C65.2 11.2 64.5 10.6 63.7 10.7C62.9 10.8 62.3 11.5 62.4 12.3C62.4 12.3 62.4 12.3 62.4 12.4C62.7 14.5 63.2 16.6 63.9 18.6C65.3 22.6 69.7 24.6 73.6 23.2C73.6 23.2 73.6 23.2 73.7 23.2C77.4 21.8 79.4 17.9 78.5 14.1C77.4 9.89998 78.8 5.59999 79.5 4.29999C79.6 4.19999 79.6 4.1 79.6 4C79.1 3.8 78.7 3.7 78.2 3.5C77.7 3.4 77.2 3.19998 76.8 3.09998C75.5 5.19998 74.3 9.99999 75.5 14.8Z" fill="#814ED1"/>
<path d="M100.5 16.9C99.4 18.7 97.9 20.2 96.1 21.3C95.4 21.7 95.2 22.6 95.6 23.3C96 24 96.9 24.2 97.6 23.8C99.8 22.5 101.6 20.8 102.9 18.7C102.6 18.3 102.2 18 101.8 17.7C101.4 17.4 101.1 17 100.7 16.7C100.7 16.7 100.6 16.8 100.5 16.9Z" fill="#814ED1"/>
<path d="M100.9 32.9L102 35.6C105.5 34.2 108.7 32.1 111.4 29.4C111.1 29 110.9 28.5 110.6 28.1C110.3 27.7 110.1 27.3 109.8 26.9C107.2 29.5 104.2 31.5 100.9 32.9Z" fill="#814ED1"/>
<path d="M48.8 7.90002C49.6 8.10002 50.4 7.50001 50.5 6.70001C50.8 5.10001 51.2 3.59998 51.8 2.09998C51.9 1.89998 51.9 1.59999 51.9 1.29999C51.4 1.39999 50.9 1.4 50.4 1.5C49.8 1.6 49.3 1.69999 48.7 1.79999C48.2 3.19999 47.9 4.59998 47.6 6.09998C47.4 6.89998 48 7.70002 48.8 7.90002Z" fill="#814ED1"/>
<path d="M35.1 24.3C36.6 25.4 38.5 26 40.3 26C41.4 26 42.4 25.8 43.4 25.5C46.9 24.3 49.3 21 49.4 17.2C49.5 15.4 49.6 13.7 49.7 12.1C49.8 11.3 49.2 10.6 48.4 10.5C47.6 10.4 46.9 11 46.8 11.8C46.7 13.4 46.5 15.2 46.5 17C46.4 20.4 43.5 23.1 40.1 23C36.7 22.9 34.1 20.1 34.1 16.7C34.1 13.5 34.4 10.3 35 7.20001C35.1 6.90001 35 6.59999 34.9 6.29999C34.5 6.49999 34 6.70002 33.6 6.90002C33.1 7.20002 32.5 7.50001 32 7.70001C31.5 10.7 31.3 13.7 31.3 16.7C31.2 19.8 32.6 22.6 35.1 24.3Z" fill="#814ED1"/>
<path d="M111 50.2C110.3 50.6 110.1 51.6 110.6 52.2C111 52.9 112 53.1 112.6 52.6C114.8 51.1 116.8 49.5 118.6 47.6C118.5 47 118.3 46.5 118.2 45.9C118.1 45.4 118 45 117.8 44.5C117.5 44.6 117.3 44.7 117.1 44.9C115.3 46.9 113.3 48.6 111 50.2Z" fill="#814ED1"/>
<path d="M120.1 62.3C119.8 62.3 119.5 62.4 119.2 62.5C113.5 66.3 107.1 69 100.4 70.5C99.6 70.7 99.1 71.5 99.3 72.2C99.5 73 100.3 73.5 101 73.3C107.7 71.8 114.1 69.2 119.8 65.5C119.8 64.9 119.9 64.3 119.9 63.7C120.1 63.3 120.1 62.8 120.1 62.3Z" fill="#814ED1"/>
<path d="M17.8 30.9C18 32.8 18.2 34.7 18.6 36.5C18.9 38.1 19.2 39.7 19.6 41.3C19.8 42.1 20.6 42.6 21.4 42.4C22.2 42.2 22.7 41.4 22.5 40.6C22.1 39.1 21.8 37.5 21.5 36C21.2 34.2 20.9 32.4 20.8 30.6C20.4 26 20.5 21.3 21.1 16.7C21.2 16.3 21 15.8 20.7 15.5C20.3 15.8 20 16.1 19.6 16.5C19 17 18.5 17.6 17.9 18.1C17.5 22.4 17.4 26.7 17.8 30.9Z" fill="#814ED1"/>
<path d="M9.80002 36.8C9.90002 36.8 9.90003 36.8 10 36.8C10.8 36.7 11.4 35.9 11.2 35.1C10.9 33 10.7 31 10.8 28.9C10.8 28.4 10.6 27.9 10.1 27.6C9.80004 28 9.50002 28.4 9.30002 28.9C9.00002 29.3 8.80004 29.7 8.60004 30.1C8.40004 30.5 8.10002 30.9 7.90002 31.3C8.00002 32.6 8.10002 34 8.30002 35.5C8.40002 36.3 9.00002 36.8 9.80002 36.8Z" fill="#814ED1"/>
<path d="M116.1 79.2C110 83 102.3 85.3 93.2 86C92.4 86.1 91.8 86.8 91.9 87.6C92 88.4 92.6 88.9 93.4 88.9H93.5C102.2 88.2 109.8 86.1 116 82.6C116.3 81.9 116.6 81.2 116.8 80.4C117 79.9 117.1 79.4 117.3 78.9C116.9 78.9 116.5 79 116.1 79.2Z" fill="#814ED1"/>
<path d="M106.3 97.1C102.5 98.3 98.6 99.1 94.7 99.6C93.9 99.7 93.3 100.4 93.4 101.2C93.5 101.9 94.1 102.5 94.9 102.5C95 102.5 95 102.5 95.1 102.5C98.5 102.1 101.8 101.4 105 100.5C105.6 99.8 106.2 99.2 106.7 98.5C107 98.1 107.3 97.7 107.6 97.3C107.3 97.1 106.8 97 106.3 97.1Z" fill="#814ED1"/>
<path d="M8.39999 75.1C8.49999 75.1 8.50001 75.1 8.60001 75.1C11.7 75 14.1 72.4 14 69.3C14 68.3 13.7 67.3 13.1 66.5C8.00001 58.4 3.89999 43.8 3.89999 43.6C3.79999 43.1 3.39999 42.7 2.89999 42.6C2.79999 43.1 2.6 43.5 2.5 44C2.2 44.9 1.99999 45.8 1.79999 46.7C3.19999 51.3 6.60001 61.4 10.7 68C11.2 68.8 11.2 69.7 10.9 70.6C10.3 72 8.69999 72.5 7.29999 71.9C6.79999 71.7 6.30001 71.3 6.10001 70.7C3.10001 65.2 1.79999 61.4 1.79999 61.4C1.59999 60.7 0.900012 60.3 0.200012 60.4C0.200012 60.9 0.200012 61.4 0.200012 61.9C0.200012 63.2 0.299994 64.6 0.399994 65.9C1.09999 67.5 2.1 69.7 3.5 72.2C4.5 73.9 6.39999 75.1 8.39999 75.1Z" fill="#814ED1"/>
<path d="M85.9 113.6C85.8 113.6 77.8 112.5 69 110.5C68.2 110.3 67.4 110.8 67.2 111.6C67 112.4 67.5 113.2 68.3 113.3C74.4 114.7 80.0999 115.7 83.0999 116.1C83.9 115.7 84.7999 115.4 85.5999 115C85.9999 114.8 86.5 114.6 86.9 114.4C86.8 114 86.3 113.6 85.9 113.6Z" fill="#814ED1"/>
<path d="M71.6 118.2C62.8 116.6 54.2 113.8 46.1 109.8C45.1 109.3 44.7 108 45.2 107C45.3 106.8 45.4 106.6 45.6 106.5C46.3 105.8 47.3 105.7 47.9 106.1C50.6 107.8 54.6 109.5 59.7 111C60.5 111.2 61.3 110.8 61.5 110C61.7 109.2 61.3 108.4 60.5 108.2C55.6 106.7 51.9 105.2 49.4 103.6C47.6 102.4 45.1 102.8 43.4 104.4C41.4 106.4 41.4 109.5 43.4 111.5C43.8 111.9 44.2 112.2 44.7 112.4C51.8 115.9 59.2 118.5 67 120.2C68.4 120 69.8 119.8 71.3 119.6C71.8 119.5 72.3 119.4 72.8 119.3C72.6 118.8 72.2 118.3 71.6 118.2Z" fill="#814ED1"/>
</svg>
