<svg width="120" height="121" viewBox="0 0 120 121" fill="none" xmlns="http://www.w3.org/2000/svg">
<path d="M119.8 61.7C119.7 67.5 118.8 73.3 117 78.8C103.1 73.3 100.5 81.1 93.4 80.6C87.2 80.2 86.6 75.3 80.3 75.9C74.1 76.5 74.7 82.5 68.5 83.1C62.3 83.7 49.7999 85 43.5999 85.6C37.3999 86.2 36.8 80.3 30.5 80.9C24.3 81.5 24.9 87.5 18.7 88.1C12.5 88.7 11.3 82.9 5.09998 83.5L4.69998 83.7C1.89998 76.9 0.299976 69.7 0.0999756 62.4C10.1 62.3 10.1 56.1 20.2 56.1C30.2 56 30.2 62.2 40.3 62.2C50.4 62.2 50.4 55.9 60.4 55.9C70.4 55.8 90.5999 55.7 100.6 55.6C110.5 55.6 110.8 61.4 119.8 61.7Z" fill="#CE467E"/>
<path d="M117 78.9C115.4 84 113.1 88.8 110.3 93.3C104.5 94.1 101 92.2 93.7999 90.5C88.4999 89.3 88.2 97.1 81.9 97.7C75.6 98.3 75.1 92.4 68.9 93C62.7 93.6 50.1999 94.9 43.9999 95.5C37.7999 96.1 38.3999 102.1 32.0999 102.7C25.8999 103.3 25.2999 97.4 19.0999 98C17.4999 98.1 15.9 98.8 14.7 99.9C10.6 95.1 7.29993 89.8 4.79993 83.9L5.19995 83.7C11.4 83.1 12.5999 88.9 18.7999 88.3C24.9999 87.7 24.3999 81.7 30.5999 81.1C36.7999 80.5 37.4 86.4 43.7 85.8C49.9 85.2 62.3999 83.9 68.5999 83.3C74.7999 82.7 74.2 76.7 80.4 76.1C86.6 75.5 87.1999 80.4 93.4999 80.8C100.5 81.2 103.1 73.3 117 78.9Z" fill="#9BE147"/>
<path d="M119.8 61.7C110.8 61.3 110.4 55.6 100.8 55.7C90.7 55.8 70.6 55.9 60.6 56C50.5 56.1 50.5 62.3 40.5 62.3C30.5 62.3 30.5 56.2 20.4 56.2C10.4 56.3 10.3 62.4 0.299978 62.5C0.0999775 55.9 0.99999 49.3 2.99999 43C12.5 42.8 12.7 48.8 22.3 48.5C31.9 48.3 31.8 42.3 41.4 42.1C51 41.9 51.2 47.9 60.8 47.6C70.4 47.4 89.6 46.9 99.3 46.7C108.2 46.5 108.7 41.3 116.4 40.4C118.7 47.3 119.9 54.5 119.8 61.7Z" fill="#9BE147"/>
<path d="M110.3 93.3C107.5 97.6 104.2 101.5 100.5 105C76.1999 127.4 38.3999 125.8 15.9999 101.4C15.5999 100.9 15.1 100.4 14.7 99.9C15.9 98.8 17.3999 98.1 19.0999 98C25.2999 97.4 25.8999 103.3 32.0999 102.7C38.2999 102.1 37.6999 96.1 43.9999 95.5C50.2999 94.9 62.7 93.6 68.9 93C75.1 92.4 75.7 98.3 81.9 97.7C88.1 97.1 88.3999 89.3 93.7999 90.5C101 92.1 104.5 94 110.3 93.3Z" fill="#CE467E"/>
<path d="M116.3 40.4C108.6 41.3 108.1 46.5 99.2 46.7C89.6 46.9 70.4 47.4 60.7 47.6C51.1 47.8 50.9 41.8 41.3 42.1C31.7 42.3 31.8 48.3 22.2 48.5C12.6 48.7 12.4 42.8 2.89996 43C5.99996 32.9 11.8 23.9 19.5 16.7C19.8 16.4 20.1 16.2 20.4 15.9C24.7 16.7 29.9 16.7 33.8 18.5C39.1 20.8 43 27.8 49.2 29.7C61.9 33.5 75.5999 27.5 110.1 28.2C112.7 32.1 114.7 36.2 116.3 40.4Z" fill="#CE467E"/>
<path d="M104.1 20.4C106.4 22.9 108.4 25.5 110.2 28.3C75.8 27.6 62 33.6 49.3 29.8C43.1 27.9 39.2 20.9 33.9 18.6C29.9 16.8 24.7 16.8 20.5 16C21.8 14.8 23.2 13.7 24.6 12.7C28.9 13.1 33.8 14.4 38 13.8C43.7 12.9 49.3 7.10001 55.8 7.10001C61 7.10001 79.6 19.1 95.2 18.6C95.6 18.6 95.9 18.6 96.3 18.6L102.3 18.7C102.9 19.2 103.5 19.8 104.1 20.4Z" fill="#9BE147"/>
<path d="M102.4 18.6L96.4 18.5C96 18.5 95.6999 18.5 95.2999 18.5C79.6999 19.1 61.1 7.10001 55.9 7.00001C49.4 6.90001 43.7999 12.8 38.0999 13.7C33.8999 14.3 29 13 24.7 12.6C48.2 -4.80002 81.4 -2.50002 102.4 18.6Z" fill="#CE467E"/>
<path d="M14.5999 87.7C14.4999 87.4 14.3 87.1 14.2 86.8C11.4 80 9.79994 72.8 9.59995 65.5C9.49994 63.6 9.59995 61.7 9.69995 59.9C7.39995 61.3 4.89995 62.7 0.199951 62.7C0.399951 70 1.89993 77.3 4.79993 84L5.19995 83.8C9.69995 83.3 11.5999 86.2 14.5999 87.7Z" fill="#DE688C"/>
<path d="M19.0999 97.9C19.4999 97.9 19.9999 97.8 20.3999 97.9C18.0999 94.7 16.1999 91.2 14.5999 87.6C11.5999 86.2 9.69995 83.2 5.19995 83.7L4.79993 83.9C7.19993 89.7 10.5 95.1 14.7 99.9C15.9 98.8 17.3999 98.1 19.0999 97.9Z" fill="#D8FF33"/>
<path d="M9.7 59.8C10 55.1 10.9 50.4 12.3 45.9C12.3 45.8 12.3 45.8 12.3 45.7C9.89998 44.3 7.49998 42.9 2.89998 43C0.899984 49.3 2.63751e-06 55.9 0.200003 62.5C4.9 62.6 7.4 61.2 9.7 59.8Z" fill="#D8FF33"/>
<path d="M24.0999 102.7C22.7999 101.2 21.5999 99.6 20.3999 97.9C19.9999 97.9 19.4999 97.9 19.0999 97.9C17.4999 98 15.9 98.7 14.7 99.8C15.1 100.3 15.5999 100.8 15.9999 101.3C24.3999 110.4 35.3999 116.8 47.4999 119.3C39.0999 116 31.4999 110.8 25.2999 104.1C24.8999 103.7 24.4999 103.2 24.0999 102.7Z" fill="#DE688C"/>
<path d="M12.4 45.7C15.5 35.7 21.3 26.7 29 19.6C29.3 19.3 29.6 19.1 29.9 18.8C30.3 18.4 30.8 18 31.3 17.6C27.8 16.7 23.9 16.6 20.6 15.9C20.3 16.2 20 16.4 19.7 16.7C11.9 23.8 6.19998 32.9 3.09998 43C7.59998 43 9.99996 44.3 12.4 45.7Z" fill="#DE688C"/>
<path d="M34 15.5C34.7 15 35.5 14.4 36.2 13.9C32.4 14 28.3 13 24.6 12.7C23.2 13.7 21.8 14.8 20.5 16C23.9 16.6 27.8 16.8 31.2 17.7C32.1 16.9 33 16.2 34 15.5Z" fill="#D8FF33"/>
<path d="M81.9 5.20001C62.8 -2.29999 41.1 0.50001 24.6 12.7C28.3 13.1 32.4 14.1 36.2 13.9C49.6 4.90002 66.1 1.80001 81.9 5.20001Z" fill="#DE688C"/>
<path d="M36.5999 56.4C35.0999 56 33.7999 55.2 32.5999 54.3C31.7999 53.6 31.6999 52.5 32.2999 51.6C34.0999 49.3 36.6999 47.8 39.4999 47.3C40.2999 47.2 41.0999 47.7 41.1999 48.5C41.2999 49.3 40.7999 50.1 39.9999 50.2C38.1999 50.5 36.5999 51.4 35.2999 52.6C38.8999 54.8 43.3999 54.3 46.3999 51.3C45.7999 51 45.1999 50.7 44.5999 50.5C43.7999 50.2 43.3999 49.4 43.6999 48.6C43.9999 47.8 44.7999 47.4 45.5999 47.7C46.8999 48.1 48.0999 48.8 49.1999 49.7C49.9999 50.4 50.0999 51.5 49.4999 52.4C46.3999 56.2 41.2999 57.8 36.5999 56.4Z" fill="#7CB729"/>
<path d="M49.6 22.9001C49.4 22.9001 49.3 22.8 49.1 22.7C47.6 21.6 46.4 20.3 45.4 18.8C44.8 17.9 45 16.6 46 16C49.2 13.9 53 13 56.8 13.4C57.6 13.5 58.2 14.2 58.1 15C58 15.8 57.3 16.4 56.5 16.3C53.7 15.9 50.9 16.5 48.4 17.9C49.1 18.8 50 19.7 50.9 20.4C51.6 20.9 51.7 21.8 51.2 22.4001C50.8 22.8 50.2 23.0001 49.6 22.9001Z" fill="#7CB729"/>
<path d="M54.9 25.3C54.1 25.1 53.7 24.2 53.9 23.5C54.1 22.8 54.8999 22.3 55.5999 22.5C58.7999 23.2 62.1 22.8 64.9 21.1C64.2 20.2 63.3 19.4 62.4 18.7C61.8 18.2 61.5999 17.3 62.0999 16.6C62.5999 16 63.4999 15.8 64.0999 16.3C65.5999 17.4 66.7999 18.7 67.7999 20.2C68.3999 21.1 68.2 22.4 67.2 23C63.8 25.5 59.3 26.3 54.9 25.3C55 25.3 55 25.3 54.9 25.3Z" fill="#7CB729"/>
<path d="M27 96.2C25.5 95.8 24.2 95 23 94.1C22.2 93.4 22.1 92.3 22.7 91.4C24.5 89.1 27.1 87.6 29.9 87.1C30.7 86.9 31.5 87.5 31.6 88.3C31.7 89.1 31.2 89.9 30.4 90C28.6 90.3 27 91.2 25.7 92.4C29.3 94.6 33.8 94.1 36.8 91.1C36.2 90.8 35.6 90.5 35 90.3C34.2 90 33.8 89.2 34.1 88.4C34.4 87.6 35.2 87.2 36 87.5C37.3 87.9 38.5 88.6 39.6 89.5C40.4 90.2 40.5 91.3 39.9 92.2C36.8 96 31.7 97.6 27 96.2Z" fill="#7CB729"/>
<path d="M76.0999 90.3H75.9999C74.8999 89.9 73.8999 89.3 73.0999 88.6C72.2999 87.9 72.1999 86.8 72.7999 85.9C74.5999 83.6 77.1999 82.1 79.9999 81.6C80.7999 81.4 81.5999 82 81.6999 82.8C81.7999 83.6 81.2999 84.4 80.4999 84.5C78.6999 84.8 77.0999 85.7 75.7999 86.9C76.1999 87.2 76.6999 87.4 77.0999 87.6C77.7999 87.9 78.1999 88.8 77.8999 89.5C77.5999 90.2 76.7999 90.5 76.0999 90.3Z" fill="#7CB729"/>
<path d="M81.0999 91C80.2999 90.8 79.8999 89.9 80.0999 89.2C80.2999 88.6 80.8 88.2 81.4 88.2C83.5 88 85.4 87.1 86.9 85.6C86.3 85.3 85.6999 85 85.0999 84.8C84.2999 84.5 83.9 83.7 84.2 82.9C84.5 82.1 85.2999 81.7 86.0999 82C87.3999 82.4 88.6 83.1 89.7 84C90.5 84.7 90.5999 85.8 89.9999 86.7C87.9999 89.3 84.9999 90.9 81.7999 91.2C81.3999 91.1 81.1999 91.1 81.0999 91Z" fill="#7CB729"/>
</svg>
