<svg width="175" height="119" viewBox="0 0 175 119" fill="none" xmlns="http://www.w3.org/2000/svg">
<path d="M174.3 57.1C174.7 69.8 160.7 79.1 141 85C134.7 86.8 128.3 88.3 121.9 89.4C122.3 86.7 121.7 84 120.3 81.6C129.5 80 137.7 77.9 144.5 75.5C158.2 70.6 166.6 64.1 166.4 57.3C166.2 50.5 157.5 44.6 143.5 40.4C142.4 37.2 141.1 34.1 139.4 31.1C159.4 35.9 173.9 44.4 174.3 57.1Z" fill="#FFE578"/>
<path d="M140.9 85C126.9 114.6 91.4999 127.3 61.8999 113.3C50.4999 107.9 41.2 99.1 35.2 88.1C50.8 91.8 69.8999 93.2 88.2999 92.7C91.9999 92.6 95.6999 92.4 99.3999 92.1C101.8 98.1 108.7 101 114.7 98.6C117.6 97.4 120 95.1 121.2 92.2C121.6 91.3 121.8 90.4 122 89.4C128.3 88.3 134.7 86.8 140.9 85Z" fill="#A0EAEA"/>
<path d="M33.4999 34.7C47.2999 5.00003 82.5999 -8 112.3 5.8C123.8 11.1 133.3 20 139.4 31.2C141 34.2 142.4 37.3 143.5 40.5C147.3 51.8 147.7 64 144.5 75.5C137.6 78 129.4 80.1 120.3 81.6C116.9 76.1 109.7 74.3 104.2 77.7C101.8 79.2 100 81.5 99.1 84.2C95.5 84.5 91.7999 84.7 88 84.8C65.7999 85.4 45.6 83.1 31.1 78.8C27.3 67.5 26.9 55.3 30.1 43.8C31 40.7 32.0999 37.6 33.4999 34.7Z" fill="#A0EAEA"/>
<path d="M121.1 92.2C118.6 98.2 111.8 101.1 105.7 98.7C99.6999 96.2 96.7999 89.4 99.1999 83.3C101.6 77.2 108.5 74.4 114.6 76.8C119.6 78.8 122.6 84 121.8 89.4C121.7 90.3 121.4 91.3 121.1 92.2Z" fill="#FE8700"/>
<path d="M99.3999 92.1C95.6999 92.4 91.9999 92.6 88.2999 92.7C69.8999 93.2 50.8999 91.8 35.1999 88.1C15.1999 83.4 0.699895 74.9 0.299895 62.2C-0.100105 49.8 14.4999 40.6 33.4999 34.7C32.0999 37.6 30.9999 40.7 30.1999 43.8C16.4999 48.7 8.0999 55.2 8.2999 62C8.4999 68.8 17.1999 74.7 31.1999 78.9C45.6999 83.2 65.8999 85.5 88.0999 84.9C91.8999 84.8 95.4999 84.6 99.1999 84.3C98.2999 86.8 98.3999 89.6 99.3999 92.1Z" fill="#FFE578"/>
<path d="M34.3999 67.4C34.1999 61.5 34.8999 55.5 36.4999 49.8C37.3999 46.7 38.4999 43.6 39.7999 40.7C53.5999 11 88.8999 -2.00003 118.6 11.8C123 13.9 127.2 16.5 131 19.6C108.8 -4.60005 71.2999 -6.2 47.0999 15.9C29.6999 31.8 23.3999 56.5 30.9999 78.7C32.5999 79.2 34.2999 79.6 35.9999 80C35.0999 76 34.4999 71.7 34.3999 67.4Z" fill="#81CCCA"/>
<path d="M37.3999 62.3C37.0999 62 36.8999 61.5 36.7999 61.1C36.6999 57.1 36.9999 53.1 37.8999 49.2C38.0999 48.2 38.9999 47.6 39.9999 47.8C40.9999 48 41.5999 48.9 41.3999 49.9C40.5999 53.5 40.2999 57.3 40.3999 61C40.3999 62 39.6999 62.8 38.6999 62.8C38.1999 62.8 37.6999 62.7 37.3999 62.3Z" fill="#68B5B1"/>
<path d="M43.2999 37.6C42.6999 37.1 42.5999 36.2 42.9999 35.5C47.7999 26.7 54.9999 19.6 63.7999 14.9C64.6999 14.4 65.6999 14.8 66.1999 15.6C66.6999 16.5 66.2999 17.5 65.4999 18C57.2999 22.3 50.5999 29 46.0999 37.1C45.5999 38 44.5999 38.3 43.6999 37.8C43.4999 37.8 43.3999 37.7 43.2999 37.6Z" fill="#68B5B1"/>
</svg>
