<svg width="121" height="121" viewBox="0 0 121 121" fill="none" xmlns="http://www.w3.org/2000/svg">
<path d="M119.4 55C119.6 56.8 119.7 58.6 119.7 60.5C119.7 68.5 118.1 76.3 115 83.7H114.9H67.5C64.9 83.7 62.8 81.6 62.8 79C62.8 76.4 64.9 74.3 67.5 74.3H100C102.7 74.3 104.9 72.1 104.9 69.4C104.9 66.7 102.7 64.5 100 64.5H83.4C80.8 64.5 78.7 62.4 78.7 59.8C78.7 57.2 80.8 55.1 83.4 55.1H119.4V55Z" fill="#FCC251"/>
<path d="M119.4 55H83.4C80.8 55 78.6999 57.1 78.6999 59.7C78.6999 62.3 80.8 64.4 83.4 64.4H100C102.7 64.4 104.9 66.6 104.9 69.3C104.9 72 102.7 74.2 100 74.2H67.5C64.9 74.2 62.8 76.3 62.8 78.9C62.8 81.5 64.9 83.6 67.5 83.6H114.9H115C106 104.5 85.2999 119.1 61.0999 119.1C46.2999 119.1 32.1 113.5 21.3 103.5H35C37.7 103.5 39.9 101.3 39.9 98.6C39.9 95.9 37.7 93.7 35 93.7H12.8C10.8 90.7 8.99997 87.6 7.49997 84.3H19.1999C21.8999 84.3 24.0999 82.1 24.0999 79.4C24.0999 76.7 21.8999 74.5 19.1999 74.5H4.09995C1.69995 64.7 1.89997 54.5 4.49997 44.8H4.69992H57.5C60.2 44.8 62.4 42.6 62.4 39.9C62.4 37.2 60.2 35 57.5 35H26.3C23.7 35 21.5999 32.9 21.5999 30.3C21.5999 27.7 23.7 25.6 26.3 25.6H41.8C44.5 25.6 46.6999 23.4 46.6999 20.7C46.6999 18 44.5 15.8 41.8 15.8H23C33.6 6.69999 47.0999 1.70001 61.0999 1.70001C84.6999 1.70001 105 15.6 114.3 35.7H106.4C103.8 35.7 101.7 37.8 101.7 40.4C101.7 43 103.8 45.1 106.4 45.1H117.7C118.5 48.4 119.1 51.7 119.4 55Z" fill="#604AF3"/>
<path d="M117.6 45.2H106.3C103.7 45.2 101.6 43.1 101.6 40.5C101.6 37.9 103.7 35.8 106.3 35.8H114.2C115.6 38.8 116.7 42 117.6 45.2Z" fill="#FCC251"/>
<path d="M57.5 35.1C60.2 35.1 62.4 37.3 62.4 40C62.4 42.7 60.2 44.9 57.5 44.9H4.69995H4.5C7.6 33.6 14 23.5 22.9 15.9H41.7C44.4 15.9 46.6 18.1 46.6 20.8C46.6 23.5 44.4 25.7 41.7 25.7H26.2C23.6 25.7 21.5 27.8 21.5 30.4C21.5 33 23.6 35.1 26.2 35.1H57.5Z" fill="#FCC251"/>
<path d="M34.9 93.7C37.6 93.7 39.8 95.9 39.8 98.6C39.8 101.3 37.6 103.5 34.9 103.5H21.2C18 100.5 15.2 97.3 12.7 93.7H34.9Z" fill="#FCC251"/>
<path d="M19.1 74.5C21.8 74.5 24 76.7 24 79.4C24 82.1 21.8 84.3 19.1 84.3H7.40002C6.00002 81.1 4.9 77.8 4 74.5H19.1Z" fill="#FCC251"/>
<path d="M28.5 103.6H21.2C32 113.6 46.2 119.2 61 119.2C62.2 119.2 63.4 119.2 64.7 119.1C51.2 118.2 38.4 112.8 28.5 103.6Z" fill="#8076FF"/>
<path d="M9.7 60.5C9.7 55.2 10.4001 50 11.8001 44.9H4.7H4.50004C1.80004 54.6 1.70002 64.8 4.10002 74.6H11.4001C10.2001 69.9 9.7 65.2 9.7 60.5Z" fill="#8076FF"/>
<path d="M7.40002 84.3C8.90002 87.6 10.6 90.7 12.7 93.7H20C18 90.7 16.2 87.6 14.7 84.3H7.40002Z" fill="#8076FF"/>
<path d="M30.2 15.8C39.8 7.49999 51.9 2.59999 64.6 1.89999C63.4 1.79999 62.2 1.79999 61 1.79999C47 1.79999 33.5 6.80002 22.9 15.9H30.2V15.8Z" fill="#8076FF"/>
<path d="M30.2 15.8H22.9C14 23.4 7.6 33.5 4.5 44.8H4.69995H12H11.8C14.9 33.5 21.3 23.4 30.2 15.8Z" fill="#FFE566"/>
<path d="M20 93.7H12.7C15.2 97.3 18 100.6 21.2 103.5H28.5C25.3 100.6 22.4 97.3 20 93.7Z" fill="#FFE566"/>
<path d="M4.09998 74.5C4.89998 77.9 6.1 81.2 7.5 84.3H14.8C13.4 81.1 12.3 77.8 11.4 74.5H4.09998Z" fill="#FFE566"/>
<path d="M32 51H24C23.2 51 22.5 51.7 22.5 52.5C22.5 53.3 23.2 54 24 54H32C32.8 54 33.5 53.3 33.5 52.5C33.5 51.7 32.8 51 32 51Z" fill="#8B7CF3"/>
<path d="M57.5 51H37.7C36.9 51 36.2 51.7 36.2 52.5C36.2 53.3 36.9 54 37.7 54H57.5C58.3 54 59 53.3 59 52.5C58.9 51.7 58.3 51 57.5 51Z" fill="#8B7CF3"/>
<path d="M82.9 92.7H99.6C100.4 92.7 101.1 92 101.1 91.2C101.1 90.4 100.4 89.7 99.6 89.7H82.9C82.1 89.7 81.4 90.4 81.4 91.2C81.5 92 82.1 92.7 82.9 92.7Z" fill="#8B7CF3"/>
<path d="M71.1 92.7H77.5C78.3 92.7 79 92 79 91.2C79 90.4 78.3 89.7 77.5 89.7H71.1C70.3 89.7 69.6 90.4 69.6 91.2C69.6 92 70.3 92.7 71.1 92.7Z" fill="#8B7CF3"/>
<path d="M61 0.299988C27.8 0.299988 0.900024 27.2 0.900024 60.4C0.900024 93.6 27.8 120.4 61 120.4C94.2 120.4 121 93.5 121 60.3C121 44.4 114.7 29.1 103.4 17.9C92.2 6.60002 76.9 0.299988 61 0.299988ZM20.6 20C21.5 19.1 22.5 18.2 23.5 17.3H41.8C43.7001 17.3 45.2 18.8 45.2 20.7C45.2 22.6 43.7001 24.1 41.8 24.1H26.3C22.9 24.1 20.1 26.9 20.1 30.3C20.1 33.7 22.9 36.5 26.3 36.5H57.5C59.4 36.5 61 38.1 61 40C61 41.9 59.4 43.5 57.5 43.5H6.40002C9.10002 34.6 14 26.6 20.6 20ZM6 76H19.2C21.1 76 22.7 77.6 22.7 79.5C22.7 81.4 21.1 83 19.2 83H8.5C7.5 80.7 6.6 78.4 6 76ZM20.6 100.9C18.8 99.1 17.1 97.1 15.5 95.1H34.9C36.8 95.1 38.4 96.7 38.4 98.6C38.4 100.5 36.8 102.1 34.9 102.1H21.8C21.4 101.8 21 101.3 20.6 100.9ZM118.2 60.5C118.2 67.9 116.8 75.2 114 82.1H67.4C65.7 82.1 64.2 80.7 64.2 78.9C64.2 77.1 65.6 75.7 67.4 75.7H99.9C103.4 75.7 106.3 72.8 106.3 69.3C106.3 65.8 103.4 62.9 99.9 62.9H83.3C81.5 62.9 80 61.4 80 59.6C80 57.8 81.5 56.3 83.3 56.3H117.9C118.1 57.7 118.2 59.1 118.2 60.5ZM115.7 43.7H106.3C104.5 43.7 103 42.2 103 40.4C103 38.6 104.5 37.1 106.3 37.1H113.3C114.2 39.3 115 41.5 115.7 43.7ZM106.3 34.3C102.9 34.3 100.1 37.1 100.1 40.5C100.1 43.9 102.9 46.7 106.3 46.7H116.5C117.1 48.9 117.5 51.2 117.7 53.5H83.4C80 53.5 77.2 56.3 77.2 59.7C77.2 63.1 80 65.9 83.4 65.9H100C101.9 65.9 103.5 67.5 103.5 69.4C103.5 71.3 101.9 72.9 100 72.9H67.5C64.2 72.9 61.4 75.6 61.4 79C61.4 82.4 64.1 85.1 67.5 85.1H112.8C103.3 105.1 83.2 117.8 61.1 117.9C48.1 117.9 35.4 113.5 25.3 105.3H35C38.5 105.3 41.4 102.4 41.4 98.9C41.4 95.4 38.5 92.5 35 92.5H13.5C12.2 90.5 10.9 88.4 9.90002 86.2H19.3C22.8 86.2 25.7 83.3 25.7 79.8C25.7 76.3 22.8 73.4 19.3 73.4H5.40002C3.40002 64.6 3.59995 55.5 5.69995 46.7H57.6C61.1 46.7 64 43.8 64 40.3C64 36.8 61.1 33.9 57.6 33.9H26.4C24.6 33.9 23.1 32.4 23.1 30.6C23.1 28.8 24.6 27.3 26.4 27.3H41.9C45.4 27.3 48.2 24.5 48.2 21C48.2 17.5 45.4 14.7 41.9 14.7H27C49.8 -2.09999 81.4 0.299988 101.4 20.3C105.6 24.5 109.1 29.3 111.8 34.6H106.3V34.3Z" fill="#604AF3"/>
</svg>
