<svg width="45" height="33" viewBox="0 0 45 33" fill="none" xmlns="http://www.w3.org/2000/svg">
<path d="M4.09998 0.200023C8.99998 0.100023 13.8 0.200021 18.7 0.100021C23.6 0.100021 28.4 0.100021 33.3 0.100021C35.2001 0.100021 37.2 0.100021 39.1 0.100021C39.4 0.100021 39.7 0.200023 40 0.200023C40.1 0.200023 40.2001 0.300023 40.3 0.200023C41.3 -0.199977 42 0.400024 42.7 0.900024C43.4 1.50002 43.9 2.20002 44.1 3.10002C44.1 3.20002 44.2 3.20002 44.1 3.30002C43.8 3.90002 44.2 4.40002 44.2 5.00002C44.2 12.5 44.2 20 44.2 27.5C44.2 27.8 44.1 28.1 44.1 28.4C44.1 28.5 44 28.6 44.1 28.6C44.5 29.9 43.7001 30.8 42.8 31.6C42.3 32 41.6 32.2 41 32.5C40.9 32.6 40.7 32.5 40.5 32.5C40.4 32.5 40.2999 32.4 40.2 32.5C39.5 32.6 38.8 32.7 38.1 32.7C27.4 32.7 16.6 32.7 5.90002 32.7C5.60002 32.7 5.30002 32.6 4.90002 32.5C4.80002 32.5 4.69995 32.5 4.69995 32.5C3.29995 32.8 2.39998 32 1.59998 31.1C1.19998 30.6 1.10005 30 0.800049 29.5C0.800049 29.4 0.700049 29.4 0.800049 29.3C1.10005 28.7 0.699951 28.1 0.699951 27.5C0.699951 20.1 0.699951 12.7 0.699951 5.30002C0.699951 4.90002 0.800024 4.60002 0.900024 4.20002C0.900024 4.10002 0.900024 4.00002 0.900024 4.00002C0.500024 2.50002 1.40002 1.60002 2.40002 0.900024C2.90002 0.500024 3.49998 0.300021 4.09998 0.100021C3.99998 0.100021 4.09998 0.100023 4.09998 0.200023ZM22.3 27.4C27.4 27.4 32.4 27.4 37.5 27.4C37.9 27.4 38.2 27.5 38.6 27.6C38.7 27.6 38.9 27.6 39 27.5C39.1 27.4 39.1 27.3 39 27.1C39 26.8 38.9 26.5 38.9 26.1C38.9 23.6 38.9 21.1 38.9 18.7C38.9 18.4 39 18.2 39 17.9C39.1 17.7 39.1 17.5 38.8 17.4C38.6 17.3 38.4 17.2 38.2 17C36.1 14.9 34 12.8 32 10.8C31.9 10.7 31.7 10.6 31.7 10.5C31.7 10.1 31.4 10 31.1 9.90002C30.9 9.80002 30.7 9.80002 30.5 9.80002C30.1 9.80002 29.8 9.90002 29.6 10.3C29.5 10.5 29.4 10.6 29.3 10.8C25.8 14.3 22.3 17.8 18.8 21.3C18.4 21.7 18.2 21.7 17.8 21.3C16.6 20.1 15.3 18.8 14.1 17.6C13.8 17.3 13.8 16.8 13.4 16.8C13.2 16.8 13 16.8 12.7 16.7C12.3 16.6 12.1 16.9 11.8 17.1C11.5 17.3 11.4 17.7 11.1 18C9.59998 19.5 8.09998 21 6.59998 22.4C6.39998 22.6 6.00005 22.8 5.80005 23C5.70005 23.1 5.59998 23.2 5.59998 23.4C5.59998 24.2 5.70005 24.9 5.80005 25.7C5.80005 26.2 5.69998 26.7 5.59998 27.3C5.59998 27.6 5.69998 27.8 6.09998 27.7C6.39998 27.6 6.69998 27.5 7.09998 27.5C12.2 27.4 17.3 27.4 22.3 27.4ZM7.30005 4.70002V4.80002C7.70005 4.80002 8.00002 4.80002 8.40002 4.80002V4.90002C7.00002 5.40002 6.00002 6.50002 5.40002 7.80002C5.40002 7.50002 5.40002 7.20002 5.40002 6.90002C5.40002 6.80002 5.30005 6.70002 5.30005 6.70002C5.20005 6.80002 5.09998 6.90002 5.09998 6.90002C5.39998 8.00002 4.89998 9.10002 5.09998 10.2C5.19998 10.7 5.09998 11.3 5.09998 11.9C5.09998 12 5.09995 12.1 5.19995 12.2C5.29995 12.2 5.30002 12.2 5.40002 12.2C5.40002 11.8 5.40002 11.5 5.40002 11.1C6.10002 12.5 7.1 13.5 8.5 14.1C8.1 14.1 7.70005 14.1 7.30005 14.1C7.40005 14.2 7.4 14.3 7.5 14.3C8.4 14.3 9.19998 14.1 10.1 14.5C10.2 14.5 10.3 14.5 10.4 14.4C10.6 14.4 10.8 14.3 11 14.3C11.5 14.3 12.1 14.3 12.6 14.3C12.7 14.3 12.8 14.2 12.9 14.2C12.8 14.2 12.7 14.1 12.6 14.1C12.3 14.1 12 14.1 11.7 14.1C13.2 13.5 14.1 12.4 14.7 11C14.7 11.3 14.7 11.6 14.7 11.9C14.7 12 14.7 12.1 14.8 12.2H14.9C14.9 12.1 14.9 12 14.9 11.9C14.9 11.1 14.7 10.3 15.1 9.60002C15.1 9.50002 15.1 9.40002 15.1 9.30002C14.7 8.50002 14.8 7.70002 14.9 6.90002C14.9 6.80002 14.9 6.70002 14.9 6.70002H14.8C14.8 6.80002 14.7 6.90002 14.7 7.00002C14.7 7.30002 14.7 7.60002 14.7 7.90002C14.1 6.40002 13 5.40002 11.6 4.80002C12 4.80002 12.4 4.80002 12.8 4.80002C12.8 4.70002 12.8 4.70002 12.8 4.60002C12.7 4.60002 12.6 4.50002 12.5 4.50002C11.9 4.50002 11.4 4.50002 10.8 4.50002C10.5 4.50002 10.2 4.30002 9.90002 4.30002C9.10002 4.30002 8.3 4.40002 7.5 4.50002C7.5 4.70002 7.40005 4.70002 7.30005 4.70002Z" fill="#A579BC"/>
</svg>
