<svg width="42" height="37" viewBox="0 0 42 37" fill="none" xmlns="http://www.w3.org/2000/svg">
<path d="M9.69995 9.00001V27.4C9.69995 28.1 9.1 28.6 8.5 28.6H1.19995C0.499951 28.6 0 28 0 27.4V9.00001C0 8.30001 0.599951 7.80001 1.19995 7.80001H8.5C9.1 7.70001 9.69995 8.30001 9.69995 9.00001Z" fill="#B59CFF"/>
<path d="M9.69995 18.2V27.4C9.69995 28.1 9.1 28.5999 8.5 28.5999H1.19995C0.499951 28.5999 0 28 0 27.4V18.2H9.69995Z" fill="#A586FF"/>
<path d="M24.8 4.10003V32.2C24.8 35.1 21.6 36.9 19.2 35.4L8.09998 28.7V7.70003L19.2 1.00003C21.6 -0.499972 24.8 1.20003 24.8 4.10003Z" fill="#F3EEFF"/>
<path d="M24.8 18.2V32.3C24.8 35.2 21.6 37 19.2 35.5L8.09998 28.7999V18.2H24.8Z" fill="#E7D9FC"/>
<path d="M31.4 18.1999C31.4 19.3999 31 20.4999 30.1 21.3999C29.6 21.8999 28.8 21.8999 28.4 21.3999C27.9 20.8999 27.9 20.0999 28.4 19.6999C28.8 19.2999 29 18.7999 29 18.1999C29 17.6999 28.8 17.0999 28.4 16.6999C27.9 16.1999 27.9 15.3999 28.4 14.9999C28.9 14.5999 29.7 14.4999 30.1 14.9999C31 15.8999 31.4 16.9999 31.4 18.1999Z" fill="#DD5958"/>
<path d="M28.9 18.2H31.4C31.4 19.4 31 20.5 30.1 21.4C29.6 21.9 28.8 21.9 28.4 21.4C27.9 20.9 27.9 20.1 28.4 19.7C28.7 19.2 28.9 18.7 28.9 18.2Z" fill="#D8225B"/>
<path d="M36.7 18.2001C36.7 20.7001 35.7 23.2 33.8 25.1C33.3 25.6 32.5 25.6 32.1 25.1C31.6 24.6 31.6 23.8001 32.1 23.4001C33.5 22.0001 34.2 20.1 34.2 18.2001C34.2 16.3001 33.5 14.4 32.1 13C31.6 12.5 31.6 11.7 32.1 11.3C32.6 10.8 33.4 10.8 33.8 11.3C35.7 13.2 36.7 15.7001 36.7 18.2001Z" fill="#FFE278"/>
<path d="M36.7 18.2C36.7 20.7 35.7 23.1999 33.8 25.0999C33.3 25.5999 32.5 25.5999 32.1 25.0999C31.6 24.5999 31.6 23.8 32.1 23.4C33.5 22 34.2 20.1 34.2 18.2H36.7Z" fill="#FFB454"/>
<path d="M42 18.2C42 22 40.5 25.9 37.5 28.9C37 29.4 36.2 29.4 35.8 28.9C35.3 28.4 35.3 27.6 35.8 27.2C38.3 24.7 39.5 21.4999 39.5 18.2999C39.5 15.0999 38.3 11.9 35.8 9.39995C35.3 8.89995 35.3 8.09995 35.8 7.69995C36.3 7.19995 37.1 7.19995 37.5 7.69995C40.5 10.5 42 14.4 42 18.2Z" fill="#C5E092"/>
<path d="M42 18.2C42 22 40.5 25.9 37.5 28.9C37 29.4 36.2 29.4 35.8 28.9C35.3 28.4 35.3 27.6 35.8 27.2C38.3 24.7 39.5 21.4999 39.5 18.2999H42V18.2Z" fill="#C4FF52"/>
</svg>
