<svg width="41" height="41" viewBox="0 0 41 41" fill="none" xmlns="http://www.w3.org/2000/svg">
<path d="M8.80004 40.8999C6.50004 40.9999 4.30001 40.6999 2.40001 39.2999C1.50001 38.6999 0.799962 37.7999 0.599962 36.6999C0.599962 36.4999 0.599962 36.2999 0.599962 36.0999C0.599962 35.9999 0.699962 35.8999 0.599962 35.7999C0.299962 35.1999 0.600011 34.6999 0.900011 34.1999C1.60001 32.9999 2.60001 32.1999 3.90001 31.6999C5.00001 31.1999 6.10003 30.9999 7.30003 30.8999C8.10004 30.8999 9.00004 30.9999 9.80004 31.0999C9.90004 31.0999 10.0999 31.1999 10.1999 31.2999C10.1999 31.2999 10.2 31.2999 10.3 31.2999C10.5 31.2999 10.7 31.1999 10.6 30.9999C10.6 30.7999 10.5 30.4999 10.5 30.2999C10.5 24.0999 10.5 17.7999 10.5 11.5999C10.5 11.1999 10.6 10.7999 10.5 10.3999C10.5 9.6999 11.3 8.6999 12.1 8.5999C12.4 8.5999 12.7 8.2999 13.1 8.1999C15.2 7.5999 17.2 6.9999 19.3 6.3999C25 4.6999 30.8 2.9999 36.5 1.2999C36.9 1.1999 37.3 0.999902 37.8 0.999902C38.3 0.999902 38.9 0.899902 39.3 1.4999C39.5 1.7999 39.9 1.8999 40.1 2.1999C40.3 2.4999 40.5 2.8999 40.3 3.2999C40.2 3.4999 40.4 3.7999 40.4 3.9999C40.4 4.4999 40.4 4.9999 40.4 5.4999C40.4 13.5999 40.4 21.5999 40.4 29.6999C40.4 29.9999 40.3 30.3999 40.3 30.6999V30.7999C40.6 32.0999 39.9 32.8999 39.1 33.6999C38 34.7999 36.6 35.2999 35.1 35.5999C34.7 35.6999 34.3 35.7999 33.9 35.7999C33 35.7999 32 35.7999 31.1 35.5999C30.2 35.3999 29.2 35.0999 28.4 34.6999C27.7 34.2999 27 33.7999 26.5 33.0999C25.2 31.5999 25.4999 29.1999 27.1999 27.7999C28.6999 26.5999 30.3999 26.0999 32.1999 25.8999C32.4999 25.8999 32.7 25.7999 33 25.7999C33.3 25.7999 33.7 25.8999 34 25.8999C34.5 25.8999 35.1 25.8999 35.6 26.2999C35.7 26.2999 35.8 26.2999 35.9 26.2999C36 26.1999 36 26.0999 35.9 25.9999C35.9 25.6999 35.8 25.3999 35.8 25.1999C35.8 20.9999 35.8 16.8999 35.8 12.6999C35.8 12.3999 35.9 12.0999 35.9 11.8999C35.9 11.7999 35.9 11.5999 35.8 11.5999C35.7 11.5999 35.6 11.5999 35.5 11.6999C35.3 11.7999 35.1 11.8999 34.9 11.9999C28.8 13.7999 22.6 15.5999 16.5 17.3999C16.3 17.4999 15.9999 17.4999 15.6999 17.4999C15.3999 17.4999 15.4 17.5999 15.4 17.8999C15.5 18.0999 15.5 18.3999 15.5 18.5999C15.5 24.0999 15.5 29.5999 15.5 35.0999C15.5 36.0999 15.5 37.0999 14.9 37.9999C14.2 38.9999 13.2 39.6999 12.1 40.1999C10.9 40.5999 9.90004 40.8999 8.80004 40.8999Z" fill="#A579BC"/>
</svg>
